<svg xmlns="http://www.w3.org/2000/svg" xmlns:xlink="http://www.w3.org/1999/xlink" width="500" zoomAndPan="magnify" viewBox="0 0 375 374.999991" height="500" preserveAspectRatio="xMidYMid meet" version="1.0"><defs><clipPath id="4beebc6a1d"><path d="M 115.3125 105 L 260 105 L 260 248.964844 L 115.3125 248.964844 Z M 115.3125 105 " clip-rule="nonzero"/></clipPath><clipPath id="c415ae6715"><path d="M 115.3125 104 L 260 104 L 260 248.964844 L 115.3125 248.964844 Z M 115.3125 104 " clip-rule="nonzero"/></clipPath><clipPath id="2c4209a059"><path d="M 115.3125 105 L 260 105 L 260 147 L 115.3125 147 Z M 115.3125 105 " clip-rule="nonzero"/></clipPath><clipPath id="0fd83607a9"><path d="M 208 213 L 260 213 L 260 248.964844 L 208 248.964844 Z M 208 213 " clip-rule="nonzero"/></clipPath></defs><rect x="-37.5" width="450" fill="#ffffff" y="-37.499999" height="449.999989" fill-opacity="1"/><rect x="-37.5" width="450" fill="#ffffff" y="-37.499999" height="449.999989" fill-opacity="1"/><g clip-path="url(#4beebc6a1d)"><path fill="#ffffff" d="M 259.066406 213.015625 C 259.066406 217.902344 213.882812 248.289062 208.996094 248.289062 L 124.828125 248.289062 C 119.941406 248.289062 115.976562 244.324219 115.976562 239.4375 L 115.976562 114.050781 C 115.976562 109.160156 119.941406 105.199219 124.828125 105.199219 L 250.214844 105.199219 C 255.101562 105.199219 259.066406 109.160156 259.066406 114.050781 L 259.066406 213.015625 " fill-opacity="1" fill-rule="nonzero"/></g><g clip-path="url(#c415ae6715)"><path fill="#d3d2d2" d="M 259.066406 213.015625 L 258.414062 213.015625 C 258.414062 213.039062 258.398438 213.140625 258.335938 213.289062 C 258.214844 213.578125 257.925781 214.019531 257.488281 214.542969 C 256.667969 215.527344 255.347656 216.8125 253.664062 218.273438 C 247.769531 223.402344 237.472656 230.78125 228.1875 236.855469 C 223.546875 239.894531 219.152344 242.609375 215.6875 244.558594 C 213.960938 245.53125 212.460938 246.316406 211.289062 246.847656 C 210.707031 247.113281 210.203125 247.316406 209.804688 247.449219 C 209.410156 247.582031 209.109375 247.636719 208.996094 247.632812 L 124.828125 247.632812 C 122.5625 247.632812 120.515625 246.71875 119.03125 245.234375 C 117.546875 243.746094 116.628906 241.703125 116.628906 239.4375 L 116.628906 114.050781 C 116.628906 111.78125 117.546875 109.738281 119.03125 108.253906 C 120.515625 106.765625 122.5625 105.851562 124.828125 105.851562 L 250.214844 105.851562 C 252.480469 105.851562 254.527344 106.765625 256.011719 108.253906 C 257.496094 109.738281 258.414062 111.78125 258.414062 114.050781 L 258.414062 213.015625 L 259.71875 213.015625 L 259.71875 114.050781 C 259.71875 108.800781 255.464844 104.546875 250.214844 104.546875 L 124.828125 104.546875 C 119.578125 104.546875 115.324219 108.800781 115.324219 114.050781 L 115.324219 239.4375 C 115.324219 244.6875 119.578125 248.941406 124.828125 248.941406 L 208.996094 248.941406 C 209.234375 248.941406 209.46875 248.898438 209.730469 248.832031 C 210.230469 248.707031 210.835938 248.476562 211.558594 248.160156 C 214.246094 246.96875 218.550781 244.503906 223.535156 241.382812 C 231.011719 236.707031 239.988281 230.582031 247.113281 225.191406 C 250.675781 222.5 253.773438 219.992188 256 217.933594 C 257.113281 216.902344 258.011719 215.984375 258.644531 215.191406 C 258.964844 214.792969 259.21875 214.425781 259.402344 214.078125 C 259.585938 213.726562 259.714844 213.394531 259.71875 213.015625 L 259.066406 213.015625 " fill-opacity="1" fill-rule="nonzero"/></g><g clip-path="url(#2c4209a059)"><path fill="#f5d70b" d="M 259.066406 146.871094 L 259.066406 114.050781 C 259.066406 109.160156 255.101562 105.199219 250.214844 105.199219 L 124.828125 105.199219 C 119.941406 105.199219 115.976562 109.160156 115.976562 114.050781 L 115.976562 146.871094 L 259.066406 146.871094 " fill-opacity="1" fill-rule="nonzero"/></g><path fill="#4e080d" d="M 128.109375 111.191406 C 126.976562 111.191406 126.054688 110.269531 126.054688 109.136719 C 126.054688 108.003906 126.976562 107.082031 128.109375 107.082031 C 129.242188 107.082031 130.164062 108.003906 130.164062 109.136719 C 130.164062 110.269531 129.242188 111.191406 128.109375 111.191406 " fill-opacity="1" fill-rule="nonzero"/><path fill="#4e080d" d="M 132.339844 111.191406 C 131.203125 111.191406 130.28125 110.269531 130.28125 109.136719 C 130.28125 108.003906 131.203125 107.082031 132.339844 107.082031 C 133.472656 107.082031 134.390625 108.003906 134.390625 109.136719 C 134.390625 110.269531 133.472656 111.191406 132.339844 111.191406 " fill-opacity="1" fill-rule="nonzero"/><path fill="#ffffff" d="M 129.5 109.660156 C 129.5 110.429688 128.878906 111.054688 128.109375 111.054688 C 127.339844 111.054688 126.71875 110.429688 126.71875 109.660156 L 126.71875 100.730469 C 126.71875 99.960938 127.339844 99.335938 128.109375 99.335938 C 128.878906 99.335938 129.5 99.960938 129.5 100.730469 L 129.5 109.660156 " fill-opacity="1" fill-rule="nonzero"/><path fill="#d3d2d2" d="M 129.5 109.660156 L 129.175781 109.660156 C 129.175781 110.25 128.699219 110.726562 128.109375 110.726562 C 127.519531 110.726562 127.046875 110.25 127.042969 109.660156 L 127.042969 100.730469 C 127.046875 100.140625 127.519531 99.664062 128.109375 99.660156 C 128.699219 99.664062 129.175781 100.140625 129.175781 100.730469 L 129.175781 109.660156 L 129.828125 109.660156 L 129.828125 100.730469 C 129.824219 99.777344 129.058594 99.007812 128.109375 99.007812 C 127.160156 99.007812 126.390625 99.777344 126.390625 100.730469 L 126.390625 109.660156 C 126.390625 110.613281 127.160156 111.378906 128.109375 111.378906 C 129.058594 111.378906 129.824219 110.609375 129.828125 109.660156 L 129.5 109.660156 " fill-opacity="1" fill-rule="nonzero"/><path fill="#ffffff" d="M 133.730469 109.660156 C 133.730469 110.429688 133.105469 111.054688 132.339844 111.054688 C 131.566406 111.054688 130.945312 110.429688 130.945312 109.660156 L 130.945312 100.730469 C 130.945312 99.960938 131.566406 99.335938 132.339844 99.335938 C 133.105469 99.335938 133.730469 99.960938 133.730469 100.730469 L 133.730469 109.660156 " fill-opacity="1" fill-rule="nonzero"/><path fill="#d3d2d2" d="M 133.730469 109.660156 L 133.402344 109.660156 C 133.402344 110.25 132.925781 110.726562 132.339844 110.726562 C 131.746094 110.726562 131.269531 110.25 131.269531 109.660156 L 131.269531 100.730469 C 131.269531 100.140625 131.746094 99.660156 132.339844 99.660156 C 132.925781 99.664062 133.402344 100.140625 133.402344 100.730469 L 133.402344 109.660156 L 134.058594 109.660156 L 134.058594 100.730469 C 134.054688 99.777344 133.285156 99.007812 132.339844 99.007812 C 131.863281 99.007812 131.429688 99.203125 131.121094 99.515625 C 130.808594 99.824219 130.617188 100.253906 130.617188 100.730469 L 130.617188 109.660156 C 130.617188 110.136719 130.808594 110.566406 131.121094 110.875 C 131.429688 111.1875 131.863281 111.378906 132.339844 111.378906 C 133.285156 111.378906 134.054688 110.613281 134.058594 109.660156 L 133.730469 109.660156 " fill-opacity="1" fill-rule="nonzero"/><path fill="#4e080d" d="M 142.433594 111.191406 C 141.300781 111.191406 140.378906 110.269531 140.378906 109.136719 C 140.378906 108.003906 141.300781 107.082031 142.433594 107.082031 C 143.566406 107.082031 144.488281 108.003906 144.488281 109.136719 C 144.488281 110.269531 143.566406 111.191406 142.433594 111.191406 " fill-opacity="1" fill-rule="nonzero"/><path fill="#4e080d" d="M 146.664062 111.191406 C 145.523438 111.191406 144.605469 110.269531 144.605469 109.136719 C 144.605469 108.003906 145.523438 107.082031 146.664062 107.082031 C 147.796875 107.082031 148.714844 108.003906 148.714844 109.136719 C 148.714844 110.269531 147.796875 111.191406 146.664062 111.191406 " fill-opacity="1" fill-rule="nonzero"/><path fill="#ffffff" d="M 143.828125 109.660156 C 143.828125 110.429688 143.203125 111.054688 142.4375 111.054688 C 141.664062 111.054688 141.042969 110.429688 141.042969 109.660156 L 141.042969 100.730469 C 141.042969 99.960938 141.664062 99.335938 142.4375 99.335938 C 143.203125 99.335938 143.828125 99.960938 143.828125 100.730469 L 143.828125 109.660156 " fill-opacity="1" fill-rule="nonzero"/><path fill="#d3d2d2" d="M 143.828125 109.660156 L 143.5 109.660156 C 143.5 110.25 143.023438 110.726562 142.4375 110.726562 C 141.847656 110.726562 141.371094 110.25 141.367188 109.660156 L 141.367188 100.730469 C 141.371094 100.140625 141.847656 99.664062 142.4375 99.660156 C 143.023438 99.664062 143.5 100.140625 143.5 100.730469 L 143.5 109.660156 L 144.152344 109.660156 L 144.152344 100.730469 C 144.152344 99.777344 143.386719 99.007812 142.4375 99.007812 C 141.484375 99.007812 140.71875 99.777344 140.714844 100.730469 L 140.714844 109.660156 C 140.71875 110.613281 141.484375 111.378906 142.4375 111.378906 C 143.386719 111.378906 144.152344 110.609375 144.152344 109.660156 L 143.828125 109.660156 " fill-opacity="1" fill-rule="nonzero"/><path fill="#ffffff" d="M 148.054688 109.660156 C 148.054688 110.429688 147.429688 111.054688 146.664062 111.054688 C 145.890625 111.054688 145.269531 110.429688 145.269531 109.660156 L 145.269531 100.730469 C 145.269531 99.960938 145.890625 99.335938 146.664062 99.335938 C 147.429688 99.335938 148.054688 99.960938 148.054688 100.730469 L 148.054688 109.660156 " fill-opacity="1" fill-rule="nonzero"/><path fill="#d3d2d2" d="M 148.054688 109.660156 L 147.730469 109.660156 C 147.726562 110.25 147.25 110.726562 146.664062 110.726562 C 146.070312 110.726562 145.59375 110.25 145.59375 109.660156 L 145.59375 100.730469 C 145.59375 100.140625 146.070312 99.660156 146.664062 99.660156 C 147.25 99.664062 147.726562 100.140625 147.730469 100.730469 L 147.730469 109.660156 L 148.382812 109.660156 L 148.382812 100.730469 C 148.382812 99.777344 147.613281 99.007812 146.664062 99.007812 C 146.1875 99.007812 145.753906 99.203125 145.445312 99.511719 C 145.132812 99.824219 144.941406 100.253906 144.941406 100.730469 L 144.941406 109.660156 C 144.945312 110.609375 145.710938 111.378906 146.664062 111.378906 C 147.613281 111.378906 148.382812 110.613281 148.382812 109.660156 L 148.054688 109.660156 " fill-opacity="1" fill-rule="nonzero"/><path fill="#4e080d" d="M 156.757812 111.191406 C 155.625 111.191406 154.703125 110.269531 154.703125 109.136719 C 154.703125 108.003906 155.625 107.082031 156.757812 107.082031 C 157.894531 107.082031 158.8125 108.003906 158.8125 109.136719 C 158.8125 110.269531 157.894531 111.191406 156.757812 111.191406 " fill-opacity="1" fill-rule="nonzero"/><path fill="#4e080d" d="M 160.988281 111.191406 C 159.851562 111.191406 158.929688 110.269531 158.929688 109.136719 C 158.929688 108.003906 159.851562 107.082031 160.988281 107.082031 C 162.121094 107.082031 163.039062 108.003906 163.039062 109.136719 C 163.039062 110.269531 162.121094 111.191406 160.988281 111.191406 " fill-opacity="1" fill-rule="nonzero"/><path fill="#ffffff" d="M 158.152344 109.660156 C 158.152344 110.429688 157.527344 111.054688 156.761719 111.054688 C 155.992188 111.054688 155.367188 110.429688 155.367188 109.660156 L 155.367188 100.730469 C 155.367188 99.960938 155.992188 99.335938 156.761719 99.335938 C 157.527344 99.335938 158.152344 99.960938 158.152344 100.730469 L 158.152344 109.660156 " fill-opacity="1" fill-rule="nonzero"/><path fill="#d3d2d2" d="M 158.152344 109.660156 L 157.824219 109.660156 C 157.824219 110.25 157.347656 110.726562 156.761719 110.726562 C 156.171875 110.726562 155.695312 110.25 155.695312 109.660156 L 155.695312 100.730469 C 155.695312 100.140625 156.171875 99.664062 156.761719 99.660156 C 157.347656 99.664062 157.824219 100.140625 157.824219 100.730469 L 157.824219 109.660156 L 158.476562 109.660156 L 158.476562 100.730469 C 158.476562 99.777344 157.710938 99.007812 156.761719 99.007812 C 155.8125 99.007812 155.042969 99.777344 155.042969 100.730469 L 155.042969 109.660156 C 155.042969 110.613281 155.8125 111.378906 156.761719 111.378906 C 157.707031 111.378906 158.476562 110.609375 158.476562 109.660156 L 158.152344 109.660156 " fill-opacity="1" fill-rule="nonzero"/><path fill="#ffffff" d="M 162.378906 109.660156 C 162.378906 110.429688 161.753906 111.054688 160.988281 111.054688 C 160.214844 111.054688 159.59375 110.429688 159.59375 109.660156 L 159.59375 100.730469 C 159.59375 99.960938 160.214844 99.335938 160.988281 99.335938 C 161.753906 99.335938 162.378906 99.960938 162.378906 100.730469 L 162.378906 109.660156 " fill-opacity="1" fill-rule="nonzero"/><path fill="#d3d2d2" d="M 162.378906 109.660156 L 162.054688 109.660156 C 162.050781 110.25 161.574219 110.726562 160.988281 110.726562 C 160.394531 110.726562 159.921875 110.25 159.921875 109.660156 L 159.921875 100.730469 C 159.921875 100.140625 160.394531 99.660156 160.988281 99.660156 C 161.574219 99.664062 162.050781 100.140625 162.054688 100.730469 L 162.054688 109.660156 L 162.707031 109.660156 L 162.707031 100.730469 C 162.707031 99.777344 161.9375 99.007812 160.988281 99.007812 C 160.511719 99.007812 160.082031 99.203125 159.769531 99.515625 C 159.460938 99.824219 159.265625 100.253906 159.265625 100.730469 L 159.265625 109.660156 C 159.265625 110.136719 159.460938 110.566406 159.769531 110.875 C 160.082031 111.1875 160.511719 111.378906 160.988281 111.378906 C 161.9375 111.378906 162.707031 110.613281 162.707031 109.660156 L 162.378906 109.660156 " fill-opacity="1" fill-rule="nonzero"/><path fill="#4e080d" d="M 171.085938 111.191406 C 169.949219 111.191406 169.027344 110.269531 169.027344 109.136719 C 169.027344 108.003906 169.949219 107.082031 171.085938 107.082031 C 172.21875 107.082031 173.136719 108.003906 173.136719 109.136719 C 173.136719 110.269531 172.21875 111.191406 171.085938 111.191406 " fill-opacity="1" fill-rule="nonzero"/><path fill="#4e080d" d="M 175.3125 111.191406 C 174.175781 111.191406 173.253906 110.269531 173.253906 109.136719 C 173.253906 108.003906 174.175781 107.082031 175.3125 107.082031 C 176.445312 107.082031 177.367188 108.003906 177.367188 109.136719 C 177.367188 110.269531 176.445312 111.191406 175.3125 111.191406 " fill-opacity="1" fill-rule="nonzero"/><path fill="#ffffff" d="M 172.476562 109.660156 C 172.476562 110.429688 171.855469 111.054688 171.085938 111.054688 C 170.3125 111.054688 169.691406 110.429688 169.691406 109.660156 L 169.691406 100.730469 C 169.691406 99.960938 170.3125 99.335938 171.085938 99.335938 C 171.855469 99.335938 172.476562 99.960938 172.476562 100.730469 L 172.476562 109.660156 " fill-opacity="1" fill-rule="nonzero"/><path fill="#d3d2d2" d="M 172.476562 109.660156 L 172.152344 109.660156 C 172.152344 110.25 171.675781 110.726562 171.085938 110.726562 C 170.496094 110.726562 170.019531 110.25 170.019531 109.660156 L 170.019531 100.730469 C 170.019531 100.140625 170.496094 99.664062 171.085938 99.660156 C 171.675781 99.664062 172.152344 100.140625 172.152344 100.730469 L 172.152344 109.660156 L 172.804688 109.660156 L 172.804688 100.730469 C 172.800781 99.777344 172.035156 99.007812 171.085938 99.007812 C 170.132812 99.007812 169.367188 99.777344 169.363281 100.730469 L 169.363281 109.660156 C 169.367188 110.613281 170.132812 111.378906 171.085938 111.378906 C 172.035156 111.378906 172.800781 110.609375 172.804688 109.660156 L 172.476562 109.660156 " fill-opacity="1" fill-rule="nonzero"/><path fill="#ffffff" d="M 176.703125 109.660156 C 176.703125 110.429688 176.082031 111.054688 175.3125 111.054688 C 174.539062 111.054688 173.917969 110.429688 173.917969 109.660156 L 173.917969 100.730469 C 173.917969 99.960938 174.539062 99.335938 175.3125 99.335938 C 176.082031 99.335938 176.703125 99.960938 176.703125 100.730469 L 176.703125 109.660156 " fill-opacity="1" fill-rule="nonzero"/><path fill="#d3d2d2" d="M 176.703125 109.660156 L 176.375 109.660156 C 176.375 110.25 175.902344 110.726562 175.3125 110.726562 C 174.71875 110.726562 174.246094 110.25 174.246094 109.660156 L 174.246094 100.730469 C 174.246094 100.140625 174.71875 99.660156 175.3125 99.660156 C 175.902344 99.664062 176.375 100.140625 176.375 100.730469 L 176.375 109.660156 L 177.027344 109.660156 L 177.027344 100.730469 C 177.027344 99.78125 176.261719 99.007812 175.3125 99.007812 C 174.835938 99.007812 174.40625 99.203125 174.097656 99.515625 C 173.785156 99.824219 173.59375 100.253906 173.59375 100.730469 L 173.59375 109.660156 C 173.59375 110.136719 173.785156 110.566406 174.097656 110.875 C 174.40625 111.1875 174.835938 111.378906 175.3125 111.378906 C 176.261719 111.378906 177.027344 110.609375 177.027344 109.660156 L 176.703125 109.660156 " fill-opacity="1" fill-rule="nonzero"/><path fill="#4e080d" d="M 185.410156 111.191406 C 184.273438 111.191406 183.355469 110.269531 183.355469 109.136719 C 183.355469 108.003906 184.273438 107.082031 185.410156 107.082031 C 186.542969 107.082031 187.464844 108.003906 187.464844 109.136719 C 187.464844 110.269531 186.542969 111.191406 185.410156 111.191406 " fill-opacity="1" fill-rule="nonzero"/><path fill="#4e080d" d="M 189.636719 111.191406 C 188.5 111.191406 187.582031 110.269531 187.582031 109.136719 C 187.582031 108.003906 188.5 107.082031 189.636719 107.082031 C 190.769531 107.082031 191.691406 108.003906 191.691406 109.136719 C 191.691406 110.269531 190.769531 111.191406 189.636719 111.191406 " fill-opacity="1" fill-rule="nonzero"/><path fill="#ffffff" d="M 186.800781 109.660156 C 186.800781 110.429688 186.179688 111.054688 185.410156 111.054688 C 184.640625 111.054688 184.015625 110.429688 184.015625 109.660156 L 184.015625 100.730469 C 184.015625 99.960938 184.640625 99.335938 185.410156 99.335938 C 186.179688 99.335938 186.800781 99.960938 186.800781 100.730469 L 186.800781 109.660156 " fill-opacity="1" fill-rule="nonzero"/><path fill="#d3d2d2" d="M 186.800781 109.660156 L 186.476562 109.660156 C 186.476562 110.25 186 110.726562 185.410156 110.726562 C 184.820312 110.726562 184.34375 110.25 184.34375 109.660156 L 184.34375 100.730469 C 184.34375 100.140625 184.820312 99.664062 185.410156 99.660156 C 186 99.664062 186.476562 100.140625 186.476562 100.730469 L 186.476562 109.660156 L 187.128906 109.660156 L 187.128906 100.730469 C 187.125 99.777344 186.359375 99.007812 185.410156 99.007812 C 184.457031 99.007812 183.691406 99.777344 183.6875 100.730469 L 183.6875 109.660156 C 183.691406 110.613281 184.457031 111.378906 185.410156 111.378906 C 186.359375 111.378906 187.125 110.609375 187.128906 109.660156 L 186.800781 109.660156 " fill-opacity="1" fill-rule="nonzero"/><path fill="#ffffff" d="M 191.027344 109.660156 C 191.027344 110.429688 190.40625 111.054688 189.636719 111.054688 C 188.867188 111.054688 188.246094 110.429688 188.246094 109.660156 L 188.246094 100.730469 C 188.246094 99.960938 188.867188 99.335938 189.636719 99.335938 C 190.40625 99.335938 191.027344 99.960938 191.027344 100.730469 L 191.027344 109.660156 " fill-opacity="1" fill-rule="nonzero"/><path fill="#d3d2d2" d="M 191.027344 109.660156 L 190.703125 109.660156 C 190.699219 110.25 190.226562 110.726562 189.636719 110.726562 C 189.046875 110.726562 188.570312 110.25 188.570312 109.660156 L 188.570312 100.730469 C 188.570312 100.140625 189.046875 99.664062 189.636719 99.660156 C 190.226562 99.664062 190.703125 100.140625 190.703125 100.730469 L 190.703125 109.660156 L 191.355469 109.660156 L 191.355469 100.730469 C 191.351562 99.777344 190.585938 99.007812 189.636719 99.007812 C 188.683594 99.007812 187.921875 99.777344 187.917969 100.730469 L 187.917969 109.660156 C 187.921875 110.609375 188.683594 111.378906 189.636719 111.378906 C 190.585938 111.378906 191.355469 110.609375 191.355469 109.660156 L 191.027344 109.660156 " fill-opacity="1" fill-rule="nonzero"/><path fill="#4e080d" d="M 199.734375 111.191406 C 198.597656 111.191406 197.679688 110.269531 197.679688 109.136719 C 197.679688 108.003906 198.597656 107.082031 199.734375 107.082031 C 200.871094 107.082031 201.789062 108.003906 201.789062 109.136719 C 201.789062 110.269531 200.871094 111.191406 199.734375 111.191406 " fill-opacity="1" fill-rule="nonzero"/><path fill="#4e080d" d="M 203.960938 111.191406 C 202.828125 111.191406 201.90625 110.269531 201.90625 109.136719 C 201.90625 108.003906 202.828125 107.082031 203.960938 107.082031 C 205.097656 107.082031 206.015625 108.003906 206.015625 109.136719 C 206.015625 110.269531 205.097656 111.191406 203.960938 111.191406 " fill-opacity="1" fill-rule="nonzero"/><path fill="#ffffff" d="M 201.125 109.660156 C 201.125 110.429688 200.503906 111.054688 199.734375 111.054688 C 198.964844 111.054688 198.339844 110.429688 198.339844 109.660156 L 198.339844 100.730469 C 198.339844 99.960938 198.964844 99.335938 199.734375 99.335938 C 200.503906 99.335938 201.125 99.960938 201.125 100.730469 L 201.125 109.660156 " fill-opacity="1" fill-rule="nonzero"/><path fill="#d3d2d2" d="M 201.125 109.660156 L 200.800781 109.660156 C 200.800781 110.25 200.324219 110.726562 199.734375 110.726562 C 199.144531 110.726562 198.667969 110.25 198.667969 109.660156 L 198.667969 100.730469 C 198.667969 100.140625 199.144531 99.664062 199.734375 99.660156 C 200.324219 99.664062 200.800781 100.140625 200.800781 100.730469 L 200.800781 109.660156 L 201.453125 109.660156 L 201.453125 100.730469 C 201.449219 99.78125 200.6875 99.007812 199.734375 99.007812 C 198.785156 99.007812 198.015625 99.777344 198.015625 100.730469 L 198.015625 109.660156 C 198.015625 110.613281 198.785156 111.378906 199.734375 111.378906 C 200.6875 111.378906 201.449219 110.609375 201.453125 109.660156 L 201.125 109.660156 " fill-opacity="1" fill-rule="nonzero"/><path fill="#ffffff" d="M 205.351562 109.660156 C 205.351562 110.429688 204.730469 111.054688 203.960938 111.054688 C 203.191406 111.054688 202.570312 110.429688 202.570312 109.660156 L 202.570312 100.730469 C 202.570312 99.960938 203.191406 99.335938 203.960938 99.335938 C 204.730469 99.335938 205.351562 99.960938 205.351562 100.730469 L 205.351562 109.660156 " fill-opacity="1" fill-rule="nonzero"/><path fill="#d3d2d2" d="M 205.351562 109.660156 L 205.027344 109.660156 C 205.027344 110.25 204.550781 110.726562 203.960938 110.726562 C 203.371094 110.726562 202.894531 110.25 202.894531 109.660156 L 202.894531 100.730469 C 202.894531 100.140625 203.371094 99.660156 203.960938 99.660156 C 204.550781 99.664062 205.027344 100.140625 205.027344 100.730469 L 205.027344 109.660156 L 205.679688 109.660156 L 205.679688 100.730469 C 205.675781 99.777344 204.914062 99.007812 203.960938 99.007812 C 203.488281 99.007812 203.054688 99.203125 202.746094 99.515625 C 202.433594 99.824219 202.242188 100.253906 202.242188 100.730469 L 202.242188 109.660156 C 202.246094 110.609375 203.011719 111.378906 203.960938 111.378906 C 204.914062 111.378906 205.679688 110.609375 205.679688 109.660156 L 205.351562 109.660156 " fill-opacity="1" fill-rule="nonzero"/><path fill="#4e080d" d="M 214.058594 111.191406 C 212.921875 111.191406 212.003906 110.269531 212.003906 109.136719 C 212.003906 108.003906 212.921875 107.082031 214.058594 107.082031 C 215.195312 107.082031 216.113281 108.003906 216.113281 109.136719 C 216.113281 110.269531 215.195312 111.191406 214.058594 111.191406 " fill-opacity="1" fill-rule="nonzero"/><path fill="#4e080d" d="M 218.285156 111.191406 C 217.152344 111.191406 216.234375 110.269531 216.234375 109.136719 C 216.234375 108.003906 217.152344 107.082031 218.285156 107.082031 C 219.421875 107.082031 220.34375 108.003906 220.34375 109.136719 C 220.34375 110.269531 219.421875 111.191406 218.285156 111.191406 " fill-opacity="1" fill-rule="nonzero"/><path fill="#ffffff" d="M 215.453125 109.660156 C 215.453125 110.429688 214.828125 111.054688 214.058594 111.054688 C 213.289062 111.054688 212.664062 110.429688 212.664062 109.660156 L 212.664062 100.730469 C 212.664062 99.960938 213.289062 99.335938 214.058594 99.335938 C 214.828125 99.335938 215.453125 99.960938 215.453125 100.730469 L 215.453125 109.660156 " fill-opacity="1" fill-rule="nonzero"/><path fill="#d3d2d2" d="M 215.453125 109.660156 L 215.125 109.660156 C 215.125 110.25 214.644531 110.726562 214.058594 110.726562 C 213.46875 110.726562 212.992188 110.25 212.992188 109.660156 L 212.992188 100.730469 C 212.992188 100.140625 213.46875 99.664062 214.058594 99.660156 C 214.644531 99.664062 215.125 100.140625 215.125 100.730469 L 215.125 109.660156 L 215.777344 109.660156 L 215.777344 100.730469 C 215.777344 99.777344 215.007812 99.007812 214.058594 99.007812 C 213.109375 99.007812 212.339844 99.777344 212.339844 100.730469 L 212.339844 109.660156 C 212.339844 110.613281 213.109375 111.378906 214.058594 111.378906 C 215.007812 111.378906 215.777344 110.613281 215.777344 109.660156 L 215.453125 109.660156 " fill-opacity="1" fill-rule="nonzero"/><path fill="#ffffff" d="M 219.679688 109.660156 C 219.679688 110.429688 219.054688 111.054688 218.285156 111.054688 C 217.515625 111.054688 216.890625 110.429688 216.890625 109.660156 L 216.890625 100.730469 C 216.890625 99.960938 217.515625 99.335938 218.285156 99.335938 C 219.054688 99.335938 219.679688 99.960938 219.679688 100.730469 L 219.679688 109.660156 " fill-opacity="1" fill-rule="nonzero"/><path fill="#d3d2d2" d="M 219.679688 109.660156 L 219.351562 109.660156 C 219.351562 110.25 218.875 110.726562 218.285156 110.726562 C 217.695312 110.726562 217.21875 110.25 217.21875 109.660156 L 217.21875 100.730469 C 217.21875 100.140625 217.695312 99.664062 218.285156 99.660156 C 218.875 99.664062 219.351562 100.140625 219.351562 100.730469 L 219.351562 109.660156 L 220.003906 109.660156 L 220.003906 100.730469 C 220.003906 99.777344 219.238281 99.007812 218.285156 99.007812 C 217.335938 99.007812 216.566406 99.777344 216.566406 100.730469 L 216.566406 109.660156 C 216.566406 110.613281 217.335938 111.378906 218.285156 111.378906 C 219.238281 111.378906 220.003906 110.613281 220.003906 109.660156 L 219.679688 109.660156 " fill-opacity="1" fill-rule="nonzero"/><path fill="#4e080d" d="M 228.382812 111.191406 C 227.25 111.191406 226.332031 110.269531 226.332031 109.136719 C 226.332031 108.003906 227.25 107.082031 228.382812 107.082031 C 229.519531 107.082031 230.4375 108.003906 230.4375 109.136719 C 230.4375 110.269531 229.519531 111.191406 228.382812 111.191406 " fill-opacity="1" fill-rule="nonzero"/><path fill="#4e080d" d="M 232.609375 111.191406 C 231.476562 111.191406 230.558594 110.269531 230.558594 109.136719 C 230.558594 108.003906 231.476562 107.082031 232.609375 107.082031 C 233.746094 107.082031 234.664062 108.003906 234.664062 109.136719 C 234.664062 110.269531 233.746094 111.191406 232.609375 111.191406 " fill-opacity="1" fill-rule="nonzero"/><path fill="#ffffff" d="M 229.777344 109.660156 C 229.777344 110.429688 229.152344 111.054688 228.386719 111.054688 C 227.617188 111.054688 226.992188 110.429688 226.992188 109.660156 L 226.992188 100.730469 C 226.992188 99.960938 227.617188 99.335938 228.386719 99.335938 C 229.152344 99.335938 229.777344 99.960938 229.777344 100.730469 L 229.777344 109.660156 " fill-opacity="1" fill-rule="nonzero"/><path fill="#d3d2d2" d="M 229.777344 109.660156 L 229.449219 109.660156 C 229.449219 110.25 228.96875 110.726562 228.386719 110.726562 C 227.796875 110.726562 227.316406 110.25 227.316406 109.660156 L 227.316406 100.730469 C 227.316406 100.140625 227.796875 99.660156 228.386719 99.660156 C 228.96875 99.664062 229.449219 100.140625 229.449219 100.730469 L 229.449219 109.660156 L 230.101562 109.660156 L 230.101562 100.730469 C 230.101562 99.777344 229.332031 99.007812 228.386719 99.007812 C 227.910156 99.007812 227.480469 99.203125 227.167969 99.511719 C 226.859375 99.824219 226.664062 100.253906 226.664062 100.730469 L 226.664062 109.660156 C 226.667969 110.609375 227.433594 111.378906 228.386719 111.378906 C 229.332031 111.378906 230.101562 110.613281 230.101562 109.660156 L 229.777344 109.660156 " fill-opacity="1" fill-rule="nonzero"/><path fill="#ffffff" d="M 234.003906 109.660156 C 234.003906 110.429688 233.382812 111.054688 232.609375 111.054688 C 231.84375 111.054688 231.214844 110.429688 231.214844 109.660156 L 231.214844 100.730469 C 231.214844 99.960938 231.84375 99.335938 232.609375 99.335938 C 233.382812 99.335938 234.003906 99.960938 234.003906 100.730469 L 234.003906 109.660156 " fill-opacity="1" fill-rule="nonzero"/><path fill="#d3d2d2" d="M 234.003906 109.660156 L 233.675781 109.660156 C 233.675781 110.25 233.199219 110.726562 232.609375 110.726562 C 232.023438 110.726562 231.542969 110.25 231.542969 109.660156 L 231.542969 100.730469 C 231.542969 100.140625 232.023438 99.664062 232.609375 99.660156 C 233.199219 99.664062 233.675781 100.140625 233.675781 100.730469 L 233.675781 109.660156 L 234.332031 109.660156 L 234.332031 100.730469 C 234.328125 99.777344 233.5625 99.007812 232.609375 99.007812 C 231.660156 99.007812 230.890625 99.777344 230.890625 100.730469 L 230.890625 109.660156 C 230.890625 110.613281 231.660156 111.378906 232.609375 111.378906 C 233.5625 111.378906 234.328125 110.613281 234.332031 109.660156 L 234.003906 109.660156 " fill-opacity="1" fill-rule="nonzero"/><path fill="#4e080d" d="M 242.710938 111.191406 C 241.574219 111.191406 240.65625 110.269531 240.65625 109.136719 C 240.65625 108.003906 241.574219 107.082031 242.710938 107.082031 C 243.84375 107.082031 244.761719 108.003906 244.761719 109.136719 C 244.761719 110.269531 243.84375 111.191406 242.710938 111.191406 " fill-opacity="1" fill-rule="nonzero"/><path fill="#4e080d" d="M 246.933594 111.191406 C 245.800781 111.191406 244.882812 110.269531 244.882812 109.136719 C 244.882812 108.003906 245.800781 107.082031 246.933594 107.082031 C 248.070312 107.082031 248.992188 108.003906 248.992188 109.136719 C 248.992188 110.269531 248.070312 111.191406 246.933594 111.191406 " fill-opacity="1" fill-rule="nonzero"/><path fill="#ffffff" d="M 244.101562 109.660156 C 244.101562 110.429688 243.476562 111.054688 242.710938 111.054688 C 241.941406 111.054688 241.316406 110.429688 241.316406 109.660156 L 241.316406 100.730469 C 241.316406 99.960938 241.941406 99.335938 242.710938 99.335938 C 243.476562 99.335938 244.101562 99.960938 244.101562 100.730469 L 244.101562 109.660156 " fill-opacity="1" fill-rule="nonzero"/><path fill="#d3d2d2" d="M 244.101562 109.660156 L 243.777344 109.660156 C 243.773438 110.25 243.296875 110.726562 242.710938 110.726562 C 242.121094 110.726562 241.644531 110.25 241.640625 109.660156 L 241.640625 100.730469 C 241.644531 100.140625 242.121094 99.664062 242.710938 99.660156 C 243.296875 99.664062 243.773438 100.140625 243.777344 100.730469 L 243.777344 109.660156 L 244.429688 109.660156 L 244.429688 100.730469 C 244.429688 99.777344 243.660156 99.007812 242.710938 99.007812 C 241.757812 99.007812 240.988281 99.777344 240.988281 100.730469 L 240.988281 109.660156 C 240.988281 110.613281 241.757812 111.378906 242.710938 111.378906 C 243.660156 111.378906 244.425781 110.613281 244.429688 109.660156 L 244.101562 109.660156 " fill-opacity="1" fill-rule="nonzero"/><path fill="#ffffff" d="M 248.328125 109.660156 C 248.328125 110.429688 247.707031 111.054688 246.933594 111.054688 C 246.167969 111.054688 245.542969 110.429688 245.542969 109.660156 L 245.542969 100.730469 C 245.542969 99.960938 246.167969 99.335938 246.933594 99.335938 C 247.707031 99.335938 248.328125 99.960938 248.328125 100.730469 L 248.328125 109.660156 " fill-opacity="1" fill-rule="nonzero"/><path fill="#d3d2d2" d="M 248.328125 109.660156 L 248.003906 109.660156 C 248 110.25 247.527344 110.726562 246.933594 110.726562 C 246.347656 110.726562 245.871094 110.25 245.867188 109.660156 L 245.867188 100.730469 C 245.871094 100.140625 246.347656 99.664062 246.933594 99.660156 C 247.527344 99.664062 248 100.140625 248.003906 100.730469 L 248.003906 109.660156 L 248.65625 109.660156 L 248.65625 100.730469 C 248.65625 99.777344 247.886719 99.007812 246.933594 99.007812 C 245.988281 99.007812 245.214844 99.777344 245.214844 100.730469 L 245.214844 109.660156 C 245.214844 110.613281 245.988281 111.378906 246.933594 111.378906 C 247.886719 111.378906 248.65625 110.613281 248.65625 109.660156 L 248.328125 109.660156 " fill-opacity="1" fill-rule="nonzero"/><g clip-path="url(#0fd83607a9)"><path fill="#d3d2d2" d="M 208.996094 248.289062 C 208.996094 248.289062 228.976562 237.914062 225.648438 215.679688 C 225.648438 215.679688 239.71875 222.757812 259.066406 213.015625 C 259.066406 213.015625 251.203125 226.363281 241.074219 235.050781 C 225.972656 248.003906 208.996094 248.289062 208.996094 248.289062 " fill-opacity="1" fill-rule="nonzero"/></g></svg>