<?xml version="1.0" encoding="UTF-8" standalone="no"?>
<!DOCTYPE svg PUBLIC "-//W3C//DTD SVG 1.1//EN" "http://www.w3.org/Graphics/SVG/1.1/DTD/svg11.dtd">
<svg width="100%" height="100%" viewBox="0 0 157 199" version="1.1" xmlns="http://www.w3.org/2000/svg" xmlns:xlink="http://www.w3.org/1999/xlink" xml:space="preserve" xmlns:serif="http://www.serif.com/" style="fill-rule:evenodd;clip-rule:evenodd;stroke-linejoin:round;stroke-miterlimit:2;">
    <g transform="matrix(1,0,0,1,-172.14,-130.594)">
        <path d="M224.151,196.078L205.229,214.615C205.229,214.615 188.531,237.885 185.042,242.26C181.552,246.635 171.318,272.214 172.193,277.464C174.016,287.922 172.391,304.073 182.625,313.896C192.854,323.724 228.276,329.531 228.276,329.531L284.833,327.182C284.833,327.182 314.224,318.911 316.25,316.286C318.271,313.661 328.224,295.76 328.146,286.172C327.073,277.74 314.62,246.911 311.01,243.849C307.401,240.786 287.729,212.865 287.729,212.865L270.479,193.214L268.891,187.885C268.891,187.885 268.375,184.943 268.615,183.906C268.849,182.87 273.573,175.313 273.573,175.313L285.984,162.667C285.984,162.667 291.776,152.005 294.234,146.354C296.417,141.344 298.479,136.49 298.401,135.974C298.318,135.458 294.432,136.172 291.818,135.615C286.974,134.62 281.583,132.474 278.328,132.474C273.333,132.474 265.719,142.458 260.682,142.656C259.214,141.505 255.724,132.474 253.182,131C250.646,129.531 239.224,132.516 239.224,132.516L235.932,141.026L225.5,144.526C225.5,144.526 221.297,143.651 219.865,143.453C218.438,143.255 205.667,134.302 205.667,134.302C205.667,134.302 199.641,132.198 197.656,131C195.635,129.807 199.875,144.328 199.875,144.328L212.016,169.068L228.75,184.901L228.318,189.078L224.151,196.078Z" style="fill:rgb(255,231,201);fill-rule:nonzero;"/>
    </g>
    <g transform="matrix(1,0,0,1,-172.14,-130.594)">
        <path d="M275.714,267.875C273.531,266.125 260.167,257.495 257.703,256.302L257.703,252.281L258.141,237.406C262.307,238.719 268.333,241.266 268.333,241.266L268.297,241.224L271.547,232.156L263.734,225.75L258.776,224.958L259.37,215.766L251.797,214.177L252.234,223.922L248.74,223.365L245.609,224.161L246.563,212.865L239.818,212.865L239.818,225.594L229.583,228.177C229.583,228.177 224.151,235.818 223.911,239.516C223.677,243.214 224.547,256.74 232.599,259.167C234.542,259.76 236.646,260.276 238.745,260.797L238.073,271.776L237.516,286.172C232.203,284.063 226.255,281.641 225.854,281.401C225.182,280.964 223.24,279.891 222.604,280.089C221.969,280.286 215.625,289.516 215.625,289.516L233.906,296.677C233.906,296.677 235.255,297.229 237.042,297.906L236.563,309.958L244.182,308.885L244.182,300.531C245.016,300.813 245.729,301.01 246.083,301.052C246.677,301.13 248.625,300.729 251.161,300.177L250.604,309.958L256.438,310.755L256.438,298.823C261.234,297.552 266.115,296.12 267.422,295.599C270.042,294.526 279.599,287.328 279.839,282.276C280.073,277.224 277.896,269.625 275.714,267.875ZM252.786,236.609L253.224,246.198L253.026,254.948C250.286,254.234 246.875,253.359 244.182,252.401L244.182,246.516L244.698,237.724C247.391,237.245 250.406,236.729 252.786,236.609ZM235.255,244.844C234.703,241.661 237.635,238.203 239.818,238.203L239.818,243.214L239.422,249.536C238.229,248.385 235.573,246.755 235.255,244.844ZM245.885,289.474C245.688,289.396 245.052,289.156 244.182,288.839L244.182,261.948C248.464,262.786 251.755,263.302 251.755,263.302C251.755,263.302 252.151,263.5 252.786,263.818L252.51,275.87L251.797,288.677C248.859,289.276 246.443,289.672 245.885,289.474ZM263.297,285.776C262.068,286.255 259.688,286.891 257.031,287.526L257.703,277.62L257.703,266.521C262.344,269.266 267.979,273.208 267.859,276.188C267.661,281.203 266.786,284.464 263.297,285.776Z" style="fill:rgb(1,136,124);fill-rule:nonzero;"/>
    </g>
    <g transform="matrix(1,0,0,1,-172.14,-130.594)">
        <path d="M288.641,211.313C287.411,210.161 284.359,204.99 284.359,204.99L279.839,195.125L274.047,189.99L279.917,191.505L281.938,187.766L281.938,186.255L278.328,184.901L278.094,184.979L281.583,183.51L281.026,178.141L278.646,176.349L273.333,179.651L269.484,184.266L268.651,183.948L252.313,186.052L235.057,184.823L227.365,184.823L225.698,192.063L229.979,192.063L240.807,191.146L249.057,192.938L261.828,193.375L270.161,191.464L276.547,199.099L279.203,207.135C279.203,207.135 282.651,212.547 283.052,213.422C283.448,214.255 288.641,218.911 288.641,218.911C288.641,218.911 295.74,219.823 296.057,219.307C296.375,218.792 289.87,212.464 288.641,211.313Z" style="fill:rgb(223,150,26);fill-rule:nonzero;"/>
    </g>
</svg>
