<svg xmlns="http://www.w3.org/2000/svg" xmlns:xlink="http://www.w3.org/1999/xlink" width="500" zoomAndPan="magnify" viewBox="0 0 375 374.999991" height="500" preserveAspectRatio="xMidYMid meet" version="1.0"><defs><clipPath id="902ad584a2"><path d="M 213.453125 114.441406 L 262.414062 114.441406 L 262.414062 136 L 213.453125 136 Z M 213.453125 114.441406 " clip-rule="nonzero"/></clipPath><clipPath id="4eb8223cdf"><path d="M 140.285156 177 L 183 177 L 183 198 L 140.285156 198 Z M 140.285156 177 " clip-rule="nonzero"/></clipPath><clipPath id="f9cb7a0a66"><path d="M 174 112.5 L 223 112.5 L 223 159 L 174 159 Z M 174 112.5 " clip-rule="nonzero"/></clipPath><clipPath id="15f3ebf78c"><path d="M 172.09375 221.554688 L 217.910156 221.554688 L 217.910156 262.5 L 172.09375 262.5 Z M 172.09375 221.554688 " clip-rule="nonzero"/></clipPath></defs><rect x="-37.5" width="450" fill="#ffffff" y="-37.499999" height="449.999989" fill-opacity="1"/><rect x="-37.5" width="450" fill="#ffffff" y="-37.499999" height="449.999989" fill-opacity="1"/><path fill="#bc8856" d="M 196.144531 226.347656 C 191.695312 226.367188 187.257812 226.144531 182.835938 225.65625 C 180.453125 225.394531 178.082031 225.046875 175.777344 224.355469 C 175.148438 224.167969 174.53125 223.917969 173.941406 223.628906 C 173.445312 223.390625 172.925781 223.074219 172.945312 222.433594 C 172.964844 221.835938 173.46875 221.554688 173.9375 221.300781 C 175.074219 220.6875 176.3125 220.386719 177.566406 220.148438 C 180.320312 219.632812 183.097656 219.378906 185.890625 219.199219 C 189.207031 218.988281 192.527344 218.925781 195.851562 218.992188 C 200.1875 219.082031 204.511719 219.332031 208.8125 219.898438 C 209.359375 219.972656 209.898438 220.085938 210.445312 220.144531 C 211.820312 220.300781 213.1875 220.492188 214.503906 220.945312 C 215.144531 221.164062 215.773438 221.433594 216.382812 221.734375 C 216.769531 221.921875 217.152344 222.8125 217.035156 223.203125 C 216.976562 223.398438 216.824219 223.609375 216.652344 223.710938 C 216.183594 223.992188 215.707031 224.308594 215.1875 224.449219 C 213.8125 224.816406 212.421875 225.183594 211.015625 225.40625 C 206.089844 226.183594 201.125 226.371094 196.144531 226.347656 " fill-opacity="1" fill-rule="nonzero"/><path fill="#705335" d="M 174.8125 224.019531 C 175.113281 222.953125 175.789062 222.320312 176.792969 222.046875 C 177.320312 221.898438 177.863281 221.75 178.402344 221.742188 C 179.621094 221.726562 180.820312 221.601562 182.007812 221.355469 C 183.699219 221.011719 185.378906 221.046875 187.042969 221.480469 C 188.296875 221.804688 189.539062 221.742188 190.761719 221.40625 C 192.507812 220.921875 194.261719 220.789062 196.054688 221.0625 C 196.976562 221.207031 197.90625 221.144531 198.804688 220.898438 C 200.128906 220.53125 201.453125 220.554688 202.796875 220.71875 C 203.960938 220.859375 205.121094 220.871094 206.269531 220.550781 C 207.109375 220.316406 207.96875 220.363281 208.828125 220.453125 C 209.375 220.511719 209.921875 220.597656 210.46875 220.613281 C 212.222656 220.671875 213.566406 221.511719 214.683594 222.777344 C 214.886719 223.007812 215.019531 223.351562 215.0625 223.660156 C 215.167969 224.367188 215.027344 224.546875 214.332031 224.734375 C 212.265625 225.285156 210.152344 225.582031 208.03125 225.808594 C 201.839844 226.457031 195.636719 226.484375 189.425781 226.183594 C 185.558594 225.992188 181.695312 225.675781 177.890625 224.882812 C 177.054688 224.707031 176.230469 224.464844 175.402344 224.242188 C 175.199219 224.1875 175.003906 224.09375 174.8125 224.019531 " fill-opacity="1" fill-rule="nonzero"/><path fill="#3b4c3a" d="M 203.371094 167.96875 C 203.269531 168.660156 203.1875 169.355469 203.0625 170.042969 C 202.757812 171.726562 202.492188 173.414062 202.253906 175.109375 C 201.875 177.734375 201.851562 180.40625 201.257812 183.007812 C 201.019531 184.050781 200.929688 185.128906 200.804688 186.199219 C 200.757812 186.585938 200.785156 186.988281 200.800781 187.382812 C 200.933594 190.757812 201.101562 194.132812 201.191406 197.511719 C 201.25 199.835938 201.203125 202.164062 201.195312 204.492188 C 201.1875 206.929688 201.160156 209.363281 201.15625 211.800781 C 201.148438 215.511719 201.117188 219.21875 201.167969 222.929688 C 201.1875 224.507812 201.382812 226.082031 201.503906 227.65625 C 201.542969 228.136719 201.550781 228.625 201.644531 229.097656 C 201.734375 229.546875 201.519531 229.867188 201.300781 230.1875 C 201.113281 230.453125 200.839844 230.488281 200.535156 230.375 C 200.316406 230.296875 200.085938 230.21875 199.859375 230.195312 C 199.355469 230.140625 199.148438 229.976562 199.089844 229.472656 C 199.035156 228.992188 199.019531 228.507812 198.972656 228.027344 C 198.820312 226.410156 198.640625 224.796875 198.503906 223.179688 C 198.289062 220.710938 197.910156 218.25 197.9375 215.765625 C 197.953125 214.230469 198.046875 212.695312 198.09375 211.160156 C 198.152344 209.425781 198.195312 207.695312 198.246094 205.960938 C 198.246094 205.917969 198.253906 205.871094 198.25 205.828125 C 198.023438 203.542969 198.367188 201.269531 198.402344 198.988281 C 198.402344 198.878906 198.398438 198.769531 198.414062 198.660156 C 198.695312 196.960938 198.558594 195.246094 198.644531 193.539062 C 198.695312 192.511719 198.601562 191.472656 198.492188 190.449219 C 198.164062 187.398438 198.300781 184.351562 198.539062 181.3125 C 198.769531 178.335938 199.132812 175.371094 199.371094 172.398438 C 199.625 169.261719 200.210938 166.183594 200.816406 163.105469 C 201.199219 161.167969 201.6875 159.25 202.085938 157.316406 C 202.726562 154.203125 203.234375 151.058594 203.972656 147.964844 C 204.664062 145.066406 205.539062 142.207031 206.425781 139.359375 C 207.007812 137.5 207.636719 135.644531 208.585938 133.921875 C 209.273438 132.671875 209.941406 131.410156 210.589844 130.136719 C 211.675781 128.007812 213.347656 126.410156 215.238281 125.007812 C 216.050781 124.402344 216.964844 124.386719 217.890625 124.566406 C 218.402344 124.667969 218.898438 124.878906 219.386719 125.074219 C 219.785156 125.226562 219.949219 125.523438 219.867188 125.832031 C 219.78125 126.167969 219.472656 126.367188 219.03125 126.253906 C 218.523438 126.125 218.15625 126.277344 217.78125 126.609375 C 217.222656 127.101562 216.578125 127.503906 216.050781 128.023438 C 213.820312 130.21875 211.996094 132.699219 210.761719 135.589844 C 210.402344 136.4375 209.960938 137.253906 209.609375 138.101562 C 208.1875 141.527344 207.390625 145.125 206.621094 148.734375 C 206.269531 150.386719 205.917969 152.039062 205.476562 153.667969 C 204.601562 156.898438 203.980469 160.167969 203.6875 163.5 C 203.589844 164.570312 203.464844 165.636719 203.359375 166.707031 C 203.320312 167.125 203.304688 167.539062 203.277344 167.957031 C 203.308594 167.960938 203.339844 167.964844 203.371094 167.96875 " fill-opacity="1" fill-rule="nonzero"/><path fill="#41763e" d="M 192.628906 136.519531 C 192.546875 135.757812 192.582031 135.03125 193.070312 134.382812 C 193.203125 134.207031 193.222656 133.929688 193.25 133.695312 C 193.402344 132.277344 193.484375 130.851562 193.917969 129.476562 C 194.136719 128.78125 194.398438 128.113281 194.820312 127.511719 C 194.980469 127.285156 195.058594 127 195.167969 126.742188 C 195.253906 126.539062 195.300781 126.320312 195.414062 126.136719 C 195.585938 125.863281 195.894531 125.796875 196.167969 125.925781 C 196.605469 126.136719 196.886719 126.703125 196.8125 127.183594 C 196.480469 129.308594 196.152344 131.429688 195.824219 133.554688 C 195.796875 133.75 195.773438 133.949219 195.777344 134.148438 C 195.824219 135.820312 195.5625 137.46875 195.34375 139.121094 C 194.988281 141.800781 194.75 144.5 194.988281 147.199219 C 195.132812 148.847656 195 150.484375 194.90625 152.121094 C 194.785156 154.210938 194.832031 156.292969 195.019531 158.367188 C 195.449219 163.207031 195.640625 168.050781 195.75 172.898438 C 195.804688 175.335938 195.941406 177.769531 195.964844 180.207031 C 195.988281 182.398438 195.992188 184.597656 195.851562 186.785156 C 195.636719 190.171875 195.847656 193.542969 195.960938 196.921875 C 195.980469 197.492188 196.015625 198.0625 196.03125 198.632812 C 196.070312 200.125 196.085938 201.613281 196.335938 203.09375 C 196.449219 203.757812 196.429688 204.449219 196.464844 205.128906 C 196.609375 207.714844 196.746094 210.296875 196.894531 212.882812 C 196.945312 213.804688 197.117188 214.730469 197.054688 215.640625 C 196.890625 218.101562 197.121094 220.550781 197.105469 223.007812 C 197.097656 224.542969 197.144531 226.078125 197.210938 227.609375 C 197.234375 228.199219 197.351562 228.785156 197.457031 229.367188 C 197.589844 230.121094 197.503906 230.277344 196.765625 230.480469 C 196.660156 230.511719 196.566406 230.570312 196.460938 230.605469 C 196.339844 230.648438 196.210938 230.699219 196.085938 230.703125 C 195.796875 230.710938 194.765625 230.046875 194.664062 229.769531 C 194.597656 229.59375 194.578125 229.390625 194.589844 229.199219 C 194.625 228.523438 194.726562 227.847656 194.722656 227.171875 C 194.699219 224.101562 194.625 221.03125 194.289062 217.96875 C 193.949219 214.847656 193.886719 211.707031 193.777344 208.570312 C 193.683594 205.871094 193.601562 203.175781 193.46875 200.476562 C 193.433594 199.714844 193.25 198.960938 193.125 198.203125 C 192.648438 195.296875 192.359375 192.378906 192.371094 189.425781 C 192.382812 186.550781 192.316406 183.675781 192.28125 180.800781 C 192.261719 178.957031 192.203125 177.117188 192.222656 175.269531 C 192.234375 174.113281 192.304688 172.945312 192.4375 171.792969 C 192.582031 170.515625 192.511719 169.246094 192.417969 167.980469 C 192.238281 165.613281 192.210938 163.25 192.300781 160.875 C 192.339844 159.9375 192.195312 158.996094 192.179688 158.054688 C 192.144531 156.1875 192.09375 154.324219 192.140625 152.460938 C 192.191406 150.484375 192.171875 148.515625 192.003906 146.542969 C 191.917969 145.542969 191.871094 144.535156 192.121094 143.535156 C 192.214844 143.160156 192.144531 142.746094 192.179688 142.351562 C 192.300781 140.824219 192.4375 139.292969 192.5625 137.765625 C 192.597656 137.351562 192.605469 136.933594 192.628906 136.519531 " fill-opacity="1" fill-rule="nonzero"/><path fill="#a0bb5e" d="M 180.671875 147.65625 C 180.914062 147.585938 181.152344 147.503906 181.398438 147.453125 C 181.589844 147.410156 181.796875 147.433594 181.988281 147.386719 C 182.65625 147.210938 182.949219 147.367188 183.121094 148.109375 C 183.453125 149.542969 183.796875 150.976562 183.988281 152.429688 C 184.507812 156.414062 184.953125 160.402344 185.421875 164.390625 C 185.496094 165.023438 185.507812 165.664062 185.585938 166.292969 C 185.625 166.5625 185.765625 166.820312 185.863281 167.078125 C 185.882812 167.140625 185.949219 167.195312 185.945312 167.253906 C 185.871094 168.554688 186.339844 169.792969 186.410156 171.082031 C 186.523438 173.269531 186.667969 175.460938 186.796875 177.652344 C 186.945312 180.214844 187.074219 182.777344 187.246094 185.339844 C 187.492188 189.0625 187.875 192.773438 188.003906 196.507812 C 188.082031 198.761719 188.367188 201.011719 188.660156 203.25 C 188.933594 205.339844 189.238281 207.421875 189.367188 209.527344 C 189.539062 212.421875 189.816406 215.308594 189.914062 218.203125 C 190.015625 221.273438 189.96875 224.347656 189.976562 227.417969 C 189.980469 228.164062 189.824219 228.335938 189.066406 228.410156 C 188.71875 228.441406 188.359375 228.453125 188.011719 228.417969 C 187.203125 228.34375 186.886719 228.023438 186.800781 227.214844 C 186.757812 226.800781 186.75 226.382812 186.746094 225.964844 C 186.710938 221.160156 186.726562 216.351562 186.636719 211.546875 C 186.550781 207.023438 186.296875 202.507812 185.914062 198.003906 C 185.78125 196.429688 185.707031 194.851562 185.585938 193.277344 C 185.523438 192.46875 185.363281 191.660156 185.351562 190.855469 C 185.304688 187.6875 184.949219 184.550781 184.632812 181.402344 C 184.46875 179.746094 184.445312 178.070312 184.304688 176.410156 C 184.191406 175.035156 184 173.664062 183.847656 172.292969 C 183.59375 170.003906 183.296875 167.714844 183.105469 165.421875 C 182.769531 161.417969 182.414062 157.417969 181.828125 153.441406 C 181.613281 151.988281 181.445312 150.527344 181.246094 149.070312 C 181.179688 148.601562 181.097656 148.125 180.636719 147.820312 C 180.648438 147.765625 180.660156 147.710938 180.671875 147.65625 " fill-opacity="1" fill-rule="nonzero"/><path fill="#6f9d43" d="M 202.8125 228.988281 C 202.925781 227.34375 203.117188 225.707031 203.125 224.0625 C 203.144531 220.941406 203.394531 217.835938 203.605469 214.726562 C 203.78125 212.140625 204.195312 209.585938 204.554688 207.023438 C 204.835938 205.027344 204.984375 203.007812 205.21875 201.003906 C 205.414062 199.328125 205.710938 197.660156 205.855469 195.980469 C 206.054688 193.695312 206.6875 191.496094 207.058594 189.242188 C 207.800781 184.734375 208.878906 180.296875 210.089844 175.898438 C 210.558594 174.191406 211.308594 172.566406 211.941406 170.902344 C 212.160156 170.332031 212.429688 169.777344 212.628906 169.195312 C 213.007812 168.113281 213.460938 167.070312 214.0625 166.09375 C 215.21875 164.222656 216.421875 162.386719 217.933594 160.777344 C 218.398438 160.289062 218.945312 159.867188 219.46875 159.4375 C 219.722656 159.230469 220.007812 159.269531 220.253906 159.480469 C 220.503906 159.691406 220.558594 160.023438 220.347656 160.3125 C 220.167969 160.554688 219.957031 160.796875 219.707031 160.96875 C 218.761719 161.625 218.082031 162.472656 217.621094 163.535156 C 217.203125 164.5 216.683594 165.421875 216.222656 166.367188 C 216.085938 166.640625 215.949219 166.925781 215.875 167.21875 C 215.65625 168.078125 215.265625 168.859375 214.867188 169.644531 C 213.316406 172.695312 212.175781 175.894531 211.390625 179.214844 C 211.074219 180.535156 210.945312 181.894531 210.695312 183.230469 C 210.414062 184.738281 210.066406 186.234375 209.792969 187.746094 C 209.464844 189.558594 209.160156 191.375 208.882812 193.195312 C 208.652344 194.734375 208.453125 196.28125 208.269531 197.828125 C 207.8125 201.707031 207.273438 205.570312 207.078125 209.480469 C 206.929688 212.480469 206.65625 215.472656 206.128906 218.441406 C 205.953125 219.429688 205.921875 220.449219 205.839844 221.453125 C 205.644531 223.800781 205.714844 226.148438 205.796875 228.492188 C 205.804688 228.691406 205.835938 228.890625 205.8125 229.085938 C 205.789062 229.25 205.75 229.46875 205.636719 229.5625 C 205.269531 229.859375 204.863281 230.117188 204.464844 230.375 C 204.378906 230.429688 204.25 230.433594 204.140625 230.429688 C 203.386719 230.417969 202.75 229.738281 202.8125 228.988281 " fill-opacity="1" fill-rule="nonzero"/><path fill="#3b4c3a" d="M 185.351562 228.207031 C 185.347656 228.859375 185.160156 229.042969 184.558594 229.074219 C 184.433594 229.082031 184.304688 229.109375 184.195312 229.164062 C 183.550781 229.472656 183.148438 229.25 183.078125 228.523438 C 183.027344 227.980469 183.003906 227.429688 182.964844 226.882812 C 182.699219 223.382812 182.488281 219.878906 182.144531 216.386719 C 181.871094 213.589844 181.472656 210.808594 181.050781 208.03125 C 180.855469 206.734375 180.488281 205.460938 180.167969 204.1875 C 179.757812 202.566406 179.53125 200.917969 179.320312 199.261719 C 179.121094 197.703125 178.722656 196.164062 178.410156 194.617188 C 178.074219 192.972656 177.472656 191.414062 176.785156 189.898438 C 176.484375 189.226562 176.046875 188.601562 175.585938 188.019531 C 175.058594 187.347656 174.421875 186.765625 173.859375 186.117188 C 173.621094 185.839844 173.429688 185.507812 173.269531 185.175781 C 173.117188 184.855469 173.214844 184.582031 173.464844 184.425781 C 173.710938 184.273438 173.976562 184.332031 174.238281 184.5625 C 174.46875 184.757812 174.714844 184.9375 174.960938 185.113281 C 176.515625 186.21875 177.941406 187.429688 178.601562 189.320312 C 178.847656 190.019531 179.207031 190.679688 179.515625 191.359375 C 179.644531 191.636719 179.8125 191.902344 179.914062 192.1875 C 180.621094 194.242188 181.328125 196.285156 181.632812 198.457031 C 182.171875 202.28125 182.832031 206.085938 183.40625 209.90625 C 183.574219 211.03125 183.644531 212.171875 183.726562 213.308594 C 183.867188 215.148438 183.957031 216.988281 184.121094 218.824219 C 184.234375 220.046875 184.453125 221.257812 184.609375 222.476562 C 184.757812 223.652344 184.882812 224.832031 185.035156 226.007812 C 185.105469 226.570312 185.207031 227.132812 185.292969 227.691406 C 185.320312 227.890625 185.335938 228.085938 185.351562 228.207031 " fill-opacity="1" fill-rule="nonzero"/><path fill="#3b4c3a" d="M 175.257812 162.570312 C 175.164062 161.921875 175.089844 161.273438 174.96875 160.632812 C 174.609375 158.78125 173.546875 157.246094 172.667969 155.632812 C 172.261719 154.882812 171.089844 154.820312 170.519531 155.457031 C 170.421875 155.566406 170.320312 155.714844 170.308594 155.851562 C 170.230469 156.660156 170.183594 157.460938 170.421875 158.265625 C 170.753906 159.398438 171.09375 160.542969 171.292969 161.703125 C 171.511719 162.984375 171.472656 164.28125 170.972656 165.519531 C 170.707031 166.179688 170.625 166.878906 170.628906 167.582031 C 170.628906 168.113281 170.992188 168.457031 171.519531 168.363281 C 171.785156 168.316406 172.046875 168.164062 172.285156 168.011719 C 173.046875 167.527344 173.527344 166.78125 174.035156 166.066406 C 174.769531 165.023438 175.335938 163.917969 175.257812 162.570312 Z M 163.066406 153.25 C 162.816406 152.5 162.496094 151.96875 162.011719 151.535156 C 161.308594 150.902344 160.484375 150.488281 159.582031 150.25 C 157.171875 149.617188 154.867188 149.828125 152.75 151.234375 C 152.203125 151.601562 151.675781 151.996094 151.136719 152.375 C 151.046875 152.441406 150.964844 152.542969 150.871094 152.558594 C 150.75 152.582031 150.582031 152.574219 150.503906 152.507812 C 150.425781 152.4375 150.398438 152.265625 150.417969 152.152344 C 150.445312 152.007812 150.523438 151.859375 150.613281 151.742188 C 151.03125 151.207031 151.421875 150.636719 151.898438 150.160156 C 153.203125 148.851562 154.171875 147.316406 155.070312 145.726562 C 155.621094 144.75 156.207031 143.796875 156.789062 142.84375 C 157.714844 141.324219 159.164062 140.6875 160.855469 140.472656 C 161.683594 140.367188 162.472656 140.542969 163.226562 140.898438 C 164.578125 141.539062 165.730469 142.445312 166.738281 143.539062 C 167.75 144.636719 168.761719 145.734375 169.492188 147.222656 C 169.554688 146.964844 169.609375 146.855469 169.601562 146.746094 C 169.542969 145.894531 169.570312 145.019531 169.390625 144.195312 C 168.980469 142.324219 167.6875 141.171875 165.980469 140.453125 C 165.035156 140.050781 164.039062 139.894531 163.007812 140.125 C 162.863281 140.160156 162.699219 140.171875 162.554688 140.144531 C 162.304688 140.097656 162.207031 139.894531 162.296875 139.648438 C 162.320312 139.585938 162.355469 139.527344 162.390625 139.472656 C 163.503906 137.832031 164.65625 136.230469 166.347656 135.105469 C 167.363281 134.429688 168.433594 133.886719 169.621094 133.585938 C 171.371094 133.136719 173.0625 132.554688 174.6875 131.730469 C 176.5 130.808594 178.277344 131.035156 179.851562 132.359375 C 181.382812 133.644531 182.441406 135.226562 182.75 137.234375 C 182.960938 138.613281 182.75 139.953125 182.269531 141.242188 C 182.042969 141.859375 181.996094 142.476562 182.007812 143.117188 C 182.015625 143.574219 182.1875 143.941406 182.566406 144.171875 C 182.980469 144.417969 183.402344 144.6875 183.859375 144.808594 C 184.960938 145.109375 186.078125 145.351562 187.199219 145.578125 C 188.300781 145.800781 189.398438 146.046875 190.414062 146.539062 C 192.402344 147.503906 193.679688 149.113281 194.371094 151.167969 C 194.75 152.304688 194.585938 153.472656 194.167969 154.589844 C 194.050781 154.898438 193.914062 155.199219 193.742188 155.480469 C 192.90625 156.875 192.464844 158.402344 192.078125 159.964844 C 191.335938 162.980469 189.570312 165.265625 186.8125 166.707031 C 185.484375 167.402344 184.207031 168.15625 183.011719 169.066406 C 182.382812 169.542969 181.703125 169.957031 181.015625 170.347656 C 179.648438 171.125 178.152344 171.1875 176.652344 170.96875 C 174.792969 170.695312 172.976562 170.753906 171.152344 171.210938 C 170.394531 171.402344 169.585938 171.417969 168.796875 171.476562 C 168.183594 171.523438 167.566406 171.511719 166.953125 171.53125 C 165.722656 171.574219 164.558594 171.855469 163.460938 172.417969 C 163.304688 172.5 163.148438 172.582031 162.980469 172.632812 C 162.640625 172.734375 162.398438 172.566406 162.414062 172.21875 C 162.421875 171.957031 162.496094 171.699219 162.554688 171.441406 C 163.078125 169.167969 163.191406 167.460938 162.941406 165.496094 C 162.851562 165.601562 162.773438 165.660156 162.746094 165.738281 C 162.347656 166.878906 161.953125 168.019531 161.574219 169.164062 C 161.441406 169.558594 161.34375 169.964844 161.25 170.371094 C 161.144531 170.808594 161.164062 171.222656 161.417969 171.636719 C 161.644531 172.011719 161.507812 172.253906 161.074219 172.328125 C 160.792969 172.375 160.503906 172.425781 160.222656 172.40625 C 158.820312 172.3125 157.414062 172.257812 156.074219 171.71875 C 155.199219 171.367188 154.292969 171.085938 153.390625 170.8125 C 150.773438 170.011719 147.445312 171.988281 146.882812 174.40625 C 146.835938 174.59375 146.777344 174.792969 146.675781 174.957031 C 146.527344 175.199219 146.21875 175.164062 146.105469 174.898438 C 146.0625 174.800781 146.050781 174.6875 146.039062 174.578125 C 145.769531 172.359375 146.019531 170.25 147.335938 168.347656 C 147.984375 167.410156 148.574219 166.429688 149.203125 165.476562 C 150.285156 163.835938 150.824219 162.046875 150.839844 160.074219 C 150.851562 158.847656 150.949219 157.621094 151.078125 156.402344 C 151.300781 154.296875 152.585938 153.054688 154.539062 152.449219 C 156.082031 151.96875 157.664062 152.050781 159.253906 152.226562 C 160.535156 152.371094 161.742188 152.761719 163.066406 153.25 " fill-opacity="1" fill-rule="nonzero"/><path fill="#3b4c3a" d="M 227.871094 151.648438 C 227.296875 151.628906 227.078125 151.71875 226.980469 152.117188 C 226.800781 152.855469 226.675781 153.613281 226.550781 154.363281 C 226.507812 154.613281 226.574219 154.871094 226.875 154.925781 C 227.15625 154.980469 227.34375 154.796875 227.414062 154.550781 C 227.523438 154.199219 227.773438 154.019531 228.082031 153.871094 C 228.570312 153.632812 228.933594 153.25 229.214844 152.796875 C 229.480469 152.363281 229.367188 152.039062 228.890625 151.890625 C 228.515625 151.773438 228.125 151.707031 227.871094 151.648438 Z M 237.921875 160.96875 C 237.921875 160.980469 237.925781 160.996094 237.925781 161.003906 C 238.039062 161.011719 238.148438 161.023438 238.257812 161.03125 C 238.847656 161.046875 239.023438 160.796875 238.746094 160.269531 C 238.605469 160.003906 238.402344 159.757812 238.183594 159.546875 C 237.570312 158.964844 236.789062 158.824219 235.984375 158.800781 C 235.304688 158.78125 234.761719 158.550781 234.296875 158.042969 C 234.039062 157.757812 233.714844 157.5 233.375 157.3125 C 232.871094 157.042969 232.273438 157.429688 232.355469 157.988281 C 232.429688 158.5 232.546875 159.050781 232.8125 159.484375 C 233.726562 160.96875 235.234375 161.347656 236.886719 161.132812 C 237.230469 161.089844 237.574219 161.023438 237.921875 160.96875 Z M 225.28125 160.050781 C 225.253906 161.140625 225.445312 162.035156 225.886719 162.886719 C 226.683594 164.433594 228.054688 165.261719 229.613281 165.855469 C 229.796875 165.925781 229.992188 165.96875 230.175781 166.039062 C 230.394531 166.121094 230.609375 166.257812 230.558594 166.503906 C 230.527344 166.667969 230.371094 166.863281 230.21875 166.9375 C 228.898438 167.554688 227.539062 167.949219 226.070312 167.492188 C 225.570312 167.335938 225.0625 167.183594 224.574219 166.988281 C 223.144531 166.425781 221.691406 166.117188 220.128906 166.199219 C 218.207031 166.300781 216.664062 165.527344 215.613281 163.871094 C 215.175781 163.1875 215.164062 162.84375 215.6875 162.210938 C 216.109375 161.707031 216.574219 161.238281 217.035156 160.761719 C 217.183594 160.609375 217.367188 160.488281 217.539062 160.355469 C 217.503906 160.308594 217.472656 160.261719 217.441406 160.21875 C 217.238281 160.265625 217.039062 160.335938 216.835938 160.363281 C 216.140625 160.445312 215.441406 160.59375 214.746094 160.574219 C 213.59375 160.542969 213.101562 159.710938 213.574219 158.660156 C 213.75 158.269531 214.011719 157.890625 214.316406 157.585938 C 214.730469 157.164062 215.203125 156.796875 215.679688 156.445312 C 217.023438 155.457031 218.398438 154.503906 219.734375 153.5 C 220.835938 152.671875 222.039062 152.054688 223.332031 151.59375 C 223.453125 151.550781 223.589844 151.496094 223.710938 151.503906 C 223.828125 151.515625 223.984375 151.582031 224.03125 151.671875 C 224.078125 151.761719 224.039062 151.921875 223.988281 152.027344 C 223.945312 152.121094 223.832031 152.179688 223.746094 152.25 C 223.128906 152.777344 222.867188 153.480469 222.773438 154.292969 C 222.867188 154.199219 222.957031 154.101562 223.042969 154.003906 C 223.5 153.503906 223.941406 152.980469 224.421875 152.5 C 225.46875 151.453125 226.761719 151.128906 228.191406 151.40625 C 229.3125 151.621094 230.429688 151.882812 231.527344 152.191406 C 232.789062 152.546875 234.054688 152.757812 235.371094 152.738281 C 236.136719 152.730469 236.910156 152.78125 237.675781 152.835938 C 238.519531 152.894531 239.332031 153.105469 240.085938 153.480469 C 241.242188 154.0625 242.445312 154.585938 243.53125 155.285156 C 246.160156 156.96875 248.882812 156.960938 251.679688 155.882812 C 253.09375 155.335938 254.46875 154.683594 255.851562 154.058594 C 257.015625 153.53125 258.195312 153.050781 259.445312 152.761719 C 260.050781 152.617188 260.65625 152.542969 261.277344 152.640625 C 261.492188 152.671875 261.738281 152.703125 261.78125 152.976562 C 261.824219 153.246094 261.605469 153.355469 261.40625 153.453125 C 260.59375 153.847656 259.792969 154.265625 258.96875 154.625 C 257.496094 155.261719 256.433594 156.34375 255.558594 157.640625 C 255.207031 158.167969 254.921875 158.742188 254.585938 159.28125 C 253.929688 160.347656 253.277344 161.417969 252.585938 162.460938 C 251.574219 163.992188 250.082031 164.488281 248.335938 164.207031 C 246.972656 163.988281 245.613281 163.6875 244.273438 163.339844 C 241.636719 162.660156 239.222656 163.273438 236.890625 164.476562 C 236.148438 164.863281 235.429688 165.285156 234.691406 165.683594 C 234.003906 166.054688 233.277344 166.273438 232.484375 166.269531 C 231.84375 166.261719 231.25 166.117188 230.773438 165.683594 C 230.058594 165.035156 229.347656 164.378906 228.679688 163.683594 C 227.691406 162.648438 226.75 161.574219 225.78125 160.523438 C 225.65625 160.386719 225.511719 160.265625 225.28125 160.050781 " fill-opacity="1" fill-rule="nonzero"/><path fill="#5c8a30" d="M 180.46875 167.710938 C 180.496094 166.964844 180.558594 166.214844 180.550781 165.46875 C 180.546875 164.703125 180.5 163.933594 180.425781 163.167969 C 180.351562 162.40625 180.238281 161.644531 180.101562 160.890625 C 179.964844 160.136719 179.796875 159.382812 179.605469 158.640625 C 179.421875 157.917969 179.210938 157.203125 178.980469 156.492188 C 178.746094 155.761719 178.492188 155.039062 178.21875 154.320312 C 177.945312 153.601562 177.664062 152.886719 177.34375 152.1875 C 177.027344 151.488281 176.679688 150.800781 176.300781 150.132812 C 175.921875 149.46875 175.488281 148.839844 175.042969 148.136719 C 171.875 149.886719 168.851562 151.789062 165.882812 153.804688 C 168.09375 158.660156 167.980469 163.636719 166.902344 168.667969 C 166.65625 169.800781 166.570312 169.894531 166.097656 170.347656 C 166.617188 168.492188 166.855469 166.722656 166.953125 164.9375 C 167.050781 163.132812 166.914062 161.335938 166.667969 159.550781 C 166.425781 157.761719 165.941406 156.042969 165.085938 154.355469 C 158.492188 158.691406 152.992188 164.078125 148.332031 170.394531 C 148.113281 170.089844 148.339844 169.957031 148.441406 169.828125 C 149.84375 168.023438 151.242188 166.21875 152.667969 164.433594 C 153.160156 163.816406 153.710938 163.242188 154.230469 162.648438 C 154.339844 162.523438 154.433594 162.382812 154.609375 162.15625 C 153.269531 162.25 152.078125 162.480469 150.890625 162.769531 C 151.152344 162.382812 151.558594 162.210938 151.960938 162.105469 C 152.855469 161.871094 153.753906 161.664062 154.664062 161.511719 C 155.160156 161.429688 155.554688 161.277344 155.917969 160.90625 C 159.070312 157.683594 162.625 154.957031 166.359375 152.453125 C 166.726562 152.210938 167.085938 151.960938 167.535156 151.65625 C 165.84375 150.285156 164.128906 149.046875 162.203125 148.132812 C 160.269531 147.214844 158.3125 146.378906 156.113281 146.148438 C 156.234375 146.097656 156.355469 146.007812 156.476562 146.007812 C 157.046875 146.007812 157.632812 145.957031 158.183594 146.0625 C 161.726562 146.769531 164.894531 148.269531 167.625 150.648438 C 167.824219 150.820312 168.023438 150.988281 168.21875 151.152344 C 170.46875 149.785156 172.679688 148.441406 174.945312 147.066406 C 172.429688 143.359375 169.859375 139.714844 165.796875 137.457031 C 165.816406 137.417969 165.839844 137.378906 165.863281 137.339844 C 166.035156 137.394531 166.226562 137.417969 166.378906 137.503906 C 167.214844 137.984375 168.082031 138.425781 168.867188 138.984375 C 171.542969 140.890625 173.5625 143.398438 175.332031 146.128906 C 175.449219 146.308594 175.570312 146.488281 175.730469 146.726562 C 176.296875 146.457031 176.84375 146.199219 177.441406 145.917969 C 175.035156 142.21875 173.6875 138.242188 173.710938 133.855469 C 173.710938 133.703125 173.796875 133.554688 173.917969 133.402344 C 174.128906 135.582031 174.664062 137.675781 175.261719 139.757812 C 175.871094 141.871094 177.070312 143.683594 178.160156 145.589844 C 178.867188 145.304688 179.492188 145.046875 180.125 144.796875 C 180.574219 144.621094 181.046875 144.492188 181.480469 144.285156 C 182.117188 143.984375 182.652344 144.035156 183.125 144.632812 C 181.65625 145.210938 180.195312 145.789062 178.644531 146.398438 C 178.796875 146.839844 178.894531 147.238281 179.0625 147.609375 C 180.269531 150.308594 181.8125 152.808594 183.609375 155.152344 C 184.789062 156.6875 185.953125 158.234375 187.402344 159.535156 C 187.972656 160.046875 188.605469 160.484375 189.214844 160.957031 C 189.335938 161.050781 189.484375 161.121094 189.574219 161.234375 C 189.640625 161.316406 189.621094 161.457031 189.640625 161.574219 C 189.539062 161.585938 189.414062 161.644531 189.339844 161.605469 C 188.960938 161.390625 188.574219 161.171875 188.21875 160.917969 C 186.527344 159.710938 185.054688 158.265625 183.703125 156.691406 C 181.632812 154.277344 179.882812 151.652344 178.511719 148.78125 C 178.21875 148.171875 177.988281 147.53125 177.699219 146.839844 C 177.1875 147.078125 176.679688 147.316406 176.203125 147.539062 C 176.128906 148.082031 176.273438 148.484375 176.527344 148.898438 C 178.511719 152.1875 179.75 155.757812 180.433594 159.53125 C 180.800781 161.566406 181.058594 163.609375 180.96875 165.679688 C 180.945312 166.207031 180.886719 166.730469 180.820312 167.25 C 180.796875 167.421875 180.703125 167.585938 180.644531 167.75 C 180.585938 167.738281 180.527344 167.722656 180.46875 167.710938 " fill-opacity="1" fill-rule="nonzero"/><path fill="#5c8a30" d="M 236.992188 162.875 C 236.480469 163.058594 235.960938 163.011719 235.441406 162.90625 C 233.667969 162.546875 232.160156 161.667969 230.800781 160.511719 C 230.234375 160.027344 229.707031 159.496094 229.164062 158.976562 C 228.058594 157.917969 226.851562 157.015625 225.367188 156.546875 C 225.128906 156.472656 224.851562 156.449219 224.605469 156.488281 C 223.691406 156.644531 222.808594 156.910156 222.003906 157.390625 C 221.910156 157.445312 221.828125 157.511719 221.816406 157.519531 C 222.0625 158.738281 222.316406 159.890625 222.523438 161.050781 C 222.816406 162.6875 223.3125 164.242188 224.164062 165.675781 C 224.21875 165.769531 224.265625 165.871094 224.304688 165.972656 C 224.320312 166.003906 224.289062 166.050781 224.257812 166.175781 C 224.011719 165.90625 223.777344 165.6875 223.589844 165.433594 C 222.574219 164.074219 221.867188 162.585938 221.625 160.890625 C 221.484375 159.914062 221.277344 158.949219 221.082031 157.898438 C 220.839844 158.011719 220.617188 158.089844 220.425781 158.21875 C 219.730469 158.679688 219.007812 159.109375 218.367188 159.644531 C 217.78125 160.132812 217.101562 160.292969 216.382812 160.425781 C 217.519531 159.039062 218.996094 158.082031 220.554688 157.113281 C 219.960938 156.207031 219.730469 155.246094 220.195312 154.066406 C 220.328125 154.644531 220.386719 155.109375 220.546875 155.535156 C 220.703125 155.960938 220.964844 156.351562 221.1875 156.773438 C 221.660156 156.550781 222.109375 156.367188 222.53125 156.132812 C 222.707031 156.035156 222.855469 155.847656 222.960938 155.664062 C 223.542969 154.664062 224.328125 153.839844 225.179688 153.070312 C 225.347656 152.917969 225.546875 152.804688 225.789062 152.734375 C 224.96875 153.6875 224.109375 154.589844 223.46875 155.773438 C 226.976562 155.183594 230.390625 154.511719 233.875 155.082031 C 234.480469 154.371094 235.175781 153.839844 235.949219 153.410156 C 236.136719 153.308594 236.359375 153.257812 236.570312 153.207031 C 236.660156 153.1875 236.769531 153.226562 236.980469 153.25 C 236.1875 153.851562 235.460938 154.363281 234.796875 155.113281 C 235.113281 155.152344 235.324219 155.179688 235.535156 155.203125 C 236.691406 155.324219 237.851562 155.449219 239.011719 155.554688 C 239.21875 155.574219 239.457031 155.535156 239.632812 155.441406 C 240.578125 154.925781 241.566406 154.917969 242.582031 155.152344 C 242.621094 155.164062 242.660156 155.1875 242.691406 155.210938 C 242.707031 155.222656 242.707031 155.253906 242.722656 155.300781 C 241.953125 155.285156 241.230469 155.464844 240.53125 155.78125 C 242.230469 156.199219 243.925781 156.5625 245.664062 156.601562 C 246.699219 156.625 247.734375 156.601562 248.765625 156.570312 C 249.902344 156.53125 250.980469 156.207031 252.011719 155.753906 C 253.445312 155.128906 254.871094 154.496094 256.300781 153.867188 C 256.574219 153.746094 256.855469 153.632812 257.144531 153.550781 C 253.878906 155.449219 250.578125 157.253906 246.660156 157.535156 C 247.605469 158.175781 248.65625 158.597656 249.632812 159.148438 C 250.628906 159.710938 251.753906 159.851562 252.835938 160.164062 C 252.398438 160.296875 251.972656 160.242188 251.558594 160.160156 C 249.589844 159.761719 247.679688 159.175781 245.945312 158.125 C 245.90625 158.105469 245.859375 158.089844 245.828125 158.0625 C 245.238281 157.421875 244.429688 157.433594 243.652344 157.304688 C 242.113281 157.050781 240.582031 156.734375 239.042969 156.472656 C 238.222656 156.332031 237.390625 156.253906 236.417969 156.128906 C 236.589844 156.351562 236.65625 156.480469 236.753906 156.5625 C 237.609375 157.253906 238.457031 157.953125 239.328125 158.625 C 240.9375 159.859375 242.816406 160.46875 244.773438 160.867188 C 246.195312 161.152344 247.613281 161.492188 249.082031 161.410156 C 249.203125 161.402344 249.324219 161.464844 249.546875 161.515625 C 249.390625 161.644531 249.3125 161.761719 249.21875 161.78125 C 248.65625 161.867188 248.082031 162.019531 247.523438 161.984375 C 245.761719 161.871094 244.035156 161.554688 242.34375 161.035156 C 240.203125 160.378906 238.488281 159.046875 236.832031 157.625 C 236.347656 157.207031 235.894531 156.753906 235.398438 156.359375 C 235.1875 156.191406 234.902344 156.050781 234.640625 156.027344 C 232.820312 155.855469 231 155.65625 229.171875 155.855469 C 228.40625 155.9375 227.644531 156.039062 226.804688 156.140625 C 226.902344 156.242188 226.9375 156.316406 227 156.347656 C 228.210938 156.925781 229.171875 157.824219 230.140625 158.726562 C 230.90625 159.445312 231.691406 160.160156 232.535156 160.785156 C 233.679688 161.632812 235 162.121094 236.386719 162.445312 C 236.625 162.5 236.84375 162.621094 237.070312 162.710938 C 237.042969 162.765625 237.019531 162.820312 236.992188 162.875 " fill-opacity="1" fill-rule="nonzero"/><path fill="#41763e" d="M 217.707031 179.265625 C 217.707031 179.300781 217.707031 179.339844 217.707031 179.375 C 217.222656 179.375 216.738281 179.359375 216.257812 179.386719 C 216.109375 179.398438 215.972656 179.539062 215.835938 179.617188 C 215.921875 179.753906 215.984375 179.929688 216.105469 180.019531 C 216.351562 180.199219 216.648438 180.3125 216.894531 180.488281 C 217.480469 180.914062 218.039062 181.371094 218.625 181.792969 C 218.941406 182.019531 219.167969 182.285156 219.28125 182.664062 C 219.367188 182.957031 219.519531 183.226562 219.632812 183.511719 C 219.84375 184.027344 220.277344 184.269531 220.765625 184.441406 C 221.21875 184.601562 221.609375 184.449219 221.800781 184.007812 C 221.890625 183.796875 221.949219 183.535156 221.917969 183.308594 C 221.796875 182.441406 221.664062 181.578125 221.484375 180.722656 C 221.316406 179.910156 220.730469 179.496094 219.941406 179.410156 C 219.199219 179.328125 218.453125 179.308594 217.707031 179.265625 Z M 203.453125 191.492188 C 203.460938 191.6875 203.460938 191.886719 203.484375 192.082031 C 203.535156 192.574219 203.742188 192.972656 204.246094 193.132812 C 204.683594 193.273438 205.160156 193.070312 205.460938 192.558594 C 206.675781 190.46875 207.394531 188.253906 207.113281 185.796875 C 207.074219 185.453125 207.078125 185.09375 207.136719 184.753906 C 207.308594 183.785156 207.511719 182.820312 207.71875 181.859375 C 207.984375 180.613281 208.628906 179.59375 209.605469 178.773438 C 209.738281 178.664062 209.882812 178.554688 209.984375 178.417969 C 210.234375 178.085938 210.355469 177.703125 210.214844 177.304688 C 210.070312 176.890625 209.675781 176.84375 209.292969 176.800781 C 208.925781 176.761719 208.585938 176.8125 208.308594 177.066406 C 207.847656 177.5 207.351562 177.90625 206.953125 178.394531 C 206.382812 179.085938 205.921875 179.867188 205.363281 180.566406 C 204.894531 181.140625 204.589844 181.785156 204.324219 182.457031 C 204.25 182.652344 204.238281 182.890625 204.261719 183.097656 C 204.332031 183.6875 204.457031 184.265625 204.519531 184.855469 C 204.671875 186.296875 204.765625 187.730469 204.015625 189.082031 C 203.601562 189.820312 203.476562 190.648438 203.453125 191.492188 Z M 203.558594 172.460938 C 203.273438 172.5 203.0625 172.5 202.871094 172.558594 C 201.527344 172.972656 200.179688 173.375 198.847656 173.820312 C 198.207031 174.035156 197.574219 174.296875 196.972656 174.609375 C 196.210938 175 195.488281 175.460938 194.753906 175.90625 C 194.457031 176.089844 194.164062 176.292969 193.898438 176.519531 C 192.144531 177.996094 190.957031 179.867188 190.132812 181.988281 C 189.890625 182.605469 189.875 183.230469 190.109375 183.851562 C 190.445312 184.738281 191.324219 185.171875 192.238281 184.90625 C 192.734375 184.765625 193.136719 184.492188 193.515625 184.132812 C 194.375 183.320312 194.832031 182.261719 195.289062 181.234375 C 196.003906 179.617188 196.867188 178.105469 197.925781 176.695312 C 198.710938 175.648438 199.605469 174.726562 200.847656 174.207031 C 201.515625 173.925781 202.175781 173.628906 202.835938 173.328125 C 203.15625 173.1875 203.476562 173.035156 203.558594 172.460938 Z M 201.3125 168.617188 C 201.265625 168.449219 201.246094 168.347656 201.214844 168.253906 C 200.84375 167.117188 201.074219 166.085938 201.757812 165.136719 C 203.945312 162.101562 208.007812 161.242188 211.191406 162.808594 C 213.46875 163.929688 215.214844 165.628906 216.597656 167.710938 C 217.800781 169.53125 218.695312 171.519531 219.507812 173.535156 C 220.042969 174.867188 220.6875 176.128906 221.398438 177.367188 C 222.140625 178.664062 222.824219 179.992188 223.535156 181.304688 C 224.960938 183.929688 224.78125 186.527344 223.402344 189.105469 C 223.15625 189.570312 222.875 190.015625 222.621094 190.480469 C 222.414062 190.851562 222.285156 191.242188 222.375 191.679688 C 222.765625 193.535156 222.421875 195.300781 221.695312 197.011719 C 221.464844 197.558594 221.21875 198.097656 220.976562 198.640625 C 220.867188 198.875 220.699219 199.058594 220.414062 198.996094 C 220.125 198.929688 220.054688 198.703125 220.066406 198.4375 C 220.070312 198.371094 220.066406 198.304688 220.074219 198.238281 C 220.210938 196.84375 219.546875 195.847656 218.5 195.023438 C 217.523438 194.257812 216.460938 193.914062 215.191406 194.023438 C 213.234375 194.183594 211.367188 194.585938 209.59375 195.4375 C 209.097656 195.671875 208.582031 195.863281 208.082031 196.101562 C 206.640625 196.785156 205.117188 197.035156 203.53125 197.015625 C 202.914062 197.011719 202.339844 196.890625 201.871094 196.484375 C 201.34375 196.019531 200.753906 195.589844 200.363281 195.027344 C 199.328125 193.550781 197.894531 192.691406 196.253906 192.082031 C 194.851562 191.5625 193.453125 191.027344 192.066406 190.476562 C 190.648438 189.90625 189.316406 189.1875 188.152344 188.183594 C 186.003906 186.339844 184.929688 184.011719 185.019531 181.167969 C 185.078125 179.144531 185.554688 177.207031 186.3125 175.351562 C 187.144531 173.304688 188.523438 171.660156 190.363281 170.433594 C 192.121094 169.257812 194.046875 168.46875 196.160156 168.195312 C 197.59375 168.007812 199.011719 168.203125 200.429688 168.453125 C 200.703125 168.5 200.976562 168.554688 201.3125 168.617188 " fill-opacity="1" fill-rule="nonzero"/><g clip-path="url(#902ad584a2)"><path fill="#41763e" d="M 232.730469 130.851562 C 232.679688 130.714844 232.664062 130.519531 232.554688 130.410156 C 232.054688 129.882812 231.5 129.410156 230.789062 129.179688 C 230.132812 128.960938 229.5 129.046875 229 129.515625 C 228.476562 130.003906 228.328125 130.6875 228.324219 131.375 C 228.320312 131.75 228.539062 131.878906 228.90625 131.773438 C 230.136719 131.429688 231.363281 131.097656 232.628906 130.933594 C 232.648438 130.929688 232.664062 130.90625 232.730469 130.851562 Z M 249.730469 130.933594 C 248.347656 130.964844 247.453125 131.855469 247.464844 133.214844 C 247.464844 133.753906 247.75 133.96875 248.269531 133.804688 C 248.457031 133.746094 248.632812 133.65625 248.808594 133.5625 C 249.136719 133.390625 249.445312 133.175781 249.785156 133.03125 C 250.550781 132.707031 251.328125 132.414062 252.097656 132.105469 C 252.304688 132.023438 252.53125 131.945312 252.480469 131.660156 C 252.425781 131.386719 252.195312 131.335938 251.96875 131.355469 C 251.492188 131.402344 251.0625 131.265625 250.625 131.113281 C 250.339844 131.015625 250.03125 130.992188 249.730469 130.933594 Z M 237.144531 128.316406 C 237.28125 128.316406 237.371094 128.335938 237.449219 128.3125 C 238.703125 127.984375 239.980469 127.699219 241.117188 127.050781 C 242.15625 126.457031 243.285156 126.097656 244.394531 125.683594 C 245.359375 125.320312 246.316406 124.945312 247.269531 124.554688 C 247.511719 124.457031 247.742188 124.304688 247.929688 124.125 C 248.257812 123.8125 248.164062 123.488281 247.730469 123.335938 C 247.464844 123.238281 247.191406 123.152344 246.949219 123.015625 C 246.625 122.832031 246.332031 122.597656 246.015625 122.398438 C 244.609375 121.507812 243.773438 121.574219 242.515625 122.667969 C 242.429688 122.738281 242.351562 122.8125 242.277344 122.890625 C 241.328125 123.90625 240.230469 124.75 239.144531 125.609375 C 238.5625 126.070312 238.039062 126.605469 237.519531 127.136719 C 237.234375 127.433594 236.988281 127.785156 237.144531 128.316406 Z M 227.761719 124.070312 C 227.898438 123.878906 228.035156 123.679688 228.171875 123.484375 C 229.121094 122.132812 230.3125 121.042969 231.734375 120.203125 C 233.183594 119.347656 234.742188 118.984375 236.421875 119.261719 C 238.207031 119.550781 240 119.683594 241.8125 119.640625 C 243.941406 119.585938 245.878906 120.269531 247.714844 121.289062 C 248.773438 121.878906 249.851562 122.425781 251.03125 122.734375 C 251.289062 122.800781 251.542969 122.867188 251.800781 122.921875 C 254.542969 123.5 256.894531 124.835938 258.992188 126.632812 C 260.191406 127.664062 261.121094 128.925781 261.785156 130.351562 C 262.339844 131.542969 262.523438 132.820312 262.347656 134.140625 C 262.316406 134.394531 262.261719 134.628906 261.964844 134.675781 C 261.667969 134.722656 261.539062 134.511719 261.421875 134.289062 C 261.257812 133.980469 261.097656 133.660156 260.902344 133.371094 C 259.792969 131.746094 257.976562 131.148438 256.152344 131.898438 C 255.347656 132.226562 254.601562 132.71875 253.867188 133.191406 C 253.3125 133.542969 252.804688 133.972656 252.289062 134.386719 C 250.300781 135.988281 246.292969 136.464844 243.917969 134.988281 C 242.738281 134.25 241.449219 133.75 240.085938 133.433594 C 238.816406 133.136719 237.550781 133.105469 236.292969 133.410156 C 234.390625 133.875 232.5 134.375 230.605469 134.863281 C 229.429688 135.160156 228.25 135.402344 227.03125 135.449219 C 226.089844 135.488281 225.207031 135.304688 224.464844 134.761719 C 223.269531 133.886719 221.953125 133.570312 220.496094 133.605469 C 219.539062 133.625 218.617188 133.378906 217.773438 132.914062 C 216.167969 132.03125 215.53125 130.390625 216.089844 128.648438 C 216.363281 127.792969 216.808594 127.050781 217.511719 126.476562 C 217.613281 126.394531 217.707031 126.304688 217.796875 126.222656 C 217.761719 126.164062 217.75 126.113281 217.722656 126.105469 C 216.542969 125.738281 215.636719 125.023438 214.957031 123.984375 C 214.144531 122.75 213.53125 121.453125 213.5625 119.945312 C 213.601562 118.070312 214.554688 116.6875 216.089844 115.71875 C 217.875 114.589844 219.835938 114.253906 221.917969 114.691406 C 223.574219 115.042969 225.230469 115.390625 226.886719 115.738281 C 228.535156 116.082031 230.082031 116.703125 231.585938 117.441406 C 231.625 117.460938 231.664062 117.484375 231.699219 117.507812 C 231.898438 117.617188 232.136719 117.742188 232.054688 117.992188 C 232.003906 118.140625 231.800781 118.269531 231.636719 118.351562 C 231.164062 118.582031 230.65625 118.746094 230.203125 119 C 228.570312 119.917969 227.863281 121.441406 227.519531 123.179688 C 227.464844 123.457031 227.566406 123.769531 227.597656 124.066406 C 227.652344 124.066406 227.707031 124.070312 227.761719 124.070312 " fill-opacity="1" fill-rule="nonzero"/></g><g clip-path="url(#4eb8223cdf)"><path fill="#41763e" d="M 159.277344 185.316406 C 159.738281 185.117188 160.105469 184.929688 160.492188 184.792969 C 161.007812 184.609375 161.539062 184.476562 162.0625 184.3125 C 162.351562 184.21875 162.65625 184.144531 162.917969 183.992188 C 163.054688 183.914062 163.199219 183.683594 163.183594 183.539062 C 163.082031 182.570312 162.078125 181.902344 161.132812 182.125 C 160.605469 182.25 160.058594 182.332031 159.535156 182.480469 C 159.183594 182.582031 158.824219 182.71875 158.515625 182.917969 C 157.78125 183.390625 157.757812 184.304688 158.460938 184.839844 C 158.734375 185.046875 159.058594 185.191406 159.277344 185.316406 Z M 173.042969 188.46875 C 173 187.769531 172.875 187.101562 172.546875 186.492188 C 172.210938 185.863281 171.628906 185.820312 171.257812 186.398438 C 171.039062 186.746094 170.882812 187.136719 170.753906 187.53125 C 170.542969 188.175781 170.371094 188.832031 170.203125 189.492188 C 170.0625 190.03125 169.816406 190.515625 169.449219 190.933594 C 168.738281 191.742188 168.015625 192.539062 167.308594 193.347656 C 167.121094 193.5625 166.949219 193.796875 166.828125 194.050781 C 166.613281 194.503906 166.6875 194.789062 167.097656 195.078125 C 167.875 195.625 168.914062 195.789062 169.851562 195.058594 C 172 193.375 172.832031 191.066406 173.042969 188.46875 Z M 173.863281 184.949219 C 175.4375 185.054688 176.714844 185.800781 177.878906 186.773438 C 178.484375 187.277344 179.167969 187.605469 179.933594 187.78125 C 180.230469 187.851562 180.527344 187.929688 180.820312 188.027344 C 181.726562 188.316406 182.046875 188.6875 182.089844 189.644531 C 182.152344 190.929688 181.851562 192.128906 181.03125 193.15625 C 180.144531 194.273438 179.0625 195.15625 177.753906 195.75 C 176.269531 196.425781 174.707031 196.722656 173.082031 196.78125 C 171.945312 196.820312 170.804688 196.957031 169.667969 197.0625 C 168.519531 197.167969 167.375 197.148438 166.25 196.933594 C 163.855469 196.472656 161.484375 196.621094 159.097656 197.011719 C 157.800781 197.226562 156.472656 197.316406 155.15625 197.335938 C 153.648438 197.363281 152.261719 196.871094 151 196.042969 C 150.164062 195.492188 149.550781 194.769531 149.222656 193.820312 C 149.09375 193.445312 148.972656 193.070312 148.84375 192.699219 C 148.203125 190.867188 147 189.515625 145.265625 188.664062 C 144.167969 188.125 142.972656 188.105469 141.773438 188.207031 C 141.488281 188.234375 141.203125 188.320312 140.921875 188.300781 C 140.761719 188.289062 140.519531 188.152344 140.480469 188.019531 C 140.4375 187.886719 140.578125 187.679688 140.671875 187.523438 C 140.707031 187.457031 140.816406 187.425781 140.898438 187.394531 C 141.703125 187.046875 142.5 186.664062 143.324219 186.363281 C 144.660156 185.878906 146.007812 185.957031 147.328125 186.441406 C 147.570312 186.527344 147.738281 186.511719 147.933594 186.375 C 149.054688 185.597656 150.320312 185.1875 151.648438 184.910156 C 152.195312 184.796875 152.734375 184.554688 153.226562 184.277344 C 154.269531 183.699219 155.167969 182.921875 156.070312 182.148438 C 157.105469 181.265625 158.160156 180.394531 159.285156 179.632812 C 161.835938 177.914062 164.652344 177.394531 167.714844 177.785156 C 170.292969 178.113281 172.578125 179.085938 174.761719 180.410156 C 175.625 180.933594 176.042969 181.707031 176.195312 182.65625 C 176.324219 183.441406 176.105469 183.84375 175.390625 184.195312 C 175.132812 184.324219 174.867188 184.425781 174.601562 184.535156 C 174.363281 184.632812 174.117188 184.714844 173.875 184.804688 C 173.871094 184.855469 173.867188 184.902344 173.863281 184.949219 " fill-opacity="1" fill-rule="nonzero"/></g><path fill="#41763e" d="M 218.9375 212.09375 C 219.238281 212.511719 219.597656 212.605469 220.007812 212.488281 C 220.503906 212.34375 220.953125 212.445312 221.417969 212.617188 C 221.824219 212.769531 222.246094 212.890625 222.667969 213.003906 C 222.914062 213.070312 223.15625 213.046875 223.324219 212.824219 C 223.507812 212.574219 223.550781 212.300781 223.402344 212.019531 C 223.136719 211.511719 222.695312 211.257812 222.132812 211.214844 C 221.808594 211.191406 221.46875 211.175781 221.148438 211.234375 C 220.386719 211.382812 219.578125 211.441406 218.9375 212.09375 Z M 212.832031 209.453125 C 212.496094 209.59375 212.089844 209.65625 211.839844 209.890625 C 211.121094 210.558594 210.464844 211.292969 209.792969 212.007812 C 209.3125 212.519531 209.089844 213.164062 208.921875 213.824219 C 208.828125 214.179688 208.859375 214.519531 209.027344 214.84375 C 209.238281 215.246094 209.414062 215.339844 209.878906 215.289062 C 210.5 215.230469 210.875 214.855469 211.074219 214.304688 C 211.277344 213.726562 211.417969 213.128906 211.625 212.550781 C 211.929688 211.710938 212.21875 210.851562 213.175781 210.472656 C 213.425781 210.371094 213.503906 210.128906 213.433594 209.867188 C 213.355469 209.578125 213.121094 209.527344 212.832031 209.453125 Z M 202.414062 213.765625 C 202.476562 214.046875 202.523438 214.488281 202.675781 214.894531 C 202.863281 215.394531 203.484375 215.503906 203.863281 215.117188 C 204.054688 214.917969 204.199219 214.65625 204.324219 214.40625 C 204.460938 214.132812 204.542969 213.832031 204.652344 213.546875 C 205.265625 211.957031 206.246094 210.683594 207.792969 209.890625 C 207.945312 209.8125 208.101562 209.710938 208.207031 209.578125 C 208.535156 209.167969 208.351562 208.726562 207.832031 208.703125 C 207.554688 208.6875 207.257812 208.734375 206.992188 208.820312 C 205.519531 209.28125 204.371094 210.25 203.359375 211.347656 C 202.800781 211.953125 202.433594 212.734375 202.414062 213.765625 Z M 207.804688 205.832031 C 208.03125 205.359375 208.21875 204.9375 208.429688 204.53125 C 208.8125 203.796875 209.414062 203.3125 210.1875 203.019531 C 211.140625 202.664062 212.117188 202.5625 213.109375 202.78125 C 213.773438 202.925781 214.429688 203.117188 215.078125 203.324219 C 215.714844 203.527344 216.28125 203.878906 216.738281 204.367188 C 217.613281 205.296875 218.664062 205.953125 219.820312 206.472656 C 221.15625 207.074219 222.335938 207.898438 223.425781 208.882812 C 224.898438 210.222656 225.65625 211.863281 225.613281 213.839844 C 225.59375 214.820312 225.4375 215.800781 225.320312 216.777344 C 225.160156 218.089844 225.113281 219.394531 225.390625 220.703125 C 225.855469 222.90625 225.390625 224.929688 224.148438 226.789062 C 224.097656 226.863281 224.058594 226.972656 223.992188 226.996094 C 223.816406 227.050781 223.609375 227.132812 223.460938 227.078125 C 223.351562 227.039062 223.300781 226.804688 223.25 226.652344 C 223.230469 226.597656 223.269531 226.523438 223.292969 226.464844 C 224.027344 224.570312 222.746094 222.597656 221.007812 221.976562 C 219.488281 221.433594 217.933594 221.238281 216.332031 221.507812 C 215.53125 221.640625 214.726562 221.78125 213.925781 221.914062 C 212.722656 222.117188 211.558594 222.003906 210.4375 221.511719 C 208.644531 220.726562 206.820312 220.011719 205.058594 219.160156 C 203.777344 218.542969 202.515625 217.84375 201.351562 217.027344 C 198.25 214.847656 197.382812 210.527344 199.503906 207.304688 C 201.527344 204.230469 205.304688 204.179688 207.355469 205.570312 C 207.480469 205.65625 207.617188 205.722656 207.804688 205.832031 " fill-opacity="1" fill-rule="nonzero"/><path fill="#719d45" d="M 201.824219 190.878906 C 201.808594 190.800781 201.777344 190.71875 201.789062 190.644531 C 202.113281 188.851562 202.410156 187.058594 202.78125 185.277344 C 203.183594 183.34375 203.699219 181.433594 204.492188 179.613281 C 205.285156 177.789062 206.398438 176.15625 207.699219 174.652344 C 208.042969 174.257812 208.46875 173.933594 208.921875 173.515625 C 208.457031 173.152344 208 172.796875 207.550781 172.449219 C 203.9375 173.847656 201.300781 176.351562 199.160156 179.445312 C 197.523438 181.804688 196.191406 184.316406 195.265625 187.039062 C 195.21875 187.175781 195.140625 187.304688 194.984375 187.40625 C 195.125 186.867188 195.230469 186.320312 195.402344 185.796875 C 196.390625 182.820312 197.6875 180 199.652344 177.519531 C 201.1875 175.582031 203.019531 173.992188 205.152344 172.75 C 205.65625 172.453125 206.214844 172.246094 206.828125 171.960938 C 206.382812 171.652344 205.976562 171.367188 205.515625 171.046875 C 205.300781 171.527344 204.914062 171.539062 204.507812 171.53125 C 203.890625 171.519531 203.277344 171.535156 202.660156 171.523438 C 200.792969 171.484375 199.039062 171.917969 197.371094 172.734375 C 195.941406 173.433594 194.597656 174.257812 193.328125 175.21875 C 192.027344 176.203125 191.007812 177.429688 190.21875 178.847656 C 189.570312 180.015625 188.972656 181.214844 188.351562 182.402344 C 188.246094 182.605469 188.132812 182.808594 187.90625 182.96875 C 187.917969 182.859375 187.914062 182.742188 187.945312 182.636719 C 188.460938 180.972656 189.164062 179.394531 190.050781 177.894531 C 190.808594 176.609375 191.78125 175.515625 192.972656 174.621094 C 194.511719 173.46875 196.164062 172.511719 197.925781 171.742188 C 199.152344 171.203125 200.4375 170.949219 201.769531 170.878906 C 202.753906 170.824219 203.746094 170.796875 204.855469 170.75 C 204.476562 170.367188 204.074219 170.210938 203.710938 170.003906 C 203.328125 169.789062 202.9375 169.582031 202.546875 169.378906 C 202.15625 169.175781 201.765625 168.980469 201.351562 168.769531 C 201.277344 168.472656 201.203125 168.167969 201.089844 167.707031 C 202.410156 168.363281 203.613281 168.960938 204.855469 169.574219 C 206.347656 167.128906 208.578125 165.601562 211.222656 164.621094 C 211.496094 164.515625 211.800781 164.398438 212.195312 164.648438 C 211.953125 164.757812 211.777344 164.863281 211.585938 164.925781 C 209.328125 165.667969 207.585938 167.09375 206.179688 168.96875 C 205.945312 169.28125 205.753906 169.628906 205.519531 170 C 206.316406 170.546875 207.070312 171.0625 207.808594 171.570312 C 208.457031 171.222656 209.074219 170.886719 209.691406 170.5625 C 210.921875 169.917969 212.246094 169.609375 213.609375 169.460938 C 214.429688 169.375 215.238281 169.464844 216.015625 169.757812 C 216.25 169.847656 216.507812 169.941406 216.453125 170.34375 C 216.277344 170.289062 216.140625 170.226562 216 170.207031 C 215.4375 170.125 214.867188 169.964844 214.308594 169.988281 C 212.230469 170.09375 210.382812 170.878906 208.664062 172.011719 C 208.632812 172.03125 208.625 172.085938 208.585938 172.15625 C 208.90625 172.410156 209.214844 172.691406 209.558594 172.921875 C 209.703125 173.019531 209.921875 173.066406 210.097656 173.046875 C 211.113281 172.921875 212.121094 172.988281 213.109375 173.234375 C 214.988281 173.699219 216.75 174.414062 218.269531 175.644531 C 218.527344 175.851562 218.765625 176.078125 218.992188 176.316406 C 219.082031 176.414062 219.113281 176.5625 219.222656 176.796875 C 218.277344 176.175781 217.484375 175.546875 216.597656 175.109375 C 215.679688 174.660156 214.679688 174.351562 213.691406 174.066406 C 212.722656 173.785156 211.714844 173.710938 210.605469 173.8125 C 210.75 173.984375 210.832031 174.101562 210.929688 174.203125 C 211.832031 175.132812 212.742188 176.058594 213.636719 177 C 213.820312 177.199219 213.988281 177.261719 214.265625 177.222656 C 216.621094 176.890625 218.738281 177.632812 220.773438 178.714844 C 220.96875 178.820312 221.117188 179.011719 221.289062 179.160156 C 221.261719 179.210938 221.234375 179.257812 221.207031 179.304688 C 220.957031 179.199219 220.710938 179.082031 220.453125 178.992188 C 219.589844 178.679688 218.726562 178.339844 217.847656 178.074219 C 216.953125 177.804688 216.019531 177.804688 215.09375 177.882812 C 214.90625 177.898438 214.71875 177.949219 214.472656 177.996094 C 214.601562 178.207031 214.675781 178.363281 214.78125 178.5 C 215.933594 179.984375 216.792969 181.640625 217.632812 183.308594 C 217.8125 183.660156 218.039062 183.902344 218.382812 184.09375 C 219.890625 184.921875 221.144531 186.042969 222.152344 187.433594 C 222.246094 187.558594 222.324219 187.691406 222.398438 187.820312 C 222.414062 187.851562 222.386719 187.902344 222.375 187.976562 C 222.046875 188.042969 221.949219 187.746094 221.777344 187.582031 C 221.132812 186.957031 220.511719 186.300781 219.832031 185.710938 C 219.429688 185.359375 218.9375 185.109375 218.484375 184.8125 C 218.4375 184.847656 218.394531 184.878906 218.351562 184.914062 C 218.476562 185.226562 218.59375 185.546875 218.726562 185.855469 C 219.648438 187.980469 220.3125 190.1875 220.765625 192.449219 C 220.960938 193.410156 221.007812 194.40625 221.097656 195.386719 C 221.117188 195.585938 221.054688 195.792969 220.960938 196 C 220.574219 191.546875 218.953125 187.496094 217.007812 183.414062 C 216.476562 184.4375 216.144531 185.382812 215.996094 186.382812 C 215.710938 188.289062 215.324219 190.191406 215.550781 192.140625 C 215.578125 192.378906 215.503906 192.628906 215.359375 192.871094 C 215.324219 192.796875 215.261719 192.722656 215.257812 192.644531 C 215.066406 190.433594 214.917969 188.222656 215.246094 186.007812 C 215.425781 184.8125 215.949219 183.757812 216.605469 182.703125 C 215.855469 181.292969 215.082031 179.875 213.929688 178.601562 C 213.726562 178.835938 213.511719 179.019531 213.371094 179.253906 C 213 179.875 212.648438 180.507812 212.3125 181.144531 C 211.953125 181.828125 211.648438 182.53125 211.273438 183.203125 C 210.613281 184.386719 210.246094 185.671875 209.914062 186.96875 C 209.652344 187.992188 209.414062 189.015625 209.15625 190.039062 C 208.785156 191.496094 208.679688 192.980469 208.777344 194.480469 C 208.785156 194.632812 208.796875 194.785156 208.796875 194.9375 C 208.796875 194.972656 208.75 195.007812 208.695312 195.078125 C 208.484375 194.996094 208.46875 194.800781 208.441406 194.621094 C 208.25 193.355469 208.160156 192.082031 208.34375 190.816406 C 208.660156 188.621094 209.160156 186.460938 209.875 184.359375 C 209.917969 184.230469 209.960938 184.105469 210.015625 183.988281 C 210.757812 182.472656 211.484375 180.945312 212.261719 179.445312 C 212.542969 178.90625 212.964844 178.441406 213.378906 177.863281 C 212.222656 176.527344 210.863281 175.324219 209.570312 174.042969 C 208.769531 174.53125 208.160156 175.152344 207.621094 175.851562 C 206.03125 177.90625 204.824219 180.164062 204.105469 182.664062 C 203.609375 184.390625 203.191406 186.140625 202.753906 187.882812 C 202.550781 188.691406 202.386719 189.511719 202.195312 190.320312 C 202.148438 190.523438 202.0625 190.714844 201.992188 190.914062 C 201.9375 190.902344 201.878906 190.890625 201.824219 190.878906 " fill-opacity="1" fill-rule="nonzero"/><path fill="#719d45" d="M 241.976562 130.101562 C 239.9375 130.300781 237.855469 130.421875 235.707031 130.097656 C 235.984375 131.113281 236.707031 131.78125 237.101562 132.667969 C 237.003906 132.613281 236.875 132.582031 236.808594 132.5 C 236.21875 131.792969 235.613281 131.097656 235.070312 130.355469 C 234.835938 130.035156 234.582031 129.855469 234.214844 129.714844 C 232.917969 129.222656 231.628906 128.714844 230.371094 128.148438 C 228.277344 127.207031 226.152344 126.378906 223.898438 125.90625 C 223.519531 125.824219 223.128906 125.773438 222.621094 125.6875 C 222.738281 126.074219 222.792969 126.367188 222.910156 126.636719 C 223.9375 129.011719 225.410156 131.0625 227.488281 132.648438 C 227.976562 133.023438 228.488281 133.363281 228.980469 133.738281 C 229.15625 133.871094 229.300781 134.046875 229.539062 134.285156 C 228.527344 134.1875 225.722656 132.25 224.558594 130.898438 C 223.257812 129.382812 222.167969 127.75 221.753906 125.714844 C 221.195312 125.570312 220.648438 125.550781 220.039062 125.71875 C 220.878906 127.167969 221.5625 128.632812 221.9375 130.226562 C 222 130.480469 222.019531 130.742188 222.042969 131.003906 C 222.054688 131.101562 222.027344 131.203125 222.011719 131.304688 C 221.96875 131.3125 221.925781 131.328125 221.878906 131.335938 C 221.769531 131.09375 221.652344 130.855469 221.550781 130.605469 C 221.046875 129.390625 220.628906 128.136719 220.03125 126.96875 C 219.203125 125.339844 219.363281 125.652344 217.875 125.9375 C 217.308594 126.042969 216.90625 125.792969 216.433594 125.476562 C 217.203125 125.023438 218.058594 125.015625 218.867188 124.765625 C 219.410156 121.914062 218.175781 119.644531 216.457031 117.5 C 216.984375 117.5 217.582031 118.070312 218.347656 119.394531 C 218.8125 120.207031 219.203125 121.078125 219.53125 121.953125 C 219.855469 122.820312 219.84375 123.753906 219.753906 124.738281 C 223.855469 124.460938 227.503906 125.828125 231.15625 127.484375 C 231.769531 126.371094 232.570312 125.441406 233.492188 124.625 C 234.410156 123.8125 235.378906 123.046875 236.351562 122.300781 C 237.328125 121.554688 238.382812 120.945312 239.605469 120.703125 C 239.636719 120.746094 239.667969 120.789062 239.699219 120.835938 C 239.582031 120.925781 239.472656 121.027344 239.347656 121.105469 C 237.105469 122.480469 235.054688 124.09375 233.300781 126.0625 C 232.824219 126.597656 232.410156 127.191406 231.925781 127.808594 C 232.183594 127.941406 232.347656 128.035156 232.519531 128.113281 C 234.832031 129.1875 237.277344 129.503906 239.796875 129.34375 C 240.609375 129.292969 241.417969 129.203125 242.230469 129.152344 C 242.539062 129.132812 242.757812 129.019531 242.976562 128.808594 C 245.671875 126.234375 248.96875 124.957031 252.601562 124.433594 C 252.929688 124.386719 253.273438 124.429688 253.617188 124.492188 C 252.828125 124.875 251.9375 124.84375 251.136719 125.140625 C 250.316406 125.449219 249.5 125.777344 248.695312 126.136719 C 247.914062 126.484375 247.144531 126.863281 246.382812 127.261719 C 245.605469 127.664062 244.882812 128.15625 244.128906 128.882812 C 244.601562 128.800781 244.917969 128.746094 245.230469 128.691406 C 247.683594 128.289062 250.132812 127.886719 252.585938 127.480469 C 252.777344 127.449219 252.976562 127.40625 253.144531 127.316406 C 254.195312 126.746094 255.335938 126.53125 256.503906 126.457031 C 256.769531 126.4375 257.082031 126.363281 257.332031 126.761719 C 256.894531 126.855469 256.5 126.917969 256.113281 127.023438 C 255.71875 127.132812 255.332031 127.28125 254.933594 127.53125 C 255.175781 127.574219 255.417969 127.621094 255.65625 127.671875 C 257.238281 127.972656 258.609375 128.660156 259.71875 129.835938 C 259.882812 130.007812 260.144531 130.160156 260.035156 130.582031 C 259.835938 130.453125 259.675781 130.367188 259.535156 130.257812 C 257.476562 128.585938 255.101562 127.972656 252.496094 128.214844 C 251.605469 128.296875 250.730469 128.558594 249.84375 128.726562 C 247.660156 129.132812 245.476562 129.53125 243.292969 129.9375 C 243.207031 129.953125 243.125 129.980469 242.941406 130.03125 C 243.113281 130.335938 243.246094 130.625 243.425781 130.875 C 244.386719 132.222656 245.46875 133.460938 246.710938 134.558594 C 246.867188 134.695312 247.011719 134.847656 247.273438 135.109375 C 246.980469 135.132812 246.84375 135.171875 246.71875 135.148438 C 246.59375 135.125 246.476562 135.046875 246.367188 134.972656 C 244.523438 133.777344 243.011719 132.28125 242.105469 130.242188 C 242.089844 130.207031 242.050781 130.179688 241.976562 130.101562 " fill-opacity="1" fill-rule="nonzero"/><path fill="#719d45" d="M 164.53125 183.871094 C 164.007812 184.042969 163.574219 184.179688 163.148438 184.332031 C 161.886719 184.785156 160.625 185.242188 159.363281 185.699219 C 158.777344 185.910156 158.273438 186.164062 158.007812 186.824219 C 157.816406 187.296875 157.460938 187.726562 157.105469 188.109375 C 156.011719 189.289062 154.824219 190.367188 153.515625 191.308594 C 152.574219 191.984375 151.542969 192.460938 150.402344 192.691406 C 150.207031 192.730469 150.003906 192.726562 149.800781 192.746094 C 149.792969 192.699219 149.785156 192.65625 149.777344 192.609375 C 150.496094 192.277344 151.246094 191.996094 151.929688 191.601562 C 152.652344 191.1875 153.339844 190.699219 153.996094 190.1875 C 154.632812 189.683594 155.226562 189.125 155.816406 188.5625 C 156.402344 188.007812 156.925781 187.398438 157.296875 186.535156 C 156.554688 186.699219 155.914062 186.832031 155.277344 186.988281 C 154.039062 187.28125 152.800781 187.585938 151.5625 187.890625 C 150.222656 188.21875 148.886719 188.175781 147.601562 187.683594 C 146.519531 187.269531 145.472656 186.761719 144.285156 186.242188 C 144.859375 185.957031 145.308594 186.015625 145.734375 186.128906 C 146.175781 186.25 146.613281 186.417969 147.03125 186.609375 C 148.730469 187.402344 150.445312 187.441406 152.234375 186.886719 C 153.535156 186.480469 154.878906 186.21875 156.199219 185.890625 C 156.425781 185.835938 156.652344 185.773438 156.980469 185.6875 C 156.210938 185.128906 155.4375 184.890625 154.59375 184.804688 C 154.566406 184.457031 154.785156 184.417969 155.003906 184.429688 C 155.992188 184.476562 156.914062 184.707031 157.71875 185.457031 C 157.960938 185.355469 158.234375 185.175781 158.519531 185.144531 C 158.804688 185.113281 159.101562 185.230469 159.441406 185.289062 C 160.019531 184.855469 160.769531 184.675781 161.5 184.453125 C 161.859375 184.34375 162.230469 184.277344 162.582031 184.15625 C 163.164062 183.957031 163.214844 183.867188 163.1875 183.210938 C 163.738281 183.042969 164.304688 182.875 164.96875 182.671875 C 163.875 181.644531 162.554688 181.132812 161.273438 180.558594 C 161.367188 180.269531 161.566406 180.339844 161.71875 180.375 C 163.132812 180.707031 164.433594 181.273438 165.488281 182.296875 C 165.65625 182.457031 165.785156 182.589844 166.046875 182.558594 C 167.429688 182.398438 168.816406 182.484375 170.195312 182.660156 C 170.234375 182.667969 170.277344 182.648438 170.414062 182.621094 C 169.617188 181.015625 168.425781 179.777344 167.027344 178.609375 C 168.347656 178.695312 170.519531 180.960938 171.125 182.738281 C 172.34375 183.238281 173.519531 183.722656 174.695312 184.207031 C 174.75 184.230469 174.796875 184.285156 174.921875 184.390625 C 174.542969 184.542969 174.214844 184.671875 173.902344 184.792969 C 174.988281 186.378906 175.582031 188.125 175.566406 190.050781 C 175.5625 190.882812 175.492188 191.71875 175.414062 192.546875 C 175.3125 193.628906 174.835938 194.5625 174.15625 195.394531 C 174.042969 195.539062 173.878906 195.640625 173.628906 195.695312 C 173.644531 195.585938 173.617188 195.449219 173.671875 195.375 C 174.546875 194.242188 174.820312 192.941406 174.859375 191.546875 C 174.90625 189.921875 174.789062 188.328125 174.058594 186.855469 C 173.613281 185.957031 173.03125 185.125 172.5 184.269531 C 172.449219 184.1875 172.335938 184.121094 172.238281 184.089844 C 171.71875 183.925781 171.191406 183.773438 170.609375 183.601562 C 170.554688 183.90625 170.515625 184.132812 170.46875 184.359375 C 170.148438 185.992188 169.535156 187.515625 168.71875 188.957031 C 168.332031 189.644531 167.882812 190.300781 167.464844 190.96875 C 166.566406 192.40625 165.269531 193.414062 163.851562 194.277344 C 163.332031 194.59375 163.210938 194.605469 162.648438 194.5 C 163.109375 194.066406 163.660156 193.878906 164.082031 193.527344 C 164.5 193.171875 164.949219 192.847656 165.335938 192.460938 C 165.738281 192.058594 166.105469 191.617188 166.441406 191.160156 C 166.769531 190.71875 167.054688 190.246094 167.339844 189.777344 C 167.632812 189.289062 167.925781 188.792969 168.183594 188.289062 C 168.433594 187.800781 168.660156 187.296875 168.863281 186.789062 C 169.070312 186.257812 169.257812 185.71875 169.40625 185.167969 C 169.550781 184.644531 169.636719 184.105469 169.761719 183.5 C 168.304688 183.253906 166.949219 183.203125 165.617188 183.519531 C 164.34375 187.140625 162.128906 190.03125 159.164062 192.363281 C 158.15625 193.160156 157 193.707031 155.792969 194.140625 C 155.453125 194.265625 155.082031 194.308594 154.6875 194.398438 C 154.703125 194.003906 154.976562 194.023438 155.152344 193.941406 C 155.847656 193.613281 156.5625 193.324219 157.246094 192.972656 C 158.417969 192.375 159.339844 191.449219 160.230469 190.507812 C 161.859375 188.792969 163.296875 186.941406 164.230469 184.742188 C 164.308594 184.5625 164.382812 184.378906 164.453125 184.195312 C 164.476562 184.132812 164.484375 184.066406 164.53125 183.871094 " fill-opacity="1" fill-rule="nonzero"/><path fill="#719d45" d="M 220.851562 214.632812 C 223.140625 214.777344 224.253906 215.070312 224.882812 215.761719 C 224.21875 215.605469 223.667969 215.421875 223.105469 215.355469 C 222.546875 215.292969 221.972656 215.34375 221.320312 215.34375 C 221.425781 215.574219 221.507812 215.765625 221.605469 215.949219 C 222.644531 217.945312 223.507812 220.003906 223.863281 222.242188 C 223.960938 222.875 223.96875 223.109375 223.808594 223.671875 C 223.722656 223.53125 223.636719 223.445312 223.613281 223.34375 C 223.523438 222.914062 223.460938 222.480469 223.367188 222.050781 C 222.882812 219.765625 221.839844 217.714844 220.671875 215.71875 C 220.640625 215.664062 220.585938 215.625 220.476562 215.507812 C 219.847656 217.144531 219.222656 218.726562 218.914062 220.421875 C 218.855469 220.414062 218.796875 220.410156 218.738281 220.402344 C 218.726562 220.226562 218.699219 220.050781 218.710938 219.875 C 218.828125 218.242188 219.234375 216.671875 219.800781 215.144531 C 219.960938 214.710938 219.902344 214.40625 219.648438 214.0625 C 218.914062 213.042969 218.105469 212.089844 217.136719 211.285156 C 217.019531 211.183594 216.890625 211.101562 216.765625 211.007812 C 216.289062 211.183594 215.957031 211.511719 215.742188 211.917969 C 215.378906 212.617188 215.011719 213.324219 214.757812 214.066406 C 214.226562 215.605469 213.914062 217.199219 213.765625 218.824219 C 213.714844 219.402344 213.757812 219.988281 213.757812 220.648438 C 213.210938 219.925781 213.214844 218.398438 213.714844 215.25 C 214.007812 213.421875 214.597656 211.726562 215.976562 210.359375 C 215.070312 209.503906 214.046875 208.917969 213.027344 208.351562 C 208.386719 209.816406 206.464844 213.28125 205.949219 217.953125 C 205.804688 217.703125 205.707031 217.597656 205.675781 217.472656 C 205.476562 216.664062 205.546875 215.863281 205.738281 215.0625 C 206.535156 211.71875 208.472656 209.324219 211.660156 207.960938 C 211.734375 207.929688 211.800781 207.878906 211.953125 207.789062 C 211.464844 207.507812 211.03125 207.257812 210.597656 207.015625 C 210.546875 206.984375 210.46875 206.972656 210.410156 206.980469 C 209.089844 207.210938 207.757812 207.371094 206.457031 207.691406 C 205.023438 208.042969 203.800781 208.855469 202.753906 209.882812 C 202.289062 210.335938 201.964844 210.929688 201.585938 211.464844 C 201.46875 211.636719 201.386719 211.832031 201.289062 212.015625 C 201.238281 212.003906 201.191406 211.992188 201.140625 211.976562 C 201.179688 211.761719 201.195312 211.539062 201.261719 211.332031 C 201.574219 210.382812 202.242188 209.683594 202.941406 209.007812 C 204.507812 207.496094 206.402344 206.714844 208.542969 206.449219 C 208.695312 206.429688 208.84375 206.394531 208.992188 206.363281 C 209.007812 206.359375 209.015625 206.332031 209.078125 206.238281 C 208.707031 206.070312 208.34375 205.90625 207.90625 205.710938 C 207.996094 205.476562 208.074219 205.261719 208.183594 204.984375 C 208.765625 205.226562 209.304688 205.449219 209.878906 205.683594 C 210.164062 205.253906 210.417969 204.796875 210.746094 204.402344 C 211.078125 204.007812 211.464844 203.644531 212.140625 203.648438 C 211.792969 204.070312 211.476562 204.402344 211.226562 204.777344 C 210.976562 205.160156 210.792969 205.582031 210.546875 206.046875 C 211.132812 206.386719 211.675781 206.699219 212.261719 207.042969 C 213.375 205.625 214.902344 205.402344 216.546875 205.5625 C 216.808594 205.585938 217.160156 205.550781 217.382812 206.019531 C 215.621094 205.695312 214.160156 206.011719 213.03125 207.414062 C 214.214844 208.199219 215.359375 208.957031 216.566406 209.757812 C 217.945312 208.953125 219.46875 208.921875 221.027344 209.386719 C 221.8125 209.621094 222.660156 209.722656 223.25 210.371094 C 223.230469 210.414062 223.214844 210.457031 223.195312 210.5 C 222.84375 210.339844 222.5 210.152344 222.136719 210.03125 C 221.722656 209.886719 221.292969 209.777344 220.859375 209.703125 C 220.453125 209.636719 220.027344 209.601562 219.613281 209.613281 C 219.179688 209.628906 218.734375 209.679688 218.308594 209.78125 C 217.914062 209.875 217.539062 210.058594 217.035156 210.246094 C 218.59375 211.585938 219.890625 212.988281 220.851562 214.632812 " fill-opacity="1" fill-rule="nonzero"/><path fill="#719d45" d="M 178.277344 192.8125 C 178.863281 190.277344 178.636719 187.945312 176.695312 185.984375 C 176.816406 186.042969 176.945312 186.082031 177.054688 186.15625 C 177.375 186.386719 177.667969 186.660156 178.007812 186.859375 C 178.527344 187.167969 178.746094 187.632812 178.859375 188.195312 C 179.167969 189.71875 178.964844 191.203125 178.546875 192.671875 C 178.53125 192.726562 178.464844 192.761719 178.421875 192.808594 C 178.375 192.808594 178.324219 192.8125 178.277344 192.8125 " fill-opacity="1" fill-rule="nonzero"/><g clip-path="url(#f9cb7a0a66)"><path fill="#6f9d43" d="M 210.824219 132.960938 C 212.132812 133.117188 213.441406 133.296875 214.75 133.421875 C 215.402344 133.488281 216.074219 133.5 216.726562 133.449219 C 217.085938 133.421875 217.457031 133.269531 217.773438 133.085938 C 218.714844 132.535156 218.9375 131.441406 218.320312 130.546875 C 218.21875 130.402344 218.125 130.253906 218.003906 130.125 C 217.625 129.707031 217.171875 129.410156 216.585938 129.386719 C 215.746094 129.351562 214.921875 129.402344 214.097656 129.597656 C 211.714844 130.164062 209.699219 131.453125 207.6875 132.757812 C 207.496094 132.878906 207.320312 133.042969 207.445312 133.296875 C 207.574219 133.5625 207.816406 133.496094 208.023438 133.414062 C 208.925781 133.070312 209.867188 133.015625 210.824219 132.960938 Z M 197.988281 148.394531 C 198.007812 148.847656 197.90625 149.339844 198.367188 149.496094 C 199.023438 149.714844 199.734375 149.914062 200.421875 149.605469 C 201.160156 149.273438 201.742188 148.773438 202.0625 147.984375 C 202.511719 146.867188 203 145.761719 203.507812 144.671875 C 204.066406 143.464844 204.875 142.476562 206.136719 141.929688 C 206.316406 141.851562 206.492188 141.753906 206.65625 141.644531 C 206.800781 141.546875 206.945312 141.4375 207.050781 141.300781 C 207.277344 141.007812 207.171875 140.742188 206.808594 140.683594 C 206.683594 140.660156 206.542969 140.667969 206.417969 140.699219 C 205.714844 140.859375 205.015625 141.046875 204.308594 141.195312 C 203.21875 141.414062 202.34375 142.054688 201.421875 142.605469 C 199.210938 143.929688 198.359375 146.054688 197.988281 148.394531 Z M 200.0625 127.890625 C 200.269531 127.675781 200.371094 127.59375 200.4375 127.488281 C 200.746094 127.011719 201.039062 126.519531 201.347656 126.039062 C 201.855469 125.257812 202.488281 124.585938 203.277344 124.085938 C 204.265625 123.464844 205.265625 122.867188 206.277344 122.289062 C 207.304688 121.695312 208.359375 121.148438 209.394531 120.570312 C 209.964844 120.253906 210.226562 119.726562 210.242188 119.101562 C 210.269531 118.101562 209.558594 117.179688 208.601562 116.867188 C 207.691406 116.566406 206.914062 116.871094 206.179688 117.363281 C 205.242188 117.992188 204.449219 118.78125 203.65625 119.578125 C 201.90625 121.34375 200.769531 123.433594 200.230469 125.847656 C 200.117188 126.339844 200.027344 126.835938 199.953125 127.332031 C 199.933594 127.464844 200.003906 127.609375 200.0625 127.890625 Z M 198.910156 132.203125 C 198.96875 131.515625 198.570312 131.246094 198.175781 131.023438 C 196.273438 129.941406 194.289062 129.078125 192.109375 128.746094 C 191.507812 128.652344 190.882812 128.625 190.273438 128.664062 C 189.113281 128.734375 187.957031 128.929688 186.792969 128.964844 C 185.53125 129.003906 184.464844 129.605469 183.386719 130.097656 C 182.609375 130.453125 181.941406 131.09375 181.296875 131.683594 C 180.605469 132.316406 180.15625 133.125 179.960938 134.058594 C 179.839844 134.636719 179.980469 135.132812 180.394531 135.5625 C 181.476562 136.6875 182.761719 136.914062 184.199219 136.410156 C 184.652344 136.25 185.089844 136.039062 185.519531 135.820312 C 186.902344 135.128906 188.144531 134.230469 189.40625 133.347656 C 190.238281 132.761719 191.132812 132.285156 192.132812 132.070312 C 193.691406 131.738281 195.265625 131.679688 196.847656 131.960938 C 197.511719 132.078125 198.1875 132.121094 198.910156 132.203125 Z M 194.917969 125.308594 C 194.707031 124.550781 194.484375 123.796875 194.296875 123.035156 C 193.695312 120.542969 194.128906 118.207031 195.378906 115.988281 C 196.453125 114.078125 198.191406 113.191406 200.273438 112.925781 C 203.535156 112.511719 206.46875 113.355469 209.046875 115.394531 C 209.632812 115.859375 210.183594 116.363281 210.722656 116.882812 C 211.332031 117.472656 212.015625 117.933594 212.792969 118.269531 C 213.78125 118.695312 214.757812 119.148438 215.753906 119.5625 C 218.023438 120.5 219.621094 122.117188 220.660156 124.308594 C 220.914062 124.84375 221.136719 125.394531 221.371094 125.9375 C 221.476562 126.1875 221.554688 126.460938 221.3125 126.667969 C 221.042969 126.898438 220.792969 126.746094 220.535156 126.578125 C 219.726562 126.050781 218.921875 125.519531 218.089844 125.023438 C 216.886719 124.3125 215.578125 123.984375 214.179688 123.984375 C 213.894531 123.984375 213.609375 123.996094 213.320312 123.980469 C 211.464844 123.894531 209.808594 124.46875 208.300781 125.511719 C 207.851562 125.820312 207.414062 126.152344 207.019531 126.570312 C 207.105469 126.546875 207.195312 126.539062 207.277344 126.5 C 209.875 125.269531 212.605469 125.074219 215.410156 125.484375 C 216.324219 125.617188 217.234375 125.78125 218.136719 125.972656 C 220.84375 126.550781 222.546875 128.84375 222.765625 131.167969 C 222.96875 133.382812 222.902344 135.539062 222.195312 137.671875 C 221.796875 138.878906 221.519531 140.121094 221.164062 141.34375 C 220.789062 142.636719 220.222656 143.847656 219.570312 145.023438 C 219.335938 145.445312 219.113281 145.875 218.886719 146.300781 C 218.046875 147.867188 217.949219 149.527344 218.296875 151.230469 C 218.539062 152.410156 218.855469 153.578125 219.085938 154.761719 C 219.308594 155.90625 219.230469 157.035156 218.734375 158.113281 C 218.667969 158.253906 218.609375 158.398438 218.527344 158.523438 C 218.25 158.949219 217.871094 158.945312 217.589844 158.515625 C 217.53125 158.425781 217.480469 158.324219 217.441406 158.222656 C 217.058594 157.296875 216.4375 156.539062 215.796875 155.773438 C 214.742188 154.503906 213.351562 153.957031 211.777344 153.753906 C 209.496094 153.457031 207.257812 153.792969 205.023438 154.214844 C 203.164062 154.570312 201.316406 155.027344 199.441406 155.238281 C 197.039062 155.507812 194.617188 155.65625 192.199219 155.710938 C 189.644531 155.769531 188.234375 153.957031 188.746094 151.449219 C 189.007812 150.160156 189.632812 149.011719 190.355469 147.933594 C 192.28125 145.070312 194.523438 142.496094 197.472656 140.609375 C 197.5625 140.554688 197.648438 140.484375 197.824219 140.359375 C 197.65625 140.34375 197.582031 140.320312 197.519531 140.335938 C 196.0625 140.683594 194.605469 141.035156 193.242188 141.671875 C 189.941406 143.214844 187.550781 145.601562 186.464844 149.148438 C 186.097656 150.339844 186.015625 151.558594 186.214844 152.792969 C 186.246094 152.988281 186.28125 153.1875 186.273438 153.382812 C 186.257812 153.753906 186.003906 153.929688 185.640625 153.84375 C 185.515625 153.816406 185.394531 153.757812 185.273438 153.703125 C 183.503906 152.914062 181.734375 152.132812 179.976562 151.332031 C 179.105469 150.933594 178.375 150.324219 177.6875 149.671875 C 176.804688 148.839844 176.046875 147.894531 175.417969 146.855469 C 174.609375 145.527344 174.363281 144.058594 174.570312 142.546875 C 174.742188 141.269531 174.984375 139.984375 175.339844 138.746094 C 175.988281 136.480469 176.375 134.171875 176.742188 131.847656 C 176.960938 130.464844 177.296875 129.097656 177.605469 127.730469 C 177.835938 126.703125 178.433594 125.914062 179.242188 125.246094 C 180.5 124.21875 181.898438 123.464844 183.433594 122.933594 C 184.578125 122.539062 185.703125 122.09375 186.816406 121.621094 C 187.703125 121.246094 188.578125 121.304688 189.460938 121.574219 C 191.140625 122.089844 192.542969 123.050781 193.78125 124.273438 C 194.136719 124.621094 194.46875 125 194.8125 125.363281 C 194.847656 125.347656 194.882812 125.328125 194.917969 125.308594 " fill-opacity="1" fill-rule="nonzero"/></g><path fill="#6f9d43" d="M 195.113281 194.382812 C 195.421875 194.570312 195.566406 194.71875 195.738281 194.757812 C 196.585938 194.953125 197.335938 195.363281 198.105469 195.742188 C 198.335938 195.855469 198.605469 195.929688 198.859375 195.9375 C 199.417969 195.960938 199.761719 195.410156 199.464844 194.941406 C 199.089844 194.359375 198.582031 193.867188 197.882812 193.738281 C 197.1875 193.609375 196.476562 193.675781 195.8125 193.960938 C 195.621094 194.042969 195.449219 194.175781 195.113281 194.382812 Z M 188.058594 193.632812 C 188.300781 193.054688 188.515625 192.476562 188.777344 191.921875 C 190.011719 189.296875 192.222656 188.105469 194.996094 187.777344 C 195.742188 187.6875 196.417969 187.898438 197.003906 188.421875 C 197.378906 188.75 197.839844 188.984375 198.273438 189.238281 C 198.78125 189.542969 199.308594 189.816406 199.820312 190.117188 C 200.902344 190.75 201.597656 191.683594 201.882812 192.894531 C 202.300781 194.671875 202.5 196.484375 202.378906 198.3125 C 202.339844 198.941406 202.1875 199.566406 202.066406 200.191406 C 201.929688 200.90625 201.535156 201.480469 200.996094 201.964844 C 199.925781 202.925781 198.71875 203.675781 197.386719 204.234375 C 196.332031 204.675781 195.300781 205.160156 194.425781 205.933594 C 193.117188 207.089844 192.328125 208.507812 192.222656 210.269531 C 192.222656 210.3125 192.21875 210.359375 192.21875 210.402344 C 192.214844 210.6875 192.136719 210.949219 191.820312 210.996094 C 191.460938 211.042969 191.320312 210.789062 191.238281 210.492188 C 191.121094 210.066406 191 209.644531 190.886719 209.222656 C 190.679688 208.445312 190.3125 207.757812 189.792969 207.144531 C 189.40625 206.679688 188.929688 206.480469 188.335938 206.542969 C 188.007812 206.578125 187.683594 206.621094 187.355469 206.644531 C 186.960938 206.675781 186.5625 206.707031 186.167969 206.710938 C 185.496094 206.714844 184.910156 206.476562 184.480469 205.953125 C 183.851562 205.183594 183.046875 204.667969 182.148438 204.277344 C 181.625 204.046875 181.109375 203.792969 180.574219 203.597656 C 179.011719 203.035156 177.867188 201.996094 177.054688 200.570312 C 176.25 199.144531 175.832031 197.613281 175.863281 195.976562 C 175.910156 193.644531 177.480469 191.742188 179.847656 191.1875 C 181.601562 190.777344 183.34375 190.882812 185.046875 191.484375 C 185.867188 191.773438 186.578125 192.246094 187.203125 192.847656 C 187.472656 193.105469 187.75 193.351562 188.058594 193.632812 " fill-opacity="1" fill-rule="nonzero"/><path fill="#9dba5e" d="M 188.113281 127.179688 C 186.511719 127.363281 184.949219 127.726562 183.398438 128.144531 C 181.945312 128.535156 180.675781 129.253906 179.515625 130.191406 C 179.296875 130.363281 179.070312 130.53125 178.820312 130.71875 C 178.625 130.332031 178.898438 130.167969 179.058594 130.007812 C 179.984375 129.089844 181.007812 128.289062 182.222656 127.785156 C 183.753906 127.148438 185.363281 126.773438 186.992188 126.5 C 187.75 126.371094 188.40625 126.226562 189.171875 126.136719 L 190.832031 126.019531 C 192.644531 126.246094 194.476562 126.476562 196.300781 126.707031 C 195.824219 126.160156 195.308594 125.628906 194.875 125.039062 C 194.683594 124.777344 194.667969 124.386719 194.574219 124.054688 C 194.613281 124.027344 194.652344 123.996094 194.691406 123.96875 C 195.367188 124.570312 196.039062 125.175781 196.769531 125.828125 C 196.886719 125.320312 196.976562 124.898438 197.078125 124.480469 C 197.480469 122.800781 198.105469 121.210938 199.0625 119.765625 C 200.300781 117.902344 201.96875 116.566406 204.085938 115.769531 C 205.027344 115.414062 205.972656 115.398438 206.941406 115.566406 C 207.027344 115.582031 207.128906 115.59375 207.1875 115.644531 C 207.277344 115.722656 207.398438 115.84375 207.390625 115.933594 C 207.382812 116.023438 207.238281 116.15625 207.140625 116.171875 C 206.882812 116.207031 206.613281 116.214844 206.351562 116.191406 C 205.585938 116.125 204.871094 116.277344 204.171875 116.585938 C 202.296875 117.40625 200.824219 118.6875 199.757812 120.414062 C 198.644531 122.214844 198.003906 124.1875 197.726562 126.285156 C 197.6875 126.582031 197.710938 126.820312 197.957031 127.050781 C 199.949219 128.9375 201.890625 130.882812 203.746094 132.910156 C 203.804688 132.972656 203.878906 133.015625 203.96875 133.085938 C 204.058594 132.988281 204.136719 132.917969 204.199219 132.832031 C 205.378906 131.269531 206.832031 130.003906 208.515625 129.007812 C 211.164062 127.441406 214.046875 126.933594 217.089844 127.207031 C 217.636719 127.257812 218.1875 127.316406 218.726562 127.421875 C 219.019531 127.476562 219.304688 127.617188 219.574219 127.761719 C 219.652344 127.804688 219.71875 128.003906 219.683594 128.09375 C 219.652344 128.179688 219.488281 128.246094 219.375 128.261719 C 219.25 128.28125 219.117188 128.226562 218.984375 128.214844 C 217.140625 128.03125 215.292969 127.886719 213.453125 128.199219 C 209.890625 128.804688 207.113281 130.695312 204.898438 133.476562 C 204.804688 133.59375 204.730469 133.726562 204.640625 133.867188 C 205.695312 135.125 206.734375 136.363281 207.765625 137.601562 C 210.019531 136.296875 212.464844 135.855469 215.050781 136.242188 C 216.4375 136.445312 217.742188 136.929688 218.851562 137.816406 C 219.222656 138.117188 219.527344 138.5 219.835938 138.871094 C 219.996094 139.0625 219.972656 139.082031 219.910156 139.503906 C 219.824219 139.46875 219.726562 139.457031 219.683594 139.402344 C 218.703125 138.121094 217.3125 137.554688 215.816406 137.175781 C 214.0625 136.730469 212.316406 136.882812 210.597656 137.363281 C 209.882812 137.566406 209.203125 137.890625 208.511719 138.164062 C 208.414062 138.203125 208.34375 138.296875 208.242188 138.378906 C 209.257812 140.089844 210.261719 141.78125 211.265625 143.46875 C 211.910156 143.46875 212.527344 143.460938 213.140625 143.46875 C 214.753906 143.496094 216.273438 143.902344 217.691406 144.667969 C 217.929688 144.796875 218.136719 144.980469 218.324219 145.214844 C 216.214844 144.492188 214.082031 144.085938 211.777344 144.316406 C 211.898438 144.574219 211.976562 144.773438 212.082031 144.957031 C 213.707031 147.730469 215.011719 150.65625 216.347656 153.570312 C 216.492188 153.894531 216.742188 154.207031 216.625 154.695312 C 216.527344 154.550781 216.464844 154.46875 216.417969 154.382812 C 214.753906 151.164062 213.203125 147.890625 211.222656 144.84375 C 210.859375 144.289062 210.578125 144.1875 210.132812 144.625 C 208.570312 146.144531 207.378906 147.878906 207.210938 150.136719 C 207.1875 150.460938 207.238281 150.792969 207.246094 151.121094 C 207.253906 151.328125 207.246094 151.535156 207.246094 151.753906 C 206.785156 151.804688 206.671875 151.511719 206.632812 151.238281 C 206.558594 150.722656 206.476562 150.1875 206.53125 149.671875 C 206.59375 149.070312 206.734375 148.457031 206.945312 147.886719 C 207.414062 146.644531 208.113281 145.523438 209 144.535156 C 209.375 144.113281 209.839844 143.773438 210.300781 143.359375 C 209.730469 142.421875 209.148438 141.445312 208.542969 140.484375 C 207.207031 138.359375 205.738281 136.335938 204.03125 134.488281 C 203.820312 134.261719 203.621094 134.160156 203.300781 134.136719 C 198.464844 133.753906 194.03125 135.09375 189.777344 137.246094 L 188.734375 137.847656 C 188.058594 138.300781 187.445312 138.671875 186.878906 139.105469 C 186.285156 139.554688 185.714844 140.042969 185.171875 140.558594 C 184.648438 141.054688 184.15625 141.589844 183.679688 142.136719 C 183.1875 142.699219 182.730469 143.289062 182.273438 143.878906 C 181.839844 144.441406 181.5 145.078125 181.023438 145.640625 C 180.75 145.386719 180.890625 145.21875 180.972656 145.054688 C 182.269531 142.375 184.09375 140.128906 186.507812 138.371094 C 187.113281 137.929688 187.730469 137.503906 188.378906 137.132812 L 189.304688 136.519531 C 189.574219 136.390625 189.78125 136.296875 189.980469 136.191406 C 192.558594 134.863281 195.246094 133.835938 198.128906 133.429688 C 199.519531 133.238281 200.933594 133.222656 202.339844 133.128906 C 202.4375 133.125 202.539062 133.128906 202.761719 133.128906 C 202.347656 132.675781 202.019531 132.300781 201.671875 131.945312 C 200.554688 130.828125 199.449219 129.699219 198.296875 128.613281 C 198.046875 128.378906 197.636719 128.304688 197.296875 128.175781 C 197.195312 128.136719 197.058594 128.179688 196.972656 128.128906 C 195.664062 127.328125 194.152344 127.402344 192.714844 127.167969 C 191.9375 127.039062 191.136719 127.074219 190.34375 127.019531 L 188.113281 127.179688 " fill-opacity="1" fill-rule="nonzero"/><path fill="#9dba5e" d="M 180.707031 202.53125 C 180.734375 202.414062 180.75 202.289062 180.792969 202.175781 C 181.15625 201.226562 181.761719 200.449219 182.59375 199.871094 C 184.472656 198.566406 186.480469 197.550781 188.820312 197.371094 C 188.886719 197.367188 188.945312 197.335938 189.007812 197.316406 C 189.0625 196.988281 188.855469 196.863281 188.605469 196.722656 C 187.195312 195.925781 185.640625 195.617188 184.070312 195.410156 C 182.894531 195.253906 181.703125 195.191406 180.519531 195.148438 C 179.5625 195.109375 178.632812 195.289062 177.78125 195.765625 C 177.734375 195.796875 177.664062 195.789062 177.511719 195.808594 C 177.621094 195.65625 177.671875 195.550781 177.753906 195.476562 C 178.546875 194.765625 179.511719 194.511719 180.546875 194.46875 C 181.988281 194.40625 183.40625 194.570312 184.824219 194.773438 C 186 194.941406 187.175781 195.109375 188.402344 195.710938 C 188.109375 194.746094 187.726562 193.976562 187.421875 193.125 C 187.613281 193.300781 187.808594 193.472656 188 193.644531 C 188.105469 193.558594 188.199219 193.484375 188.328125 193.382812 C 188.59375 194 188.84375 194.578125 189.136719 195.257812 C 189.324219 195.019531 189.46875 194.839844 189.609375 194.65625 C 190.980469 192.878906 192.679688 191.527344 194.789062 190.707031 C 195.535156 190.414062 196.308594 190.257812 197.113281 190.355469 C 197.324219 190.382812 197.527344 190.449219 197.730469 190.601562 C 197.640625 190.640625 197.546875 190.703125 197.449219 190.714844 C 195.214844 191.039062 193.324219 192.070312 191.683594 193.566406 C 191.023438 194.167969 190.496094 194.914062 189.882812 195.574219 C 189.476562 196.011719 189.421875 196.441406 189.792969 196.871094 C 193.175781 196.707031 196.3125 197.476562 199.261719 199.054688 C 199.785156 199.335938 200.261719 199.679688 200.527344 200.273438 C 199.917969 199.921875 199.324219 199.53125 198.683594 199.234375 C 198.027344 198.9375 197.332031 198.703125 196.636719 198.5 C 195.921875 198.292969 195.1875 198.144531 194.453125 198 C 193.742188 197.859375 193.027344 197.722656 192.304688 197.652344 C 191.589844 197.578125 190.863281 197.480469 190.0625 197.695312 C 190.296875 198.371094 190.519531 199.027344 190.746094 199.683594 C 193.121094 200.40625 195.285156 201.382812 196.359375 203.820312 C 195.960938 203.707031 195.75 203.347656 195.445312 203.109375 C 195.132812 202.863281 194.828125 202.605469 194.503906 202.378906 C 194.164062 202.140625 193.804688 201.921875 193.445312 201.714844 C 193.101562 201.519531 192.746094 201.335938 192.386719 201.175781 C 192.007812 201.003906 191.617188 200.863281 191.195312 200.695312 C 191.308594 201.941406 191.453125 203.121094 191.511719 204.304688 C 191.570312 205.476562 191.484375 206.644531 191.296875 207.828125 C 190.921875 207.699219 190.996094 207.472656 190.992188 207.289062 C 190.953125 206.171875 190.964844 205.046875 190.871094 203.933594 C 190.796875 203.085938 190.601562 202.25 190.453125 201.40625 C 190.4375 201.304688 190.367188 201.214844 190.292969 201.054688 C 189.832031 201.378906 189.386719 201.660156 188.976562 201.988281 C 188.566406 202.3125 188.164062 202.660156 187.800781 203.042969 C 187.453125 203.40625 187.160156 203.820312 186.847656 204.21875 C 186.535156 204.617188 186.550781 205.210938 185.980469 205.617188 C 185.980469 204.691406 186.351562 204.011719 186.710938 203.332031 C 187.074219 202.648438 187.535156 202.027344 188.136719 201.535156 C 188.746094 201.039062 189.390625 200.582031 190.078125 200.066406 C 189.875 199.476562 189.652344 198.839844 189.417969 198.167969 C 187.621094 198.046875 186.074219 198.738281 184.523438 199.402344 C 182.953125 200.074219 181.648438 201.066406 180.808594 202.609375 C 180.773438 202.582031 180.742188 202.558594 180.707031 202.53125 " fill-opacity="1" fill-rule="nonzero"/><g clip-path="url(#15f3ebf78c)"><path fill="#d2a56e" d="M 173.066406 221.777344 C 173.257812 221.832031 173.367188 221.851562 173.460938 221.898438 C 176.480469 223.410156 179.714844 224.234375 183.007812 224.867188 C 188.015625 225.828125 193.078125 226.238281 198.175781 226.167969 C 202.121094 226.113281 206.046875 225.824219 209.890625 224.871094 C 211.125 224.566406 212.332031 224.136719 213.527344 223.695312 C 214.476562 223.34375 215.34375 222.8125 216.082031 222.097656 C 216.449219 221.746094 216.707031 221.773438 216.839844 222.253906 C 217.042969 222.992188 217.210938 223.746094 217.296875 224.503906 C 217.613281 227.191406 217.554688 229.890625 217.464844 232.589844 C 217.230469 239.5 215.789062 246.15625 213.285156 252.59375 C 212.441406 254.761719 211.488281 256.882812 210.421875 258.953125 C 210.277344 259.230469 210.199219 259.546875 210.050781 259.960938 C 208.019531 261.097656 205.75 261.976562 203.28125 262.164062 C 200.691406 262.355469 198.09375 262.558594 195.503906 262.519531 C 191.136719 262.453125 186.800781 261.988281 182.664062 260.457031 C 181.613281 260.070312 180.605469 259.578125 179.585938 259.113281 C 178.699219 258.707031 178.117188 257.996094 177.785156 257.101562 C 177.539062 256.445312 177.378906 255.761719 177.1875 255.089844 C 177.042969 254.585938 176.9375 254.070312 176.761719 253.578125 C 175.328125 249.585938 174.222656 245.503906 173.421875 241.339844 C 172.875 238.488281 172.617188 235.605469 172.394531 232.71875 C 172.328125 231.910156 172.296875 231.097656 172.214844 230.289062 C 172.03125 228.507812 172.253906 226.738281 172.429688 224.972656 C 172.511719 224.1875 172.632812 223.40625 172.765625 222.628906 C 172.816406 222.34375 172.960938 222.070312 173.066406 221.777344 " fill-opacity="1" fill-rule="nonzero"/></g></svg>