<?xml version="1.0" encoding="UTF-8" standalone="no"?>
<!DOCTYPE svg PUBLIC "-//W3C//DTD SVG 1.1//EN" "http://www.w3.org/Graphics/SVG/1.1/DTD/svg11.dtd">
<svg width="100%" height="100%" viewBox="0 0 178 199" version="1.1" xmlns="http://www.w3.org/2000/svg" xmlns:xlink="http://www.w3.org/1999/xlink" xml:space="preserve" xmlns:serif="http://www.serif.com/" style="fill-rule:evenodd;clip-rule:evenodd;stroke-linejoin:round;stroke-miterlimit:2;">
    <g transform="matrix(1,0,0,1,-161.135,-142.443)">
        <path d="M193.677,207.339C211.62,207.339 226.214,192.781 226.214,174.891C226.214,157 211.62,142.443 193.677,142.443C175.734,142.443 161.135,157 161.135,174.891C161.135,192.781 175.734,207.339 193.677,207.339ZM193.677,151.396C206.667,151.396 217.234,161.938 217.234,174.891C217.234,187.844 206.667,198.385 193.677,198.385C180.682,198.385 170.115,187.849 170.115,174.891C170.115,161.938 180.688,151.396 193.677,151.396Z" style="fill:rgb(255,189,31);fill-rule:nonzero;"/>
    </g>
    <g transform="matrix(1,0,0,1,-161.135,-142.443)">
        <path d="M311.214,259.578C295.818,259.578 283.292,272.073 283.292,287.422C283.292,302.776 295.818,315.266 311.214,315.266C326.609,315.266 339.135,302.776 339.135,287.422C339.135,272.073 326.609,259.578 311.214,259.578ZM311.214,306.313C300.766,306.313 292.271,297.839 292.271,287.427C292.271,277.01 300.766,268.536 311.214,268.536C321.661,268.536 330.161,277.01 330.161,287.427C330.161,297.839 321.661,306.313 311.214,306.313Z" style="fill:rgb(255,189,31);fill-rule:nonzero;"/>
    </g>
    <g transform="matrix(1,0,0,1,-161.135,-142.443)">
        <path d="M279.156,188.427C287.464,188.427 294.219,181.688 294.219,173.411C294.219,165.13 287.464,158.391 279.156,158.391C270.854,158.391 264.099,165.13 264.099,173.411C264.099,181.688 270.854,188.427 279.156,188.427ZM279.156,167.344C282.51,167.344 285.24,170.063 285.24,173.411C285.24,176.755 282.51,179.474 279.156,179.474C275.807,179.474 273.078,176.755 273.078,173.411C273.078,170.063 275.807,167.344 279.156,167.344Z" style="fill:rgb(20,196,237);fill-rule:nonzero;"/>
    </g>
    <g transform="matrix(1,0,0,1,-161.135,-142.443)">
        <path d="M200.521,253.516C200.521,245.24 193.766,238.5 185.458,238.5C177.156,238.5 170.401,245.24 170.401,253.516C170.401,261.797 177.156,268.536 185.458,268.536C193.766,268.536 200.521,261.797 200.521,253.516ZM179.38,253.516C179.38,250.177 182.109,247.453 185.458,247.453C188.813,247.453 191.542,250.177 191.542,253.516C191.542,256.859 188.813,259.578 185.458,259.578C182.109,259.578 179.38,256.859 179.38,253.516Z" style="fill:rgb(20,196,237);fill-rule:nonzero;"/>
    </g>
    <g transform="matrix(1,0,0,1,-161.135,-142.443)">
        <path d="M193.677,311.365C185.375,311.365 178.615,318.104 178.615,326.385C178.615,334.661 185.375,341.401 193.677,341.401C201.979,341.401 208.734,334.661 208.734,326.385C208.734,318.104 201.979,311.365 193.677,311.365ZM193.677,332.448C190.323,332.448 187.594,329.729 187.594,326.385C187.594,323.042 190.323,320.318 193.677,320.318C197.031,320.318 199.755,323.042 199.755,326.385C199.755,329.729 197.031,332.448 193.677,332.448Z" style="fill:rgb(20,196,237);fill-rule:nonzero;"/>
    </g>
    <g transform="matrix(1,0,0,1,-161.135,-142.443)">
        <path d="M287.547,266.911C289.125,265.005 288.859,262.188 286.948,260.609L273.318,249.349C274.641,246.656 275.406,243.646 275.406,240.448C275.406,233.203 271.568,226.854 265.823,223.26L275.172,195.661C275.964,193.318 274.703,190.776 272.354,189.984C270,189.198 267.453,190.453 266.667,192.797L257.354,220.297C256.599,220.214 255.839,220.161 255.063,220.161C251.234,220.161 247.656,221.245 244.594,223.089L227.495,202.167C225.927,200.25 223.099,199.958 221.177,201.521C219.255,203.083 218.969,205.906 220.531,207.823L238.083,229.297C236.141,232.229 234.958,235.693 234.771,239.417L206.677,245.599C204.255,246.13 202.724,248.521 203.26,250.932C203.719,253.026 205.578,254.448 207.635,254.448C207.958,254.448 208.286,254.411 208.609,254.339L236.292,248.25C237.526,251.198 239.448,253.786 241.844,255.833L204.068,305.5C202.568,307.469 202.953,310.281 204.932,311.776C205.74,312.385 206.693,312.682 207.641,312.682C208.995,312.682 210.339,312.073 211.219,310.911L249.906,260.052C251.557,260.484 253.281,260.734 255.063,260.734C259.833,260.734 264.214,259.078 267.688,256.328L281.224,267.505C282.063,268.198 283.078,268.536 284.083,268.536C285.375,268.536 286.656,267.979 287.547,266.911ZM255.063,251.781C248.797,251.781 243.698,246.698 243.698,240.448C243.698,234.198 248.797,229.115 255.063,229.115C261.328,229.115 266.427,234.198 266.427,240.448C266.427,246.698 261.328,251.781 255.063,251.781Z" style="fill:rgb(228,233,234);fill-rule:nonzero;"/>
    </g>
</svg>
