<?xml version="1.0" encoding="UTF-8" standalone="no"?>
<!DOCTYPE svg PUBLIC "-//W3C//DTD SVG 1.1//EN" "http://www.w3.org/Graphics/SVG/1.1/DTD/svg11.dtd">
<svg width="100%" height="100%" viewBox="0 0 285 235" version="1.1" xmlns="http://www.w3.org/2000/svg" xmlns:xlink="http://www.w3.org/1999/xlink" xml:space="preserve" xmlns:serif="http://www.serif.com/" style="fill-rule:evenodd;clip-rule:evenodd;stroke-linejoin:round;stroke-miterlimit:2;">
    <g transform="matrix(1,0,0,1,-107.375,-132.969)">
        <path d="M366.943,366.979L132.708,366.979L132.708,235.365L249.828,151.005L366.943,235.365L366.943,366.979" style="fill:rgb(238,240,212);fill-rule:nonzero;"/>
    </g>
    <g transform="matrix(1,0,0,1,-107.375,-132.969)">
        <path d="M249.828,132.969L107.375,235.568L117.833,246.078L249.828,151.005L381.818,246.078L392.276,235.568L249.828,132.969" style="fill:rgb(241,70,36);fill-rule:nonzero;"/>
    </g>
    <g transform="matrix(1,0,0,1,-107.375,-132.969)">
        <path d="M242.505,238.469L170.438,238.469L170.438,366.979L242.505,366.979L242.505,238.469" style="fill:rgb(193,208,184);fill-rule:nonzero;"/>
    </g>
    <g transform="matrix(1,0,0,1,-107.375,-132.969)">
        <path d="M238.005,243.542L174.943,243.542L174.943,366.979L238.005,366.979L238.005,243.542" style="fill:rgb(90,49,20);fill-rule:nonzero;"/>
    </g>
    <g transform="matrix(1,0,0,1,-107.375,-132.969)">
        <path d="M234.625,246.078L178.318,246.078L178.318,366.979L234.625,366.979L234.625,246.078" style="fill:rgb(80,43,17);fill-rule:nonzero;"/>
    </g>
    <g transform="matrix(1,0,0,1,-107.375,-132.969)">
        <path d="M234.625,246.078L178.318,246.078L178.318,366.979L234.625,246.078Z" style="fill:rgb(114,63,27);fill-rule:nonzero;"/>
    </g>
    <g transform="matrix(1,0,0,1,-107.375,-132.969)">
        <path d="M351.734,250.865L272.911,250.865L272.911,338.786L351.734,338.786L351.734,250.865" style="fill:rgb(90,49,20);fill-rule:nonzero;"/>
    </g>
    <g transform="matrix(1,0,0,1,-107.375,-132.969)">
        <path d="M351.734,250.865L272.911,250.865L272.911,338.786L351.734,250.865Z" style="fill:rgb(114,63,27);fill-rule:nonzero;"/>
    </g>
    <g transform="matrix(1,0,0,1,-107.375,-132.969)">
        <path d="M344.448,258.99L280.193,258.99L280.193,330.667L344.448,330.667L344.448,258.99" style="fill:rgb(103,187,196);fill-rule:nonzero;"/>
    </g>
    <g transform="matrix(1,0,0,1,-107.375,-132.969)">
        <path d="M342.167,261.547L282.479,261.547L282.479,328.12L342.167,328.12L342.167,261.547" style="fill:rgb(150,213,211);fill-rule:nonzero;"/>
    </g>
    <g transform="matrix(1,0,0,1,-107.375,-132.969)">
        <path d="M314.938,258.99L308.667,258.99L308.667,338.786L314.938,338.786L314.938,258.99" style="fill:rgb(90,49,20);fill-rule:nonzero;"/>
    </g>
    <g transform="matrix(1,0,0,1,-107.375,-132.969)">
        <path d="M344.448,300.828L344.448,294.698L279.911,294.698L279.911,300.828L344.448,300.828" style="fill:rgb(90,49,20);fill-rule:nonzero;"/>
    </g>
    <g transform="matrix(1,0,0,1,-107.375,-132.969)">
        <path d="M283.604,263.839C283.604,263.839 283.964,264.042 284.557,264.438C285.156,264.833 285.99,265.411 286.953,266.146C287.927,266.87 289.021,267.76 290.172,268.734C291.318,269.714 292.51,270.792 293.677,271.901C294.833,273.01 295.969,274.151 297,275.25C298.026,276.359 298.964,277.406 299.734,278.349C300.51,279.276 301.125,280.089 301.547,280.667C301.969,281.245 302.188,281.594 302.188,281.594C302.188,281.594 301.833,281.385 301.234,280.995C300.641,280.599 299.802,280.021 298.839,279.286C297.865,278.563 296.771,277.672 295.62,276.698C294.474,275.719 293.286,274.635 292.12,273.526C290.964,272.422 289.833,271.276 288.797,270.177C287.776,269.068 286.833,268.016 286.068,267.073C285.286,266.146 284.672,265.333 284.25,264.76C283.828,264.182 283.604,263.839 283.604,263.839" style="fill:white;fill-rule:nonzero;"/>
    </g>
    <g transform="matrix(1,0,0,1,-107.375,-132.969)">
        <path d="M285.193,272.714C285.193,272.714 285.474,272.875 285.948,273.188C286.411,273.5 287.078,273.958 287.833,274.536C288.604,275.109 289.464,275.813 290.375,276.578C291.281,277.354 292.219,278.203 293.135,279.078C294.974,280.823 296.698,282.693 297.917,284.172C299.146,285.641 299.854,286.729 299.854,286.729C299.854,286.729 298.734,286.068 297.214,284.906C295.682,283.76 293.74,282.125 291.911,280.37C290.995,279.49 290.104,278.589 289.292,277.719C288.484,276.844 287.74,276.016 287.135,275.271C286.521,274.542 286.031,273.901 285.703,273.443C285.37,272.99 285.193,272.714 285.193,272.714" style="fill:white;fill-rule:nonzero;"/>
    </g>
    <g transform="matrix(1,0,0,1,-107.375,-132.969)">
        <path d="M320.422,263.839C320.422,263.839 320.776,264.042 321.375,264.438C321.969,264.833 322.807,265.411 323.771,266.146C324.745,266.87 325.833,267.76 326.99,268.734C328.135,269.714 329.323,270.792 330.49,271.901C331.651,273.01 332.781,274.151 333.813,275.25C334.833,276.359 335.776,277.406 336.547,278.349C337.323,279.276 337.938,280.089 338.359,280.667C338.776,281.245 339,281.594 339,281.594C339,281.594 338.646,281.385 338.047,280.995C337.453,280.599 336.615,280.021 335.651,279.286C334.677,278.563 333.589,277.672 332.432,276.698C331.286,275.719 330.099,274.635 328.938,273.526C327.776,272.417 326.641,271.276 325.615,270.177C324.589,269.068 323.651,268.016 322.88,267.073C322.099,266.146 321.484,265.333 321.068,264.76C320.641,264.182 320.422,263.839 320.422,263.839" style="fill:white;fill-rule:nonzero;"/>
    </g>
    <g transform="matrix(1,0,0,1,-107.375,-132.969)">
        <path d="M322.01,272.714C322.01,272.714 322.286,272.875 322.76,273.188C323.229,273.5 323.891,273.958 324.646,274.536C325.417,275.109 326.281,275.813 327.188,276.578C328.094,277.354 329.036,278.203 329.953,279.078C331.786,280.823 333.51,282.693 334.729,284.172C335.953,285.641 336.667,286.729 336.667,286.729C336.667,286.729 335.547,286.068 334.026,284.906C332.495,283.76 330.552,282.125 328.724,280.37C327.807,279.49 326.917,278.589 326.104,277.719C325.297,276.844 324.552,276.016 323.948,275.271C323.333,274.542 322.849,273.901 322.516,273.443C322.182,272.99 322.01,272.714 322.01,272.714" style="fill:white;fill-rule:nonzero;"/>
    </g>
    <g transform="matrix(1,0,0,1,-107.375,-132.969)">
        <path d="M283.234,300.828C283.234,300.828 283.594,301.031 284.188,301.432C284.781,301.823 285.62,302.401 286.583,303.141C287.557,303.865 288.651,304.755 289.802,305.724C290.948,306.708 292.141,307.786 293.302,308.896C294.464,310.005 295.594,311.146 296.625,312.245C297.651,313.354 298.589,314.406 299.359,315.344C300.141,316.271 300.75,317.089 301.172,317.667C301.594,318.24 301.818,318.589 301.818,318.589C301.818,318.589 301.453,318.385 300.859,317.99C300.266,317.594 299.427,317.021 298.464,316.281C297.495,315.557 296.396,314.667 295.245,313.693C294.099,312.708 292.911,311.63 291.745,310.521C290.589,309.411 289.458,308.271 288.427,307.172C287.401,306.063 286.464,305.01 285.693,304.068C284.917,303.141 284.302,302.328 283.88,301.75C283.458,301.177 283.234,300.828 283.234,300.828" style="fill:white;fill-rule:nonzero;"/>
    </g>
    <g transform="matrix(1,0,0,1,-107.375,-132.969)">
        <path d="M284.823,309.708C284.823,309.708 285.104,309.875 285.573,310.182C286.042,310.495 286.703,310.953 287.464,311.531C288.229,312.104 289.094,312.807 290,313.573C290.906,314.349 291.844,315.198 292.766,316.073C294.604,317.818 296.323,319.688 297.542,321.161C298.766,322.63 299.479,323.719 299.479,323.719C299.479,323.719 298.359,323.057 296.839,321.901C295.313,320.75 293.365,319.115 291.536,317.359C290.625,316.484 289.729,315.578 288.917,314.714C288.109,313.839 287.37,313.005 286.766,312.271C286.151,311.536 285.661,310.896 285.333,310.443C285,309.99 284.823,309.708 284.823,309.708" style="fill:white;fill-rule:nonzero;"/>
    </g>
    <g transform="matrix(1,0,0,1,-107.375,-132.969)">
        <path d="M320.422,302.724C320.422,302.724 320.776,302.927 321.375,303.323C321.969,303.719 322.807,304.297 323.771,305.031C324.745,305.76 325.833,306.646 326.99,307.62C328.135,308.599 329.323,309.682 330.49,310.792C331.651,311.901 332.781,313.042 333.813,314.141C334.833,315.25 335.776,316.302 336.547,317.245C337.323,318.172 337.938,318.984 338.359,319.563C338.776,320.135 339,320.484 339,320.484C339,320.484 338.646,320.281 338.047,319.88C337.453,319.49 336.615,318.917 335.651,318.177C334.677,317.453 333.589,316.563 332.432,315.589C331.286,314.604 330.099,313.526 328.938,312.417C327.776,311.307 326.641,310.167 325.615,309.068C324.589,307.958 323.651,306.906 322.88,305.964C322.099,305.036 321.484,304.224 321.068,303.646C320.641,303.073 320.422,302.724 320.422,302.724" style="fill:white;fill-rule:nonzero;"/>
    </g>
    <g transform="matrix(1,0,0,1,-107.375,-132.969)">
        <path d="M322.01,311.604C322.01,311.604 322.286,311.766 322.76,312.078C323.229,312.391 323.891,312.844 324.646,313.422C325.417,313.995 326.281,314.698 327.188,315.469C328.094,316.24 329.036,317.089 329.953,317.964C331.786,319.714 333.51,321.583 334.729,323.057C335.953,324.526 336.667,325.615 336.667,325.615C336.667,325.615 335.547,324.953 334.026,323.797C332.495,322.646 330.552,321.01 328.724,319.255C327.807,318.375 326.917,317.474 326.104,316.604C325.297,315.729 324.552,314.901 323.948,314.156C323.333,313.427 322.849,312.786 322.516,312.328C322.182,311.875 322.01,311.604 322.01,311.604" style="fill:white;fill-rule:nonzero;"/>
    </g>
    <g transform="matrix(1,0,0,1,-107.375,-132.969)">
        <path d="M252.078,214.224L228.995,214.224L228.995,204.641L252.078,204.641L252.078,214.224" style="fill:rgb(215,217,192);fill-rule:nonzero;"/>
    </g>
    <g transform="matrix(1,0,0,1,-107.375,-132.969)">
        <path d="M270.656,220.146L248.135,220.146L248.135,209.432L270.656,209.432L270.656,220.146" style="fill:rgb(215,217,192);fill-rule:nonzero;"/>
    </g>
    <g transform="matrix(1,0,0,1,-107.375,-132.969)">
        <path d="M228.609,258.99L228.609,257.865L183.208,257.865L183.208,301.953L229.734,301.953L229.734,257.865L228.609,257.865L228.609,258.99L227.479,258.99L227.479,299.698L185.458,299.698L185.458,260.12L228.609,260.12L228.609,258.99L227.479,258.99L228.609,258.99" style="fill:rgb(70,37,15);fill-rule:nonzero;"/>
    </g>
    <g transform="matrix(1,0,0,1,-107.375,-132.969)">
        <path d="M228.609,313.109L228.609,311.984L183.208,311.984L183.208,356.078L229.734,356.078L229.734,311.984L228.609,311.984L228.609,313.109L227.479,313.109L227.479,353.823L185.458,353.823L185.458,314.24L228.609,314.24L228.609,313.109L227.479,313.109L228.609,313.109" style="fill:rgb(70,37,15);fill-rule:nonzero;"/>
    </g>
    <g transform="matrix(1,0,0,1,-107.375,-132.969)">
        <path d="M233.958,303.255C233.958,305.667 232.005,307.62 229.594,307.62C227.193,307.62 225.24,305.667 225.24,303.255C225.24,300.844 227.193,298.896 229.594,298.896C232.005,298.896 233.958,300.844 233.958,303.255" style="fill:rgb(246,135,18);fill-rule:nonzero;"/>
    </g>
    <g transform="matrix(1,0,0,1,-107.375,-132.969)">
        <path d="M231.62,313.068C231.62,313.896 230.943,314.573 230.115,314.573C229.281,314.573 228.609,313.896 228.609,313.068L228.609,303.302C228.609,302.469 229.281,301.797 230.115,301.797C230.943,301.797 231.62,302.469 231.62,303.302L231.62,313.068" style="fill:rgb(249,167,13);fill-rule:nonzero;"/>
    </g>
    <g transform="matrix(1,0,0,1,-107.375,-132.969)">
        <path d="M308.406,180.76L335.609,204.641L335.609,156.88L308.927,156.88L308.406,180.76" style="fill:rgb(241,70,36);fill-rule:nonzero;"/>
    </g>
</svg>
