<?xml version="1.0" encoding="UTF-8" standalone="no"?>
<!DOCTYPE svg PUBLIC "-//W3C//DTD SVG 1.1//EN" "http://www.w3.org/Graphics/SVG/1.1/DTD/svg11.dtd">
<svg width="100%" height="100%" viewBox="0 0 226 159" version="1.1" xmlns="http://www.w3.org/2000/svg" xmlns:xlink="http://www.w3.org/1999/xlink" xml:space="preserve" xmlns:serif="http://www.serif.com/" style="fill-rule:evenodd;clip-rule:evenodd;stroke-miterlimit:10;">
    <g transform="matrix(1,0,0,1,-138.803,-172.883)">
        <path d="M250,331.813L169.979,255.698C150.734,237.385 150.01,206.974 168.365,187.771C186.708,168.573 217.177,167.844 236.432,186.151L250,199.057L263.568,186.151C282.813,167.844 313.292,168.573 331.635,187.771C349.99,206.974 349.266,237.385 330.021,255.698L250,331.813" style="fill:rgb(239,49,93);fill-rule:nonzero;"/>
    </g>
    <g transform="matrix(1,0,0,1,-138.803,-172.883)">
        <path d="M175.578,266.865L211.167,266.865L231.578,221.958L253.031,282.005L276.583,238.667L290.719,263.729L327.349,263.729" style="fill:rgb(239,49,93);fill-rule:nonzero;"/>
    </g>
    <g transform="matrix(0.0717703,0,0,-0.0716134,-92.2476,282.466)">
        <path d="M1797.72,2631.97L2293.59,2631.97L2577.99,3259.03L2876.9,2420.55L3205.06,3025.72L3402.01,2675.75L3912.4,2675.75" style="fill:none;fill-rule:nonzero;stroke:white;stroke-width:102.08px;"/>
    </g>
</svg>
