<svg xmlns="http://www.w3.org/2000/svg" xmlns:xlink="http://www.w3.org/1999/xlink" width="500" zoomAndPan="magnify" viewBox="0 0 375 374.999991" height="500" preserveAspectRatio="xMidYMid meet" version="1.0"><defs><clipPath id="b63ef0b1a2"><path d="M 129 97.148438 L 246.203125 97.148438 L 246.203125 247.148438 L 129 247.148438 Z M 129 97.148438 " clip-rule="nonzero"/></clipPath></defs><rect x="-37.5" width="450" fill="#ffffff" y="-37.499999" height="449.999989" fill-opacity="1"/><rect x="-37.5" width="450" fill="#ffffff" y="-37.499999" height="449.999989" fill-opacity="1"/><g clip-path="url(#b63ef0b1a2)"><path fill="#ffe7c9" d="M 168.113281 147.058594 L 153.921875 160.960938 C 153.921875 160.960938 141.398438 178.414062 138.78125 181.695312 C 136.164062 184.976562 128.488281 204.160156 129.144531 208.097656 C 130.511719 215.941406 129.292969 228.054688 136.96875 235.421875 C 144.640625 242.792969 171.207031 247.148438 171.207031 247.148438 L 213.625 245.386719 C 213.625 245.386719 235.667969 239.183594 237.1875 237.214844 C 238.703125 235.246094 246.167969 221.820312 246.109375 214.628906 C 245.304688 208.304688 235.964844 185.183594 233.257812 182.886719 C 230.550781 180.589844 215.796875 159.648438 215.796875 159.648438 L 202.859375 144.910156 L 201.667969 140.914062 C 201.667969 140.914062 201.28125 138.707031 201.460938 137.929688 C 201.636719 137.152344 205.179688 131.484375 205.179688 131.484375 L 214.488281 122 C 214.488281 122 218.832031 114.003906 220.675781 109.765625 C 222.3125 106.007812 223.859375 102.367188 223.800781 101.980469 C 223.738281 101.59375 220.824219 102.128906 218.863281 101.710938 C 215.230469 100.964844 211.1875 99.355469 208.746094 99.355469 C 205 99.355469 199.289062 106.84375 195.511719 106.992188 C 194.410156 106.128906 191.792969 99.355469 189.886719 98.25 C 187.984375 97.148438 179.417969 99.386719 179.417969 99.386719 L 176.949219 105.769531 L 169.125 108.394531 C 169.125 108.394531 165.972656 107.738281 164.898438 107.589844 C 163.828125 107.441406 154.25 100.726562 154.25 100.726562 C 154.25 100.726562 149.730469 99.148438 148.242188 98.25 C 146.726562 97.355469 149.90625 108.246094 149.90625 108.246094 L 159.011719 126.800781 L 171.5625 138.675781 L 171.238281 141.808594 Z M 168.113281 147.058594 " fill-opacity="1" fill-rule="nonzero"/></g><path fill="#01887c" d="M 206.785156 200.90625 C 205.148438 199.59375 195.125 193.121094 193.277344 192.226562 L 193.277344 189.210938 L 193.605469 178.054688 C 196.730469 179.039062 201.25 180.949219 201.25 180.949219 L 201.222656 180.917969 L 203.660156 174.117188 L 197.800781 169.3125 L 194.082031 168.71875 L 194.527344 161.824219 L 188.847656 160.632812 L 189.175781 167.941406 L 186.554688 167.523438 L 184.207031 168.121094 L 184.921875 159.648438 L 179.863281 159.648438 L 179.863281 169.195312 L 172.1875 171.132812 C 172.1875 171.132812 168.113281 176.863281 167.933594 179.636719 C 167.757812 182.410156 168.410156 192.554688 174.449219 194.375 C 175.90625 194.820312 177.484375 195.207031 179.058594 195.597656 L 178.554688 203.832031 L 178.136719 214.628906 C 174.152344 213.046875 169.691406 211.230469 169.390625 211.050781 C 168.886719 210.722656 167.429688 209.917969 166.953125 210.066406 C 166.476562 210.214844 161.71875 217.136719 161.71875 217.136719 L 175.429688 222.507812 C 175.429688 222.507812 176.441406 222.921875 177.78125 223.429688 L 177.421875 232.46875 L 183.136719 231.664062 L 183.136719 225.398438 C 183.761719 225.609375 184.296875 225.757812 184.5625 225.789062 C 185.007812 225.847656 186.46875 225.546875 188.371094 225.132812 L 187.953125 232.46875 L 192.328125 233.066406 L 192.328125 224.117188 C 195.925781 223.164062 199.585938 222.089844 200.566406 221.699219 C 202.53125 220.894531 209.699219 215.496094 209.878906 211.707031 C 210.054688 207.917969 208.421875 202.21875 206.785156 200.90625 Z M 189.589844 177.457031 L 189.917969 184.648438 L 189.769531 191.210938 C 187.714844 190.675781 185.15625 190.019531 183.136719 189.300781 L 183.136719 184.886719 L 183.523438 178.292969 C 185.542969 177.933594 187.804688 177.546875 189.589844 177.457031 Z M 176.441406 183.632812 C 176.027344 181.246094 178.226562 178.652344 179.863281 178.652344 L 179.863281 182.410156 L 179.566406 187.152344 C 178.671875 186.289062 176.679688 185.066406 176.441406 183.632812 Z M 184.414062 217.105469 C 184.265625 217.046875 183.789062 216.867188 183.136719 216.628906 L 183.136719 196.460938 C 186.347656 197.089844 188.816406 197.476562 188.816406 197.476562 C 188.816406 197.476562 189.113281 197.625 189.589844 197.863281 L 189.382812 206.902344 L 188.847656 216.507812 C 186.644531 216.957031 184.832031 217.253906 184.414062 217.105469 Z M 197.472656 214.332031 C 196.550781 214.691406 194.765625 215.167969 192.773438 215.644531 L 193.277344 208.214844 L 193.277344 199.890625 C 196.757812 201.949219 200.984375 204.90625 200.894531 207.140625 C 200.746094 210.902344 200.089844 213.347656 197.472656 214.332031 Z M 197.472656 214.332031 " fill-opacity="1" fill-rule="nonzero"/><path fill="#df961a" d="M 216.480469 158.484375 C 215.558594 157.621094 213.269531 153.742188 213.269531 153.742188 L 209.878906 146.34375 L 205.535156 142.492188 L 209.9375 143.628906 L 211.453125 140.824219 L 211.453125 139.691406 L 208.746094 138.675781 L 208.570312 138.734375 L 211.1875 137.632812 L 210.769531 133.605469 L 208.984375 132.261719 L 205 134.738281 L 202.113281 138.199219 L 201.488281 137.960938 L 189.234375 139.539062 L 176.292969 138.617188 L 170.523438 138.617188 L 169.273438 144.046875 L 172.484375 144.046875 L 180.605469 143.359375 L 186.792969 144.703125 L 196.371094 145.03125 L 202.621094 143.597656 L 207.410156 149.324219 L 209.402344 155.351562 C 209.402344 155.351562 211.988281 159.410156 212.289062 160.066406 C 212.585938 160.691406 216.480469 164.183594 216.480469 164.183594 C 216.480469 164.183594 221.804688 164.867188 222.042969 164.480469 C 222.28125 164.09375 217.402344 159.347656 216.480469 158.484375 Z M 216.480469 158.484375 " fill-opacity="1" fill-rule="nonzero"/></svg>