<?xml version="1.0" encoding="UTF-8" standalone="no"?>
<!DOCTYPE svg PUBLIC "-//W3C//DTD SVG 1.1//EN" "http://www.w3.org/Graphics/SVG/1.1/DTD/svg11.dtd">
<svg width="100%" height="100%" viewBox="0 0 319 460" version="1.1" xmlns="http://www.w3.org/2000/svg" xmlns:xlink="http://www.w3.org/1999/xlink" xml:space="preserve" xmlns:serif="http://www.serif.com/" style="fill-rule:evenodd;clip-rule:evenodd;stroke-linejoin:round;stroke-miterlimit:2;">
    <g transform="matrix(1,0,0,1,-90.9346,-21.9544)">
        <path d="M407.198,240.88C402.141,231.818 389.479,227.427 380.542,232.599C385.375,221.87 382.151,208.083 373.099,200.578C364.047,193.021 349.891,192.464 340.224,199.193C341.891,198.026 335.896,188.13 335.063,186.964C332.724,183.781 329.771,181.052 326.438,178.906C336.026,179.313 345.734,177.214 353.776,172.01C362.438,166.396 368.823,156.891 370.099,146.661C370.323,145.104 370.38,143.547 370.323,141.938C370.266,140.88 370.156,139.823 369.99,138.771C368.38,127.984 360.328,118.146 349.776,115.703C362.495,110.589 367.047,94.578 366.271,80.849C365.714,71.786 363.104,62.063 355.943,56.5C346,48.833 331.786,51.943 319.677,55.448C323.01,41.995 309.63,27.375 295.969,29.542C292.635,30.099 289.635,31.323 286.917,33.099C280.198,23.094 265.646,19.26 254.266,23.927C241.938,28.875 233.938,41.828 232.495,55.057C224.667,46.443 211.672,43.604 200.62,46.995C196.901,48.109 193.458,50 190.458,52.557C178.688,62.729 176.964,82.516 186.849,94.578C183.297,94.802 179.797,95.859 176.688,97.526C168.859,101.693 163.026,109.807 162.359,118.703C161.703,127.396 166.078,136.01 172.906,141.37C171.063,144.359 169.458,147.505 168.135,150.667C153.141,142.161 132.927,143.161 119.88,154.391C111.604,161.505 107.109,172.677 107.495,183.458C107.661,189.688 109.438,195.802 112.995,200.911C108.885,203.083 105.109,206.026 101.943,209.474C93.724,218.313 89.281,230.542 91.505,242.323C94.615,258.667 112.052,271.563 128.266,267.729C126.875,277.677 125.708,288.74 131.599,296.911C135.594,302.526 142.26,305.583 148.979,307.083C162.583,310.198 177.464,307.417 189.073,299.635C189.74,304.469 194.349,308.026 199.12,308.807C203.953,309.641 208.839,308.141 213.229,306.083C223.052,301.438 230.891,293.474 236.193,284.042C237.297,288.693 238.984,293.203 241.323,297.411C245.432,304.75 251.323,311.25 258.927,314.807C266.536,318.313 275.979,318.422 283.031,313.865C283.531,326.203 295.635,336.375 307.964,336.208C320.344,336.042 331.563,326.651 335.448,314.922C337.839,320.703 344.833,323.536 351,322.703C357.219,321.813 362.604,318.031 367.104,313.75C373.766,307.359 379.042,297.578 378.318,288.906C378.042,285.682 376.932,282.625 374.766,279.901C385.094,280.677 395.979,277.286 402.974,269.672C406.974,265.281 409.417,259.391 409.859,253.552C410.141,249.104 409.307,244.714 407.198,240.88Z" style="fill:rgb(145,188,94);fill-rule:nonzero;"/>
    </g>
    <g transform="matrix(1,0,0,1,-90.9346,-21.9544)">
        <path d="M162.359,118.703C163.026,109.807 168.859,101.693 176.688,97.526C182.849,115.479 197.844,129.818 214.281,139.938C242.49,157.224 276.641,164.615 309.516,160.505C330.953,157.833 351.719,150.333 369.99,138.771C370.156,139.823 370.266,140.88 370.323,141.938C370.38,143.547 370.323,145.104 370.104,146.661C368.823,156.891 362.438,166.396 353.776,172.01C343.724,178.51 331.063,180.234 319.292,178.177C317.625,177.901 315.849,177.568 314.292,178.234C312.792,178.958 311.906,180.516 311.016,181.958C304.906,191.964 294.026,198.969 282.417,200.411C270.755,201.917 258.542,197.802 250.099,189.63C248.932,188.464 247.766,187.24 246.214,186.74C243.88,185.964 241.38,187.13 239.161,188.13C225.057,194.411 207.786,194.964 194.844,186.573C181.906,178.125 175.464,159.724 182.906,146.271C170.693,143.604 161.417,131.151 162.359,118.703ZM345.224,292.964C321.177,293.797 296.745,289.849 274.922,279.734C269.313,277.12 263.87,274.12 259.151,270.12C250.708,263.057 245.156,253.219 240.438,243.214C240.271,243.547 240.161,243.938 239.995,244.271C237.771,249.776 236.052,255.833 235.219,261.724C235.141,262.25 235.115,262.781 235.052,263.307C209.969,269.161 183.443,269.052 158.474,262.505C153.365,261.167 148.313,259.557 143.479,257.443C131.984,252.385 122.047,244.104 114.604,234.042C111.552,229.875 107.328,218.589 101.943,209.474C93.724,218.313 89.281,230.542 91.505,242.323C94.615,258.667 112.052,271.563 128.266,267.729C126.875,277.677 125.708,288.74 131.599,296.911C135.594,302.526 142.26,305.583 148.979,307.083C162.583,310.198 177.464,307.417 189.073,299.635C189.74,304.469 194.349,308.026 199.12,308.807C203.953,309.641 208.839,308.141 213.229,306.083C223.052,301.438 230.891,293.474 236.193,284.042C237.297,288.693 238.984,293.203 241.328,297.411C245.432,304.75 251.323,311.25 258.927,314.807C266.536,318.313 275.979,318.422 283.031,313.865C283.531,326.203 295.635,336.375 307.964,336.208C320.344,336.042 331.563,326.651 335.448,314.922C337.839,320.703 344.833,323.536 351,322.703C357.219,321.813 362.604,318.031 367.104,313.75C373.766,307.359 379.042,297.578 378.318,288.906C367.438,291.182 356.385,292.573 345.224,292.964Z" style="fill:rgb(120,155,69);fill-rule:nonzero;"/>
    </g>
    <g transform="matrix(1,0,0,1,-90.9346,-21.9544)">
        <path d="M311.859,259.083C302.698,266.474 295.089,275.536 287.536,284.542C280.984,292.323 274.432,300.161 267.88,307.943C264.49,312 262.328,314.276 262.161,319.615L262.161,321.448C262.047,326.063 261.995,330.729 261.995,335.401C261.828,356.469 262.047,377.536 262.271,398.604C262.604,425.396 262.938,452.13 263.271,478.922C250.276,478.089 237.224,478.813 224.286,480.979C223.563,480.979 228.453,379.37 229.063,369.531C230.453,347.521 232.563,325.453 233.781,303.385C234.448,292.38 234.839,281.318 234.839,270.313C234.781,264.474 234.781,258.583 234.063,252.802C233.396,247.74 232.281,242.797 231.12,237.849C229.339,229.953 227.505,222.005 224.786,214.391C221.953,206.385 218.177,198.771 214.068,191.38C211.792,187.323 207.682,178.536 213.349,175.094C219.568,181.094 224.786,188.099 228.786,195.714C230.563,199.104 232.672,202.161 234.448,205.552C235.724,208 240,213.891 240,216.724C241.115,200.495 242.167,184.266 243.057,167.979C243.557,158.474 243.724,82.651 251.443,86.432C254.885,88.099 255.552,122.786 256.052,128.953C257.495,146.411 258.938,163.865 260.38,181.318C262.047,200.885 263.656,220.448 263.99,240.24C264.214,254.359 263.771,268.531 263.271,282.651C263.38,282.542 263.49,282.427 263.656,282.318C278.208,270.422 295.146,260.859 311.469,251.578C311.583,254.078 311.75,256.578 311.859,259.083Z" style="fill:rgb(164,112,82);fill-rule:nonzero;"/>
    </g>
</svg>
