<?xml version="1.0" encoding="UTF-8" standalone="no"?>
<!DOCTYPE svg PUBLIC "-//W3C//DTD SVG 1.1//EN" "http://www.w3.org/Graphics/SVG/1.1/DTD/svg11.dtd">
<svg width="100%" height="100%" viewBox="0 0 336 302" version="1.1" xmlns="http://www.w3.org/2000/svg" xmlns:xlink="http://www.w3.org/1999/xlink" xml:space="preserve" xmlns:serif="http://www.serif.com/" style="fill-rule:evenodd;clip-rule:evenodd;stroke-linejoin:round;stroke-miterlimit:2;">
    <g transform="matrix(1.67762,0,0,1.67762,-241.621,-268.227)">
        <g>
            <g>
                <clipPath id="_clip1">
                    <path d="M341.62,262.318L326.615,189.5C321.438,166.563 307.141,162.917 302.063,162.349L253.146,160.115C244.432,159.885 236.906,161.646 231.802,163.333L224.781,166.188L156.932,193.781C152.141,196.448 144.026,204.104 149.307,224.349L171.818,303.531C173.865,308.708 179.76,318.286 196.276,324.156L227.849,334.609L230.286,335.417C236.214,337.083 252.318,339.891 271.625,329.026L324.453,299.307C344,288.307 342.714,268.932 341.62,262.318Z"/>
                </clipPath>
                <g clip-path="url(#_clip1)">
                    <rect x="144.026" y="159.885" width="199.974" height="179.99" style="fill:url(#_Linear2);fill-rule:nonzero;"/>
                </g>
            </g>
            <g>
                <clipPath id="_clip3">
                    <path d="M334.964,267.266L320.339,196.281C316.719,178.745 307.193,180.271 303.677,181.495L302.354,182.057L236.786,209.885L234.396,210.906C230.755,212.922 224.635,218.5 228.396,232.359L250.057,312.193L250.135,312.479C250.771,314.651 255.594,328.25 274.443,317.651L320.208,291.901C334.62,283.328 335.531,272.505 334.964,267.266Z"/>
                </clipPath>
                <g clip-path="url(#_clip3)">
                    <rect x="224.635" y="178.745" width="110.896" height="149.505" style="fill:url(#_Linear4);fill-rule:nonzero;"/>
                </g>
            </g>
            <g>
                <clipPath id="_clip5">
                    <path d="M301.661,165.391L255.724,163.297C241.323,162.849 228.74,167.203 225.151,168.578L164.141,193.391C164.203,193.37 164.24,193.359 164.24,193.359C164.24,193.359 164.203,193.37 164.141,193.391L162.094,194.224C159.609,195.391 156.708,197.464 163.974,198.635L195.464,202.786C195.474,202.786 218.172,204.443 235.323,197.161L296.026,171.396C306.74,166.849 304.12,165.682 301.661,165.391Z"/>
                </clipPath>
                <g clip-path="url(#_clip5)">
                    <rect x="156.708" y="162.849" width="150.031" height="41.594" style="fill:url(#_Linear6);fill-rule:nonzero;"/>
                </g>
            </g>
            <g>
                <clipPath id="_clip7">
                    <path d="M231.536,327.401L232.823,327.828C235.385,328.495 240.635,328.833 238.031,319.224L216.109,238.427C211.255,220.536 200.036,217.333 196.854,216.776L196,216.661L157.036,211.526C154.849,211.495 151.401,212.542 153.563,220.146L175.74,298.151C177.38,302.651 181.87,310.953 193.333,314.755L231.536,327.401Z"/>
                </clipPath>
                <g clip-path="url(#_clip7)">
                    <rect x="151.401" y="211.495" width="89.234" height="117.339" style="fill:url(#_Linear8);fill-rule:nonzero;"/>
                </g>
            </g>
            <path d="M205.547,186.682C205.99,188.229 201.036,190.995 194.49,192.859C187.938,194.724 182.271,194.984 181.828,193.443C181.385,191.896 186.339,189.13 192.891,187.266C199.443,185.396 205.109,185.135 205.547,186.682Z" style="fill:white;fill-rule:nonzero;"/>
            <path d="M234.693,189.141C235.135,190.688 230.182,193.453 223.63,195.318C217.083,197.182 211.411,197.443 210.974,195.896C210.531,194.349 215.484,191.589 222.031,189.719C228.583,187.854 234.25,187.594 234.693,189.141Z" style="fill:white;fill-rule:nonzero;"/>
            <path d="M246.021,170.349C246.458,171.896 241.505,174.661 234.958,176.526C228.406,178.391 222.74,178.651 222.297,177.109C221.854,175.563 226.807,172.797 233.359,170.932C239.906,169.063 245.578,168.802 246.021,170.349Z" style="fill:white;fill-rule:nonzero;"/>
            <path d="M279.438,171.651C279.88,173.193 274.927,175.958 268.375,177.828C261.823,179.693 256.156,179.953 255.719,178.406C255.276,176.859 260.224,174.094 266.776,172.229C273.328,170.365 278.995,170.104 279.438,171.651Z" style="fill:white;fill-rule:nonzero;"/>
            <path d="M205.547,186.682C205.109,185.141 199.438,185.396 192.891,187.266C186.339,189.13 181.385,191.896 181.828,193.443C181.906,193.677 182.063,193.854 182.281,193.969C183.651,192.427 187.786,190.422 192.891,188.969C198.552,187.354 203.557,186.943 205.094,187.865C205.479,187.427 205.646,187.026 205.547,186.682Z" style="fill:rgb(214,214,214);fill-rule:nonzero;"/>
            <path d="M234.693,189.141C234.25,187.594 228.583,187.854 222.031,189.719C215.484,191.583 210.531,194.354 210.974,195.896C211.052,196.135 211.203,196.307 211.427,196.427C212.797,194.88 216.927,192.88 222.031,191.427C227.698,189.813 232.703,189.401 234.24,190.318C234.625,189.88 234.792,189.479 234.693,189.141Z" style="fill:rgb(214,214,214);fill-rule:nonzero;"/>
            <path d="M246.021,170.349C245.578,168.802 239.911,169.063 233.359,170.932C226.813,172.797 221.854,175.563 222.297,177.109C222.38,177.344 222.531,177.521 222.755,177.635C224.12,176.089 228.255,174.089 233.359,172.635C239.026,171.021 244.031,170.609 245.563,171.531C245.948,171.094 246.115,170.693 246.021,170.349Z" style="fill:rgb(214,214,214);fill-rule:nonzero;"/>
            <path d="M266.776,173.938C272.443,172.323 277.448,171.911 278.984,172.828C279.37,172.391 279.536,171.99 279.438,171.651C278.995,170.104 273.328,170.365 266.781,172.229C260.229,174.094 255.276,176.859 255.719,178.406C255.797,178.646 255.948,178.818 256.172,178.932C257.536,177.391 261.672,175.391 266.776,173.938Z" style="fill:rgb(214,214,214);fill-rule:nonzero;"/>
            <path d="M261.891,233.755C260.859,240.776 255.161,245.755 249.161,244.875C243.167,243.995 239.135,237.594 240.167,230.573C241.198,223.557 246.896,218.578 252.896,219.458C258.891,220.333 262.922,226.734 261.891,233.755Z" style="fill:white;fill-rule:nonzero;"/>
            <path d="M270.115,263.125C269.083,270.146 263.385,275.125 257.385,274.245C251.385,273.37 247.359,266.964 248.391,259.948C249.422,252.927 255.12,247.948 261.12,248.828C267.115,249.708 271.141,256.109 270.115,263.125Z" style="fill:white;fill-rule:nonzero;"/>
            <path d="M278.896,292.729C277.87,299.75 272.172,304.729 266.172,303.849C260.172,302.969 256.146,296.568 257.177,289.547C258.208,282.531 263.906,277.552 269.906,278.432C275.901,279.307 279.927,285.708 278.896,292.729Z" style="fill:white;fill-rule:nonzero;"/>
            <path d="M308.297,210.099C307.292,216.932 301.745,221.781 295.901,220.927C290.057,220.073 286.135,213.833 287.141,207C288.141,200.161 293.693,195.313 299.536,196.167C305.38,197.026 309.302,203.26 308.297,210.099Z" style="fill:white;fill-rule:nonzero;"/>
            <path d="M316.307,238.703C315.302,245.542 309.75,250.391 303.911,249.531C298.068,248.677 294.146,242.443 295.151,235.604C296.156,228.766 301.703,223.922 307.547,224.776C313.385,225.63 317.307,231.865 316.307,238.703Z" style="fill:white;fill-rule:nonzero;"/>
            <path d="M324.865,267.536C323.859,274.375 318.307,279.224 312.469,278.365C306.625,277.51 302.703,271.276 303.708,264.438C304.708,257.604 310.26,252.755 316.104,253.609C321.943,254.464 325.865,260.698 324.865,267.536Z" style="fill:white;fill-rule:nonzero;"/>
            <path d="M251.839,220.047C257.839,220.922 261.865,227.328 260.833,234.344C260.219,238.552 257.922,242.026 254.891,243.948C258.438,242.214 261.203,238.443 261.891,233.755C262.922,226.74 258.891,220.333 252.896,219.458C251.708,219.292 250.536,219.344 249.37,219.604C248.203,219.865 247.115,220.323 246.115,220.974C247.927,220.068 249.833,219.76 251.839,220.047Z" style="fill:rgb(183,183,183);fill-rule:nonzero;"/>
            <path d="M260.063,249.417C266.063,250.297 270.089,256.698 269.057,263.719C268.438,267.927 266.146,271.401 263.109,273.318C266.656,271.583 269.422,267.813 270.115,263.125C271.141,256.109 267.115,249.708 261.12,248.828C259.932,248.661 258.755,248.714 257.589,248.974C256.422,249.234 255.339,249.693 254.339,250.344C256.151,249.443 258.057,249.13 260.063,249.417Z" style="fill:rgb(183,183,183);fill-rule:nonzero;"/>
            <path d="M269.906,278.432C268.719,278.266 267.542,278.313 266.375,278.578C265.208,278.839 264.125,279.292 263.125,279.948C264.938,279.042 266.844,278.734 268.849,279.021C274.849,279.896 278.875,286.302 277.844,293.318C277.224,297.526 274.927,301 271.896,302.922C275.443,301.188 278.208,297.417 278.896,292.729C279.927,285.708 275.901,279.307 269.906,278.432Z" style="fill:rgb(183,183,183);fill-rule:nonzero;"/>
            <path d="M298.479,196.755C304.323,197.615 308.245,203.849 307.24,210.688C306.641,214.781 304.411,218.156 301.464,220.031C304.922,218.344 307.625,214.667 308.297,210.099C309.302,203.26 305.38,197.026 299.536,196.167C298.38,196.01 297.234,196.057 296.094,196.313C294.953,196.568 293.896,197.016 292.922,197.656C294.682,196.781 296.536,196.479 298.479,196.755Z" style="fill:rgb(183,183,183);fill-rule:nonzero;"/>
            <path d="M306.49,225.365C312.333,226.219 316.255,232.458 315.25,239.292C314.651,243.385 312.422,246.766 309.474,248.635C312.932,246.953 315.635,243.271 316.307,238.703C317.307,231.865 313.385,225.63 307.547,224.776C306.391,224.615 305.24,224.661 304.104,224.922C302.964,225.177 301.906,225.625 300.927,226.26C302.688,225.385 304.542,225.089 306.49,225.365Z" style="fill:rgb(183,183,183);fill-rule:nonzero;"/>
            <path d="M316.104,253.609C314.948,253.448 313.797,253.495 312.661,253.75C311.521,254.01 310.464,254.453 309.484,255.094C311.25,254.219 313.104,253.922 315.052,254.198C320.891,255.052 324.813,261.286 323.813,268.125C323.208,272.219 320.979,275.599 318.031,277.469C321.495,275.786 324.193,272.104 324.865,267.536C325.865,260.698 321.943,254.464 316.104,253.609Z" style="fill:rgb(183,183,183);fill-rule:nonzero;"/>
            <path d="M199.76,289.521C204.432,296.135 205.464,303.443 202.063,305.839C198.656,308.234 192.115,304.813 187.443,298.198C182.771,291.583 181.74,284.281 185.141,281.885C188.547,279.484 195.089,282.906 199.76,289.521Z" style="fill:rgb(244,244,244);fill-rule:nonzero;"/>
            <path d="M204.391,239.76C209.063,246.375 210.089,253.682 206.688,256.078C203.286,258.474 196.74,255.052 192.068,248.438C187.396,241.823 186.37,234.521 189.771,232.125C193.172,229.729 199.719,233.146 204.391,239.76Z" style="fill:rgb(244,244,244);fill-rule:nonzero;"/>
            <path d="M189.755,298.198C185.083,291.583 184.052,284.281 187.458,281.885C187.911,281.568 188.411,281.349 188.953,281.234C187.49,280.969 186.172,281.156 185.141,281.885C181.74,284.281 182.766,291.583 187.438,298.198C191.495,303.943 196.964,307.276 200.563,306.484C197.182,305.87 193.01,302.813 189.755,298.198Z" style="fill:rgb(188,188,188);fill-rule:nonzero;"/>
            <path d="M194.38,248.438C189.708,241.823 188.682,234.521 192.083,232.125C192.542,231.807 193.036,231.589 193.583,231.474C192.115,231.208 190.797,231.401 189.771,232.125C186.365,234.521 187.396,241.823 192.068,248.438C196.125,254.182 201.589,257.516 205.188,256.729C201.807,256.109 197.641,253.052 194.38,248.438Z" style="fill:rgb(188,188,188);fill-rule:nonzero;"/>
            <path d="M217.531,218.328C217.531,218.328 256.755,265.745 340.047,254.688L326.615,189.5C321.438,166.563 307.141,162.917 302.063,162.349L253.146,160.115C244.432,159.885 236.906,161.646 231.802,163.333L224.781,166.188L156.932,193.781C152.141,196.448 144.026,204.104 149.307,224.349L167.677,288.964C184.328,281.359 210.031,262.651 217.531,218.328Z" style="fill:white;fill-opacity:0.15;fill-rule:nonzero;"/>
        </g>
    </g>
    <defs>
        <linearGradient id="_Linear2" x1="0" y1="0" x2="1" y2="0" gradientUnits="userSpaceOnUse" gradientTransform="matrix(233.737,105.167,-105.167,233.737,130.68,189.463)"><stop offset="0" style="stop-color:rgb(8,101,185);stop-opacity:1"/><stop offset="0.16" style="stop-color:rgb(8,100,184);stop-opacity:1"/><stop offset="0.16" style="stop-color:rgb(8,100,183);stop-opacity:1"/><stop offset="0.17" style="stop-color:rgb(8,99,182);stop-opacity:1"/><stop offset="0.18" style="stop-color:rgb(8,97,179);stop-opacity:1"/><stop offset="0.18" style="stop-color:rgb(7,97,179);stop-opacity:1"/><stop offset="0.19" style="stop-color:rgb(7,96,178);stop-opacity:1"/><stop offset="0.19" style="stop-color:rgb(7,96,177);stop-opacity:1"/><stop offset="0.2" style="stop-color:rgb(7,94,175);stop-opacity:1"/><stop offset="0.21" style="stop-color:rgb(7,93,172);stop-opacity:1"/><stop offset="0.21" style="stop-color:rgb(6,92,172);stop-opacity:1"/><stop offset="0.22" style="stop-color:rgb(6,91,171);stop-opacity:1"/><stop offset="0.22" style="stop-color:rgb(6,91,170);stop-opacity:1"/><stop offset="0.23" style="stop-color:rgb(6,90,169);stop-opacity:1"/><stop offset="0.24" style="stop-color:rgb(6,88,165);stop-opacity:1"/><stop offset="0.25" style="stop-color:rgb(6,87,165);stop-opacity:1"/><stop offset="0.25" style="stop-color:rgb(5,87,164);stop-opacity:1"/><stop offset="0.27" style="stop-color:rgb(5,84,160);stop-opacity:1"/><stop offset="0.27" style="stop-color:rgb(5,84,159);stop-opacity:1"/><stop offset="0.27" style="stop-color:rgb(5,83,158);stop-opacity:1"/><stop offset="0.28" style="stop-color:rgb(5,82,158);stop-opacity:1"/><stop offset="0.28" style="stop-color:rgb(4,82,157);stop-opacity:1"/><stop offset="0.3" style="stop-color:rgb(4,79,153);stop-opacity:1"/><stop offset="0.3" style="stop-color:rgb(4,79,152);stop-opacity:1"/><stop offset="0.3" style="stop-color:rgb(4,78,151);stop-opacity:1"/><stop offset="0.31" style="stop-color:rgb(4,77,151);stop-opacity:1"/><stop offset="0.31" style="stop-color:rgb(3,77,150);stop-opacity:1"/><stop offset="0.33" style="stop-color:rgb(3,74,146);stop-opacity:1"/><stop offset="0.33" style="stop-color:rgb(3,74,145);stop-opacity:1"/><stop offset="0.34" style="stop-color:rgb(3,73,144);stop-opacity:1"/><stop offset="0.34" style="stop-color:rgb(2,72,143);stop-opacity:1"/><stop offset="0.37" style="stop-color:rgb(2,68,137);stop-opacity:1"/><stop offset="0.38" style="stop-color:rgb(1,67,136);stop-opacity:1"/><stop offset="0.38" style="stop-color:rgb(1,67,135);stop-opacity:1"/><stop offset="0.39" style="stop-color:rgb(1,65,133);stop-opacity:1"/><stop offset="0.4" style="stop-color:rgb(1,64,130);stop-opacity:1"/><stop offset="0.41" style="stop-color:rgb(1,62,129);stop-opacity:1"/><stop offset="0.41" style="stop-color:rgb(0,62,128);stop-opacity:1"/><stop offset="0.41" style="stop-color:rgb(0,61,127);stop-opacity:1"/><stop offset="0.43" style="stop-color:rgb(0,58,122);stop-opacity:1"/><stop offset="0.44" style="stop-color:rgb(0,58,122);stop-opacity:1"/><stop offset="0.46" style="stop-color:rgb(0,56,119);stop-opacity:1"/><stop offset="0.47" style="stop-color:rgb(0,55,119);stop-opacity:1"/><stop offset="0.52" style="stop-color:rgb(0,50,113);stop-opacity:1"/><stop offset="0.56" style="stop-color:rgb(0,46,108);stop-opacity:1"/><stop offset="0.57" style="stop-color:rgb(1,45,108);stop-opacity:1"/><stop offset="0.59" style="stop-color:rgb(1,45,106);stop-opacity:1"/><stop offset="0.59" style="stop-color:rgb(1,44,106);stop-opacity:1"/><stop offset="0.6" style="stop-color:rgb(1,44,105);stop-opacity:1"/><stop offset="0.61" style="stop-color:rgb(1,43,105);stop-opacity:1"/><stop offset="0.62" style="stop-color:rgb(1,43,104);stop-opacity:1"/><stop offset="0.63" style="stop-color:rgb(1,43,104);stop-opacity:1"/><stop offset="0.63" style="stop-color:rgb(1,42,103);stop-opacity:1"/><stop offset="0.64" style="stop-color:rgb(1,42,103);stop-opacity:1"/><stop offset="0.65" style="stop-color:rgb(1,41,102);stop-opacity:1"/><stop offset="0.66" style="stop-color:rgb(1,41,101);stop-opacity:1"/><stop offset="0.66" style="stop-color:rgb(1,41,101);stop-opacity:1"/><stop offset="0.69" style="stop-color:rgb(1,39,99);stop-opacity:1"/><stop offset="0.7" style="stop-color:rgb(1,39,99);stop-opacity:1"/><stop offset="0.7" style="stop-color:rgb(1,39,98);stop-opacity:1"/><stop offset="0.71" style="stop-color:rgb(1,38,98);stop-opacity:1"/><stop offset="0.71" style="stop-color:rgb(1,38,97);stop-opacity:1"/><stop offset="0.72" style="stop-color:rgb(2,38,97);stop-opacity:1"/><stop offset="1" style="stop-color:rgb(2,35,94);stop-opacity:1"/></linearGradient>
        <linearGradient id="_Linear4" x1="0" y1="0" x2="1" y2="0" gradientUnits="userSpaceOnUse" gradientTransform="matrix(148.6,75.5252,-75.5252,148.6,207.588,212.194)"><stop offset="0" style="stop-color:rgb(0,57,121);stop-opacity:1"/><stop offset="0.18" style="stop-color:rgb(0,57,122);stop-opacity:1"/><stop offset="0.19" style="stop-color:rgb(0,58,122);stop-opacity:1"/><stop offset="0.24" style="stop-color:rgb(0,62,127);stop-opacity:1"/><stop offset="0.25" style="stop-color:rgb(0,62,128);stop-opacity:1"/><stop offset="0.27" style="stop-color:rgb(1,63,130);stop-opacity:1"/><stop offset="0.27" style="stop-color:rgb(1,64,131);stop-opacity:1"/><stop offset="0.28" style="stop-color:rgb(1,64,131);stop-opacity:1"/><stop offset="0.3" style="stop-color:rgb(1,65,133);stop-opacity:1"/><stop offset="0.3" style="stop-color:rgb(1,66,134);stop-opacity:1"/><stop offset="0.31" style="stop-color:rgb(1,66,134);stop-opacity:1"/><stop offset="0.32" style="stop-color:rgb(1,67,135);stop-opacity:1"/><stop offset="0.33" style="stop-color:rgb(2,67,136);stop-opacity:1"/><stop offset="0.34" style="stop-color:rgb(2,68,137);stop-opacity:1"/><stop offset="0.34" style="stop-color:rgb(2,68,137);stop-opacity:1"/><stop offset="0.38" style="stop-color:rgb(2,71,141);stop-opacity:1"/><stop offset="0.41" style="stop-color:rgb(3,73,144);stop-opacity:1"/><stop offset="0.41" style="stop-color:rgb(3,73,144);stop-opacity:1"/><stop offset="0.42" style="stop-color:rgb(3,74,145);stop-opacity:1"/><stop offset="0.45" style="stop-color:rgb(3,75,148);stop-opacity:1"/><stop offset="0.45" style="stop-color:rgb(3,76,148);stop-opacity:1"/><stop offset="0.47" style="stop-color:rgb(3,77,150);stop-opacity:1"/><stop offset="0.48" style="stop-color:rgb(4,78,151);stop-opacity:1"/><stop offset="0.48" style="stop-color:rgb(4,78,151);stop-opacity:1"/><stop offset="0.49" style="stop-color:rgb(4,79,152);stop-opacity:1"/><stop offset="0.5" style="stop-color:rgb(4,79,153);stop-opacity:1"/><stop offset="0.52" style="stop-color:rgb(4,81,155);stop-opacity:1"/><stop offset="0.53" style="stop-color:rgb(4,81,156);stop-opacity:1"/><stop offset="0.54" style="stop-color:rgb(4,82,157);stop-opacity:1"/><stop offset="0.55" style="stop-color:rgb(5,82,158);stop-opacity:1"/><stop offset="0.55" style="stop-color:rgb(5,83,158);stop-opacity:1"/><stop offset="0.56" style="stop-color:rgb(5,83,159);stop-opacity:1"/><stop offset="0.58" style="stop-color:rgb(5,84,161);stop-opacity:1"/><stop offset="0.59" style="stop-color:rgb(5,86,162);stop-opacity:1"/><stop offset="0.61" style="stop-color:rgb(5,87,164);stop-opacity:1"/><stop offset="0.62" style="stop-color:rgb(6,87,165);stop-opacity:1"/><stop offset="0.63" style="stop-color:rgb(6,88,165);stop-opacity:1"/><stop offset="0.63" style="stop-color:rgb(6,88,166);stop-opacity:1"/><stop offset="0.65" style="stop-color:rgb(6,89,168);stop-opacity:1"/><stop offset="0.66" style="stop-color:rgb(6,90,168);stop-opacity:1"/><stop offset="0.66" style="stop-color:rgb(6,90,169);stop-opacity:1"/><stop offset="0.69" style="stop-color:rgb(6,92,172);stop-opacity:1"/><stop offset="0.7" style="stop-color:rgb(7,92,172);stop-opacity:1"/><stop offset="0.71" style="stop-color:rgb(7,94,174);stop-opacity:1"/><stop offset="0.72" style="stop-color:rgb(7,94,175);stop-opacity:1"/><stop offset="0.73" style="stop-color:rgb(7,95,175);stop-opacity:1"/><stop offset="0.73" style="stop-color:rgb(7,95,176);stop-opacity:1"/><stop offset="0.74" style="stop-color:rgb(7,96,177);stop-opacity:1"/><stop offset="0.75" style="stop-color:rgb(7,96,178);stop-opacity:1"/><stop offset="0.76" style="stop-color:rgb(7,97,178);stop-opacity:1"/><stop offset="0.77" style="stop-color:rgb(8,97,179);stop-opacity:1"/><stop offset="0.77" style="stop-color:rgb(8,98,180);stop-opacity:1"/><stop offset="0.78" style="stop-color:rgb(8,98,181);stop-opacity:1"/><stop offset="0.8" style="stop-color:rgb(8,100,183);stop-opacity:1"/><stop offset="0.81" style="stop-color:rgb(8,100,184);stop-opacity:1"/><stop offset="1" style="stop-color:rgb(8,101,185);stop-opacity:1"/></linearGradient>
        <linearGradient id="_Linear6" x1="0" y1="0" x2="1" y2="0" gradientUnits="userSpaceOnUse" gradientTransform="matrix(-152.719,25.5831,-25.5831,-152.719,307.927,169.93)"><stop offset="0" style="stop-color:rgb(8,98,180);stop-opacity:1"/><stop offset="0.03" style="stop-color:rgb(8,97,179);stop-opacity:1"/><stop offset="0.04" style="stop-color:rgb(7,97,178);stop-opacity:1"/><stop offset="0.05" style="stop-color:rgb(7,96,178);stop-opacity:1"/><stop offset="0.06" style="stop-color:rgb(7,96,177);stop-opacity:1"/><stop offset="0.08" style="stop-color:rgb(7,95,177);stop-opacity:1"/><stop offset="0.14" style="stop-color:rgb(7,93,173);stop-opacity:1"/><stop offset="0.16" style="stop-color:rgb(7,93,172);stop-opacity:1"/><stop offset="0.17" style="stop-color:rgb(6,92,172);stop-opacity:1"/><stop offset="0.19" style="stop-color:rgb(6,91,171);stop-opacity:1"/><stop offset="0.25" style="stop-color:rgb(6,89,167);stop-opacity:1"/><stop offset="0.3" style="stop-color:rgb(6,87,165);stop-opacity:1"/><stop offset="0.31" style="stop-color:rgb(5,87,164);stop-opacity:1"/><stop offset="0.33" style="stop-color:rgb(5,86,163);stop-opacity:1"/><stop offset="0.34" style="stop-color:rgb(5,86,162);stop-opacity:1"/><stop offset="0.38" style="stop-color:rgb(5,84,161);stop-opacity:1"/><stop offset="0.44" style="stop-color:rgb(5,82,157);stop-opacity:1"/><stop offset="0.45" style="stop-color:rgb(4,82,156);stop-opacity:1"/><stop offset="0.48" style="stop-color:rgb(4,80,155);stop-opacity:1"/><stop offset="0.55" style="stop-color:rgb(4,78,151);stop-opacity:1"/><stop offset="0.58" style="stop-color:rgb(3,77,150);stop-opacity:1"/><stop offset="0.59" style="stop-color:rgb(3,76,149);stop-opacity:1"/><stop offset="0.63" style="stop-color:rgb(3,75,147);stop-opacity:1"/><stop offset="0.64" style="stop-color:rgb(3,75,146);stop-opacity:1"/><stop offset="0.67" style="stop-color:rgb(3,73,145);stop-opacity:1"/><stop offset="0.7" style="stop-color:rgb(3,72,143);stop-opacity:1"/><stop offset="0.72" style="stop-color:rgb(2,72,142);stop-opacity:1"/><stop offset="0.73" style="stop-color:rgb(2,71,141);stop-opacity:1"/><stop offset="0.78" style="stop-color:rgb(2,69,139);stop-opacity:1"/><stop offset="0.84" style="stop-color:rgb(1,67,135);stop-opacity:1"/><stop offset="0.89" style="stop-color:rgb(1,65,133);stop-opacity:1"/><stop offset="0.92" style="stop-color:rgb(1,64,131);stop-opacity:1"/><stop offset="0.94" style="stop-color:rgb(1,64,130);stop-opacity:1"/><stop offset="0.95" style="stop-color:rgb(1,63,130);stop-opacity:1"/><stop offset="0.96" style="stop-color:rgb(1,62,129);stop-opacity:1"/><stop offset="1" style="stop-color:rgb(0,61,127);stop-opacity:1"/></linearGradient>
        <linearGradient id="_Linear8" x1="0" y1="0" x2="1" y2="0" gradientUnits="userSpaceOnUse" gradientTransform="matrix(101.511,105.564,-105.564,101.511,147.062,215.658)"><stop offset="0" style="stop-color:rgb(0,57,121);stop-opacity:1"/><stop offset="0.12" style="stop-color:rgb(0,58,122);stop-opacity:1"/><stop offset="0.13" style="stop-color:rgb(0,58,122);stop-opacity:1"/><stop offset="0.13" style="stop-color:rgb(0,58,123);stop-opacity:1"/><stop offset="0.14" style="stop-color:rgb(0,59,123);stop-opacity:1"/><stop offset="0.15" style="stop-color:rgb(0,59,124);stop-opacity:1"/><stop offset="0.16" style="stop-color:rgb(0,59,124);stop-opacity:1"/><stop offset="0.17" style="stop-color:rgb(0,60,126);stop-opacity:1"/><stop offset="0.18" style="stop-color:rgb(0,61,126);stop-opacity:1"/><stop offset="0.2" style="stop-color:rgb(0,61,127);stop-opacity:1"/><stop offset="0.23" style="stop-color:rgb(1,63,130);stop-opacity:1"/><stop offset="0.23" style="stop-color:rgb(1,63,130);stop-opacity:1"/><stop offset="0.24" style="stop-color:rgb(1,64,131);stop-opacity:1"/><stop offset="0.25" style="stop-color:rgb(1,64,131);stop-opacity:1"/><stop offset="0.27" style="stop-color:rgb(1,65,132);stop-opacity:1"/><stop offset="0.31" style="stop-color:rgb(2,67,136);stop-opacity:1"/><stop offset="0.34" style="stop-color:rgb(2,69,138);stop-opacity:1"/><stop offset="0.34" style="stop-color:rgb(2,69,138);stop-opacity:1"/><stop offset="0.35" style="stop-color:rgb(2,69,139);stop-opacity:1"/><stop offset="0.36" style="stop-color:rgb(2,70,139);stop-opacity:1"/><stop offset="0.39" style="stop-color:rgb(2,71,142);stop-opacity:1"/><stop offset="0.4" style="stop-color:rgb(2,72,142);stop-opacity:1"/><stop offset="0.41" style="stop-color:rgb(2,72,143);stop-opacity:1"/><stop offset="0.41" style="stop-color:rgb(3,73,143);stop-opacity:1"/><stop offset="0.42" style="stop-color:rgb(3,73,144);stop-opacity:1"/><stop offset="0.42" style="stop-color:rgb(3,73,144);stop-opacity:1"/><stop offset="0.43" style="stop-color:rgb(3,73,145);stop-opacity:1"/><stop offset="0.44" style="stop-color:rgb(3,74,145);stop-opacity:1"/><stop offset="0.45" style="stop-color:rgb(3,74,146);stop-opacity:1"/><stop offset="0.45" style="stop-color:rgb(3,75,146);stop-opacity:1"/><stop offset="0.46" style="stop-color:rgb(3,75,147);stop-opacity:1"/><stop offset="0.47" style="stop-color:rgb(3,75,147);stop-opacity:1"/><stop offset="0.48" style="stop-color:rgb(3,76,149);stop-opacity:1"/><stop offset="0.49" style="stop-color:rgb(3,77,149);stop-opacity:1"/><stop offset="0.5" style="stop-color:rgb(3,77,150);stop-opacity:1"/><stop offset="0.51" style="stop-color:rgb(4,77,150);stop-opacity:1"/><stop offset="0.55" style="stop-color:rgb(4,79,153);stop-opacity:1"/><stop offset="0.55" style="stop-color:rgb(4,80,154);stop-opacity:1"/><stop offset="0.56" style="stop-color:rgb(4,80,154);stop-opacity:1"/><stop offset="0.57" style="stop-color:rgb(4,80,155);stop-opacity:1"/><stop offset="0.58" style="stop-color:rgb(4,81,155);stop-opacity:1"/><stop offset="0.59" style="stop-color:rgb(4,81,156);stop-opacity:1"/><stop offset="0.6" style="stop-color:rgb(4,82,157);stop-opacity:1"/><stop offset="0.61" style="stop-color:rgb(5,82,158);stop-opacity:1"/><stop offset="0.62" style="stop-color:rgb(5,83,158);stop-opacity:1"/><stop offset="0.63" style="stop-color:rgb(5,83,159);stop-opacity:1"/><stop offset="0.64" style="stop-color:rgb(5,84,160);stop-opacity:1"/><stop offset="0.65" style="stop-color:rgb(5,84,161);stop-opacity:1"/><stop offset="0.66" style="stop-color:rgb(5,85,161);stop-opacity:1"/><stop offset="0.66" style="stop-color:rgb(5,85,162);stop-opacity:1"/><stop offset="0.67" style="stop-color:rgb(5,86,162);stop-opacity:1"/><stop offset="0.69" style="stop-color:rgb(5,86,164);stop-opacity:1"/><stop offset="0.7" style="stop-color:rgb(5,87,164);stop-opacity:1"/><stop offset="0.7" style="stop-color:rgb(6,87,165);stop-opacity:1"/><stop offset="0.71" style="stop-color:rgb(6,88,165);stop-opacity:1"/><stop offset="0.73" style="stop-color:rgb(6,88,166);stop-opacity:1"/><stop offset="0.74" style="stop-color:rgb(6,89,168);stop-opacity:1"/><stop offset="0.75" style="stop-color:rgb(6,90,168);stop-opacity:1"/><stop offset="0.77" style="stop-color:rgb(6,91,170);stop-opacity:1"/><stop offset="0.78" style="stop-color:rgb(6,91,170);stop-opacity:1"/><stop offset="0.79" style="stop-color:rgb(6,92,171);stop-opacity:1"/><stop offset="0.8" style="stop-color:rgb(6,92,172);stop-opacity:1"/><stop offset="0.8" style="stop-color:rgb(7,92,172);stop-opacity:1"/><stop offset="0.84" style="stop-color:rgb(7,94,175);stop-opacity:1"/><stop offset="0.87" style="stop-color:rgb(7,96,177);stop-opacity:1"/><stop offset="0.88" style="stop-color:rgb(7,96,177);stop-opacity:1"/><stop offset="0.88" style="stop-color:rgb(7,96,178);stop-opacity:1"/><stop offset="0.89" style="stop-color:rgb(7,97,178);stop-opacity:1"/><stop offset="0.9" style="stop-color:rgb(8,97,179);stop-opacity:1"/><stop offset="0.91" style="stop-color:rgb(8,98,180);stop-opacity:1"/><stop offset="0.92" style="stop-color:rgb(8,98,181);stop-opacity:1"/><stop offset="0.93" style="stop-color:rgb(8,99,181);stop-opacity:1"/><stop offset="0.95" style="stop-color:rgb(8,100,183);stop-opacity:1"/><stop offset="0.96" style="stop-color:rgb(8,100,184);stop-opacity:1"/><stop offset="0.97" style="stop-color:rgb(8,101,184);stop-opacity:1"/><stop offset="1" style="stop-color:rgb(8,101,185);stop-opacity:1"/></linearGradient>
    </defs>
</svg>
