<svg xmlns="http://www.w3.org/2000/svg" xmlns:xlink="http://www.w3.org/1999/xlink" width="500" zoomAndPan="magnify" viewBox="0 0 375 374.999991" height="500" preserveAspectRatio="xMidYMid meet" version="1.0"><defs><filter x="0%" y="0%" width="100%" height="100%" id="47d984b1f5"><feColorMatrix values="0 0 0 0 1 0 0 0 0 1 0 0 0 0 1 0 0 0 1 0" color-interpolation-filters="sRGB"/></filter><mask id="bacdc8d758"><g filter="url(#47d984b1f5)"><rect x="-37.5" width="450" fill="#000000" y="-37.499999" height="449.999989" fill-opacity="0.42"/></g></mask><clipPath id="18b55491e8"><path d="M 1 1 L 18 1 L 18 8.921875 L 1 8.921875 Z M 1 1 " clip-rule="nonzero"/></clipPath><clipPath id="9b0e2d5292"><path d="M 0.878906 0.761719 L 18.160156 0.761719 L 18.160156 8.921875 L 0.878906 8.921875 Z M 0.878906 0.761719 " clip-rule="nonzero"/></clipPath><clipPath id="b2a70c8339"><rect x="0" width="19" y="0" height="9"/></clipPath><mask id="2f49b0e82b"><g filter="url(#47d984b1f5)"><rect x="-37.5" width="450" fill="#000000" y="-37.499999" height="449.999989" fill-opacity="0.35"/></g></mask><clipPath id="65d1895578"><path d="M 0.359375 1 L 121 1 L 121 42.558594 L 0.359375 42.558594 Z M 0.359375 1 " clip-rule="nonzero"/></clipPath><clipPath id="ee046d2df4"><path d="M 0.359375 0.800781 L 121.078125 0.800781 L 121.078125 42.558594 L 0.359375 42.558594 Z M 0.359375 0.800781 " clip-rule="nonzero"/></clipPath><clipPath id="c91665d96c"><rect x="0" width="122" y="0" height="43"/></clipPath><clipPath id="15b659d3ee"><path d="M 119 210 L 260 210 L 260 257.261719 L 119 257.261719 Z M 119 210 " clip-rule="nonzero"/></clipPath><clipPath id="1be8d89c0a"><path d="M 118 209 L 261 209 L 261 257.261719 L 118 257.261719 Z M 118 209 " clip-rule="nonzero"/></clipPath><mask id="4d670660e1"><g filter="url(#47d984b1f5)"><rect x="-37.5" width="450" fill="#000000" y="-37.499999" height="449.999989" fill-opacity="0.19"/></g></mask><clipPath id="cd65d73b6e"><path d="M 1 1 L 97.761719 1 L 97.761719 38 L 1 38 Z M 1 1 " clip-rule="nonzero"/></clipPath><clipPath id="017f14127a"><path d="M 0.800781 0.761719 L 97.761719 0.761719 L 97.761719 38.199219 L 0.800781 38.199219 Z M 0.800781 0.761719 " clip-rule="nonzero"/></clipPath><clipPath id="18d2ad3084"><rect x="0" width="98" y="0" height="39"/></clipPath><mask id="915fd83ef3"><g filter="url(#47d984b1f5)"><rect x="-37.5" width="450" fill="#000000" y="-37.499999" height="449.999989" fill-opacity="0.62"/></g></mask><clipPath id="c806d802eb"><path d="M 0.480469 0.960938 L 124.078125 0.960938 L 124.078125 42.480469 L 0.480469 42.480469 Z M 0.480469 0.960938 " clip-rule="nonzero"/></clipPath><clipPath id="a4372e1093"><rect x="0" width="125" y="0" height="43"/></clipPath><mask id="d1c3cb4be2"><g filter="url(#47d984b1f5)"><rect x="-37.5" width="450" fill="#000000" y="-37.499999" height="449.999989" fill-opacity="0.35"/></g></mask><clipPath id="5fdf4bb9d9"><path d="M 1 0.121094 L 121 0.121094 L 121 41.878906 L 1 41.878906 Z M 1 0.121094 " clip-rule="nonzero"/></clipPath><clipPath id="c02ceee84c"><path d="M 0.480469 0.121094 L 121.199219 0.121094 L 121.199219 41.878906 L 0.480469 41.878906 Z M 0.480469 0.121094 " clip-rule="nonzero"/></clipPath><clipPath id="b2329639a5"><rect x="0" width="122" y="0" height="42"/></clipPath><clipPath id="1810a8577e"><path d="M 121 165 L 263.042969 165 L 263.042969 215 L 121 215 Z M 121 165 " clip-rule="nonzero"/></clipPath><mask id="83cedf7b5e"><g filter="url(#47d984b1f5)"><rect x="-37.5" width="450" fill="#000000" y="-37.499999" height="449.999989" fill-opacity="0.19"/></g></mask><clipPath id="e525a9ff68"><path d="M 1 0.078125 L 97.878906 0.078125 L 97.878906 37 L 1 37 Z M 1 0.078125 " clip-rule="nonzero"/></clipPath><clipPath id="d260726d08"><path d="M 0.921875 0.078125 L 97.878906 0.078125 L 97.878906 37.519531 L 0.921875 37.519531 Z M 0.921875 0.078125 " clip-rule="nonzero"/></clipPath><clipPath id="8f7b6578ac"><rect x="0" width="98" y="0" height="38"/></clipPath><clipPath id="2147cdc780"><path d="M 259 183 L 263.042969 183 L 263.042969 187 L 259 187 Z M 259 183 " clip-rule="nonzero"/></clipPath><clipPath id="547cca5217"><path d="M 122 120.761719 L 259 120.761719 L 259 168 L 122 168 Z M 122 120.761719 " clip-rule="nonzero"/></clipPath><clipPath id="4ee81725ef"><path d="M 121 120.761719 L 260 120.761719 L 260 169 L 121 169 Z M 121 120.761719 " clip-rule="nonzero"/></clipPath><mask id="3a17fbd6d3"><g filter="url(#47d984b1f5)"><rect x="-37.5" width="450" fill="#000000" y="-37.499999" height="449.999989" fill-opacity="0.52"/></g></mask><clipPath id="f4d5babf54"><path d="M 0.320312 0.121094 L 121 0.121094 L 121 42 L 0.320312 42 Z M 0.320312 0.121094 " clip-rule="nonzero"/></clipPath><clipPath id="2bf7fc3b34"><path d="M 0.320312 0.121094 L 121.28125 0.121094 L 121.28125 42.359375 L 0.320312 42.359375 Z M 0.320312 0.121094 " clip-rule="nonzero"/></clipPath><clipPath id="1ae41b1fc0"><rect x="0" width="122" y="0" height="43"/></clipPath><mask id="515a0fcd67"><g filter="url(#47d984b1f5)"><rect x="-37.5" width="450" fill="#000000" y="-37.499999" height="449.999989" fill-opacity="0.19"/></g></mask><clipPath id="763856267c"><path d="M 0.640625 0.839844 L 97.601562 0.839844 L 97.601562 39 L 0.640625 39 Z M 0.640625 0.839844 " clip-rule="nonzero"/></clipPath><clipPath id="b12d365af2"><rect x="0" width="98" y="0" height="39"/></clipPath><mask id="dd1cea61dc"><g filter="url(#47d984b1f5)"><rect x="-37.5" width="450" fill="#000000" y="-37.499999" height="449.999989" fill-opacity="0.16"/></g></mask><clipPath id="7312f536ce"><path d="M 1 0.359375 L 13.921875 0.359375 L 13.921875 7 L 1 7 Z M 1 0.359375 " clip-rule="nonzero"/></clipPath><clipPath id="1fdfd2d7bb"><path d="M 0.71875 0.359375 L 13.921875 0.359375 L 13.921875 7.320312 L 0.71875 7.320312 Z M 0.71875 0.359375 " clip-rule="nonzero"/></clipPath><clipPath id="da21641f99"><rect x="0" width="14" y="0" height="8"/></clipPath></defs><rect x="-37.5" width="450" fill="#ffffff" y="-37.499999" height="449.999989" fill-opacity="1"/><rect x="-37.5" width="450" fill="#ffffff" y="-37.499999" height="449.999989" fill-opacity="1"/><g mask="url(#bacdc8d758)"><g transform="matrix(1, 0, 0, 1, 116, 185)"><g clip-path="url(#b2a70c8339)"><g clip-path="url(#18b55491e8)"><path fill="#010101" d="M 7.429688 1.398438 L 1.378906 4.585938 L 17.554688 8.339844 Z M 7.429688 1.398438 " fill-opacity="1" fill-rule="nonzero"/></g><g clip-path="url(#9b0e2d5292)"><path stroke-linecap="butt" transform="matrix(0.0782236, 0, 0, 0.0783312, -5.435713, -74.733675)" fill="none" stroke-linejoin="miter" d="M 164.469503 971.925458 L 87.117152 1012.618042 L 293.906103 1060.541538 Z M 164.469503 971.925458 " stroke="#000000" stroke-width="1" stroke-opacity="1" stroke-miterlimit="10"/></g></g></g></g><path stroke-linecap="butt" transform="matrix(0.0782236, 0, 0, 0.0783312, 110.564287, 110.266325)" fill-opacity="1" fill="#ffffff" fill-rule="nonzero" stroke-linejoin="miter" d="M 1874.910255 1522.073236 L 1871.36473 1353.667775 L 660.043894 1632.032976 L 197.827393 1359.801584 C 197.827393 1359.801584 187.740127 1351.274094 179.150969 1355.313431 C 170.511875 1359.3029 169.812758 1366.882891 169.812758 1366.882891 L 163.420827 1505.068125 C 163.420827 1505.068125 162.571899 1513.944693 169.013767 1517.98403 C 175.405698 1522.073236 648.907952 1818.490785 648.907952 1818.490785 Z M 1874.910255 1522.073236 " stroke="#000000" stroke-width="1" stroke-opacity="1" stroke-miterlimit="10"/><path stroke-linecap="butt" transform="matrix(0.0782236, 0, 0, 0.0783312, 110.564287, 110.266325)" fill-opacity="1" fill="#f26822" fill-rule="nonzero" stroke-linejoin="miter" d="M 1293.743915 998.006611 L 1888.592982 1299.660338 L 664.987653 1591.789207 L 148.389802 1281.408517 Z M 1293.743915 998.006611 " stroke="#000000" stroke-width="1" stroke-opacity="1" stroke-miterlimit="10"/><g mask="url(#2f49b0e82b)"><g transform="matrix(1, 0, 0, 1, 129, 190)"><g clip-path="url(#c91665d96c)"><g clip-path="url(#65d1895578)"><path fill="#f9a11b" d="M 34.105469 42.039062 C 34.019531 42.039062 33.933594 42.015625 33.859375 41.972656 L 1.136719 22.285156 C 0.96875 22.1875 0.878906 22 0.910156 21.808594 C 0.9375 21.617188 1.078125 21.460938 1.265625 21.417969 L 82.269531 1.347656 C 82.378906 1.320312 82.496094 1.332031 82.597656 1.382812 L 120.378906 20.570312 C 120.554688 20.660156 120.660156 20.851562 120.636719 21.050781 C 120.613281 21.246094 120.464844 21.410156 120.273438 21.457031 L 34.214844 42.027344 C 34.179688 42.035156 34.140625 42.039062 34.105469 42.039062 Z M 2.613281 22.0625 L 34.183594 41.054688 L 118.792969 20.832031 L 82.328125 2.3125 Z M 2.613281 22.0625 " fill-opacity="1" fill-rule="nonzero"/></g><g clip-path="url(#ee046d2df4)"><path stroke-linecap="butt" transform="matrix(0.0782236, 0, 0, 0.0783312, -18.435713, -79.733675)" fill="none" stroke-linejoin="miter" d="M 671.679205 1554.587409 C 670.580592 1554.587409 669.481979 1554.288199 668.533177 1553.739647 L 250.211263 1302.403098 C 248.063974 1301.156389 246.915424 1298.762708 247.31492 1296.319158 C 247.664479 1293.875608 249.462209 1291.880874 251.859183 1291.332322 L 1287.401921 1035.108673 C 1288.800156 1034.759595 1290.298265 1034.9092 1291.596626 1035.557489 L 1774.586902 1280.510887 C 1776.834065 1281.657859 1778.182363 1284.101409 1777.882741 1286.644695 C 1777.58312 1289.138114 1775.685515 1291.232585 1773.238604 1291.831005 L 673.07744 1554.437804 C 672.628007 1554.53754 672.128638 1554.587409 671.679205 1554.587409 Z M 269.087434 1299.560601 L 672.677944 1542.020581 L 1754.312496 1283.852067 L 1288.150976 1047.426159 Z M 269.087434 1299.560601 " stroke="#000000" stroke-width="1" stroke-opacity="1" stroke-miterlimit="10"/></g></g></g></g><g clip-path="url(#15b659d3ee)"><path fill="#cd5928" d="M 259.109375 229.035156 L 259.109375 232.839844 L 161.757812 257.222656 L 120.445312 230.628906 C 120.445312 230.628906 117.457031 220.140625 122.171875 210.640625 L 162.582031 234.953125 L 258.296875 212.074219 L 258.296875 215.992188 L 162.195312 238.105469 L 125.585938 216.511719 C 124.832031 216.066406 123.875 216.585938 123.835938 217.460938 L 123.34375 228.253906 C 123.328125 228.640625 123.519531 229.007812 123.847656 229.214844 L 161.324219 252.710938 Z M 259.109375 229.035156 " fill-opacity="1" fill-rule="nonzero"/></g><g clip-path="url(#1be8d89c0a)"><path stroke-linecap="butt" transform="matrix(0.0782236, 0, 0, 0.0783312, 110.564287, 110.266325)" fill="none" stroke-linejoin="miter" d="M 1898.979869 1516.238638 L 1898.979869 1564.810423 L 654.450954 1876.088744 L 126.317666 1536.58493 C 126.317666 1536.58493 88.115892 1402.688376 148.389802 1281.408517 L 664.987653 1591.789207 L 1888.592982 1299.710206 L 1888.592982 1349.728174 L 660.043894 1632.032976 L 192.034705 1356.360667 C 182.396872 1350.675673 170.162317 1357.308166 169.662947 1368.478679 L 163.37089 1506.264965 C 163.171142 1511.201933 165.618053 1515.889559 169.812758 1518.532582 L 648.907952 1818.490785 Z M 1898.979869 1516.238638 " stroke="#000000" stroke-width="1" stroke-opacity="1" stroke-miterlimit="10"/></g><g mask="url(#4d670660e1)"><g transform="matrix(1, 0, 0, 1, 160, 215)"><g clip-path="url(#18d2ad3084)"><g clip-path="url(#cd65d73b6e)"><path fill="#f9a11b" d="M 1.324219 37.710938 L 2.195312 23.105469 L 96.949219 1.300781 L 97.226562 14.492188 Z M 1.324219 37.710938 " fill-opacity="1" fill-rule="nonzero"/></g><g clip-path="url(#017f14127a)"><path stroke-linecap="butt" transform="matrix(0.0782236, 0, 0, 0.0783312, -49.435713, -104.733675)" fill="none" stroke-linejoin="miter" d="M 648.907952 1818.490785 L 660.043894 1632.032976 L 1871.36473 1353.667775 L 1874.910255 1522.073236 Z M 648.907952 1818.490785 " stroke="#000000" stroke-width="1" stroke-opacity="1" stroke-miterlimit="10"/></g></g></g></g><path stroke-linecap="butt" transform="matrix(0.0782236, 0, 0, 0.0783312, 110.564287, 110.266325)" fill-opacity="1" fill="#e98d24" fill-rule="nonzero" stroke-linejoin="miter" d="M 1898.979869 1516.238638 L 1874.510759 1503.023522 L 1874.910255 1522.073236 Z M 1898.979869 1516.238638 " stroke="#000000" stroke-width="1" stroke-opacity="1" stroke-miterlimit="10"/><path stroke-linecap="butt" transform="matrix(0.0782236, 0, 0, 0.0783312, 110.564287, 110.266325)" fill-opacity="1" fill="#e98d24" fill-rule="nonzero" stroke-linejoin="miter" d="M 1888.592982 1349.728174 L 1871.464604 1357.15856 L 1871.36473 1353.667775 Z M 1888.592982 1349.728174 " stroke="#000000" stroke-width="1" stroke-opacity="1" stroke-miterlimit="10"/><path stroke-linecap="butt" transform="matrix(0.0782236, 0, 0, 0.0783312, 110.564287, 110.266325)" fill-opacity="1" fill="#fce586" fill-rule="nonzero" stroke-linejoin="miter" d="M 1251.796869 1086.872034 L 1572.442088 1263.106828 L 1450.096537 1306.143225 L 1146.629631 1115.396738 Z M 1251.796869 1086.872034 " stroke="#000000" stroke-width="1" stroke-opacity="1" stroke-miterlimit="10"/><path stroke-linecap="butt" transform="matrix(0.0782236, 0, 0, 0.0783312, 110.564287, 110.266325)" fill-opacity="1" fill="#fce586" fill-rule="nonzero" stroke-linejoin="miter" d="M 1050.251298 1150.65367 L 1354.067763 1331.127275 L 1341.733334 1338.358188 L 1038.316365 1156.687742 Z M 1050.251298 1150.65367 " stroke="#000000" stroke-width="1" stroke-opacity="1" stroke-miterlimit="10"/><path stroke-linecap="butt" transform="matrix(0.0782236, 0, 0, 0.0783312, 110.564287, 110.266325)" fill-opacity="1" fill="#e5e1d3" fill-rule="nonzero" stroke-linejoin="miter" d="M 195.430418 1397.601803 C 231.484904 1417.997963 267.089956 1439.092281 302.545197 1460.386071 C 320.322755 1471.008033 337.950502 1481.879336 355.678123 1492.601034 L 408.511426 1525.165075 L 461.144982 1558.078194 C 478.572981 1569.198839 496.150791 1580.169879 513.528853 1591.390261 C 548.334914 1613.731287 583.041101 1636.321655 617.297856 1659.610181 C 581.243371 1639.21402 545.638318 1618.119703 510.183077 1596.776044 C 492.405519 1586.203951 474.777772 1575.332648 457.100088 1564.61095 L 404.216848 1532.046909 L 351.633229 1499.083921 C 334.155293 1488.013144 316.62742 1476.992236 299.249358 1465.771855 C 264.39336 1443.430828 229.73711 1420.84046 195.430418 1397.601803 Z M 195.430418 1397.601803 " stroke="#000000" stroke-width="1" stroke-opacity="1" stroke-miterlimit="10"/><path stroke-linecap="butt" transform="matrix(0.0782236, 0, 0, 0.0783312, 110.564287, 110.266325)" fill-opacity="1" fill="#e5e1d3" fill-rule="nonzero" stroke-linejoin="miter" d="M 193.582751 1443.181486 C 229.637236 1463.627515 265.242288 1484.721832 300.69753 1506.015623 C 318.475088 1516.637585 336.102835 1527.459019 353.780518 1538.230586 L 406.663759 1570.794627 L 459.247378 1603.707746 C 476.725314 1614.828391 494.253187 1625.799431 511.631249 1637.019812 C 546.487247 1659.360839 581.193434 1681.951207 615.450188 1705.239733 C 579.395703 1684.843572 543.790651 1663.749255 508.285472 1642.405596 C 490.507915 1631.783634 472.930105 1620.9622 455.202484 1610.240502 L 402.36918 1577.626592 L 349.785562 1544.713473 C 332.307626 1533.592828 314.779753 1522.621788 297.401691 1511.401407 C 262.545693 1489.06038 227.839505 1466.470012 193.582751 1443.181486 Z M 193.582751 1443.181486 " stroke="#000000" stroke-width="1" stroke-opacity="1" stroke-miterlimit="10"/><path stroke-linecap="butt" transform="matrix(0.0782236, 0, 0, 0.0783312, 110.564287, 110.266325)" fill-opacity="1" fill="#e5e1d3" fill-rule="nonzero" stroke-linejoin="miter" d="M 195.430418 1490.506563 C 231.484904 1510.902723 267.089956 1531.99704 302.545197 1553.3407 C 320.322755 1563.912793 337.950502 1574.784096 355.678123 1585.505794 L 408.511426 1618.069835 L 461.144982 1650.982954 C 478.572981 1662.103599 496.150791 1673.074639 513.528853 1684.344889 C 548.334914 1706.685915 583.041101 1729.276284 617.297856 1752.514941 C 581.243371 1732.11878 545.638318 1711.024463 510.183077 1689.680804 C 492.405519 1679.108711 474.777772 1668.237408 457.100088 1657.51571 L 404.216848 1624.951669 L 351.633229 1591.988681 C 334.155293 1580.917904 316.62742 1569.896996 299.249358 1558.676615 C 264.39336 1536.335588 229.73711 1513.74522 195.430418 1490.506563 Z M 195.430418 1490.506563 " stroke="#000000" stroke-width="1" stroke-opacity="1" stroke-miterlimit="10"/><path stroke-linecap="butt" transform="matrix(0.0782236, 0, 0, 0.0783312, 110.564287, 110.266325)" fill-opacity="1" fill="#e5e1d3" fill-rule="nonzero" stroke-linejoin="miter" d="M 721.36648 1663.00123 C 813.699919 1637.418759 906.382917 1613.33234 999.215725 1589.844341 C 1045.607161 1577.925803 1092.148408 1566.605684 1138.589781 1554.986356 L 1278.163584 1521.026001 L 1417.937134 1487.913408 L 1487.898815 1471.70619 L 1522.904624 1463.627515 L 1557.910433 1455.698445 C 1651.292548 1434.504391 1744.824474 1413.858889 1838.705959 1394.809174 C 1746.422457 1420.441513 1653.689522 1444.478064 1560.856714 1468.015931 L 1526.050653 1476.842631 L 1491.194655 1485.519726 L 1421.482659 1502.824048 L 1281.908856 1536.784403 L 1142.135305 1569.847128 C 1095.494184 1580.618694 1048.903001 1591.639602 1002.162006 1602.06209 C 908.779891 1623.256144 815.247965 1643.901647 721.36648 1663.00123 Z M 721.36648 1663.00123 " stroke="#000000" stroke-width="1" stroke-opacity="1" stroke-miterlimit="10"/><path stroke-linecap="butt" transform="matrix(0.0782236, 0, 0, 0.0783312, 110.564287, 110.266325)" fill-opacity="1" fill="#e5e1d3" fill-rule="nonzero" stroke-linejoin="miter" d="M 721.36648 1705.738416 C 813.699919 1680.155946 906.382917 1656.069527 999.215725 1632.581528 C 1045.607161 1620.662989 1092.148408 1609.342871 1138.589781 1597.723543 L 1278.163584 1563.763188 L 1417.937134 1530.650595 L 1487.898815 1514.443377 L 1522.904624 1506.364702 L 1557.910433 1498.435632 C 1651.292548 1477.241578 1744.824474 1456.596076 1838.705959 1437.546361 C 1746.422457 1463.1787 1653.689522 1487.215251 1560.856714 1510.753118 L 1526.050653 1519.579818 L 1421.482659 1545.611103 L 1281.908856 1579.52159 L 1142.135305 1612.634183 C 1095.494184 1623.355881 1048.903001 1634.376789 1002.162006 1644.849145 C 908.779891 1666.0432 815.247965 1686.688702 721.36648 1705.738416 Z M 721.36648 1705.738416 " stroke="#000000" stroke-width="1" stroke-opacity="1" stroke-miterlimit="10"/><path stroke-linecap="butt" transform="matrix(0.0782236, 0, 0, 0.0783312, 110.564287, 110.266325)" fill-opacity="1" fill="#e5e1d3" fill-rule="nonzero" stroke-linejoin="miter" d="M 721.36648 1753.163229 C 813.699919 1727.530891 906.382917 1703.49434 999.215725 1679.956473 C 1045.607161 1668.087803 1092.148408 1656.717816 1138.589781 1645.148356 L 1278.163584 1611.188001 L 1417.937134 1578.075408 L 1487.898815 1561.86819 L 1522.904624 1553.739647 L 1557.910433 1545.860445 C 1651.292548 1524.616523 1744.824474 1504.020889 1838.705959 1484.921306 C 1746.422457 1510.553644 1653.689522 1534.640064 1560.856714 1558.128063 L 1526.050653 1567.004631 L 1491.194655 1575.681726 L 1421.482659 1592.986048 L 1281.908856 1626.896535 L 1142.135305 1660.009128 C 1095.494184 1670.730826 1048.903001 1681.751734 1002.162006 1692.22409 C 908.779891 1713.418144 815.247965 1734.063647 721.36648 1753.163229 Z M 721.36648 1753.163229 " stroke="#000000" stroke-width="1" stroke-opacity="1" stroke-miterlimit="10"/><path stroke-linecap="butt" transform="matrix(0.0782236, 0, 0, 0.0783312, 110.564287, 110.266325)" fill-opacity="1" fill="#f04d6e" fill-rule="nonzero" stroke-linejoin="miter" d="M 1588.421916 1460.585545 L 1675.112478 1438.743202 C 1675.112478 1438.743202 1688.096088 1488.46196 1676.011343 1528.406518 L 1642.803265 1500.530103 L 1611.692539 1542.120318 C 1611.692539 1542.120318 1611.442854 1477.79013 1588.421916 1460.585545 Z M 1588.421916 1460.585545 " stroke="#000000" stroke-width="1" stroke-opacity="1" stroke-miterlimit="10"/><path stroke-linecap="butt" transform="matrix(0.0782236, 0, 0, 0.0783312, 110.564287, 110.266325)" fill-opacity="1" fill="#f04d6e" fill-rule="nonzero" stroke-linejoin="miter" d="M 1041.312583 1633.13008 L 1128.352704 1613.481945 C 1128.352704 1613.481945 1141.336313 1662.352941 1129.301506 1702.297499 L 1096.043491 1674.421085 L 1064.932765 1716.011299 C 1064.932765 1716.011299 1064.283584 1650.334665 1041.312583 1633.13008 Z M 1041.312583 1633.13008 " stroke="#000000" stroke-width="1" stroke-opacity="1" stroke-miterlimit="10"/><path stroke-linecap="butt" transform="matrix(0.0782236, 0, 0, 0.0783312, 110.564287, 110.266325)" fill-opacity="1" fill="#ffffff" fill-rule="nonzero" stroke-linejoin="miter" d="M 1887.744053 1002.893711 L 1896.433084 1220.070431 L 1390.321996 1522.621788 C 1390.321996 1522.621788 1319.461449 1466.918827 1366.402192 1320.106367 Z M 1887.744053 1002.893711 " stroke="#000000" stroke-width="1" stroke-opacity="1" stroke-miterlimit="10"/><path stroke-linecap="butt" transform="matrix(0.0782236, 0, 0, 0.0783312, 110.564287, 110.266325)" fill-opacity="1" fill="#55c1ae" fill-rule="nonzero" stroke-linejoin="miter" d="M 1892.88756 985.539521 L 1353.768141 1313.374138 L 87.117152 1012.618042 L 653.402278 714.604706 Z M 1892.88756 985.539521 " stroke="#000000" stroke-width="1" stroke-opacity="1" stroke-miterlimit="10"/><g mask="url(#915fd83ef3)"><g transform="matrix(1, 0, 0, 1, 126, 168)"><g clip-path="url(#a4372e1093)"><path fill="#07b28f" d="M 89.835938 41.882812 C 89.78125 41.882812 89.730469 41.878906 89.675781 41.863281 L 1.664062 20.9375 C 1.382812 20.871094 1.175781 20.636719 1.136719 20.351562 C 1.101562 20.0625 1.246094 19.785156 1.503906 19.648438 L 35.882812 1.53125 C 36.027344 1.453125 36.195312 1.433594 36.351562 1.46875 L 122.972656 20.425781 C 123.246094 20.488281 123.460938 20.710938 123.507812 20.992188 C 123.554688 21.269531 123.425781 21.550781 123.183594 21.699219 L 90.195312 41.78125 C 90.085938 41.847656 89.960938 41.882812 89.835938 41.882812 Z M 3.785156 20.015625 L 89.71875 40.449219 L 120.980469 21.414062 L 36.300781 2.878906 Z M 3.785156 20.015625 " fill-opacity="1" fill-rule="nonzero"/><g clip-path="url(#c806d802eb)"><path stroke-linecap="butt" transform="matrix(0.0782236, 0, 0, 0.0783312, -15.435713, -57.733675)" fill="none" stroke-linejoin="miter" d="M 1345.778227 1271.734055 C 1345.07911 1271.734055 1344.429929 1271.684187 1343.730812 1271.484713 L 218.601168 1004.339894 C 215.005707 1003.492131 212.359048 1000.50003 211.859678 996.859639 C 211.410246 993.16938 213.257913 989.628727 216.553752 987.883334 L 656.048937 756.593867 C 657.896604 755.5965 660.043894 755.347158 662.041372 755.795973 L 1769.393458 997.807138 C 1772.889046 998.605032 1775.635578 1001.447529 1776.234822 1005.038051 C 1776.834065 1008.578704 1775.186146 1012.169227 1772.090054 1014.064224 L 1350.372428 1270.437478 C 1348.974193 1271.28524 1347.37621 1271.734055 1345.778227 1271.734055 Z M 245.716937 992.57096 L 1344.280118 1253.432366 L 1743.925609 1010.423834 L 661.392191 773.798452 Z M 245.716937 992.57096 " stroke="#000000" stroke-width="1" stroke-opacity="1" stroke-miterlimit="10"/></g></g></g></g><path stroke-linecap="butt" transform="matrix(0.0782236, 0, 0, 0.0783312, 110.564287, 110.266325)" fill-opacity="1" fill="#00b59c" fill-rule="nonzero" stroke-linejoin="miter" d="M 87.117152 1012.618042 C 87.117152 1012.618042 32.036686 1178.779427 97.054607 1234.781598 C 162.072529 1290.78377 1364.604461 1565.309107 1364.604461 1565.309107 L 1922.30043 1240.316986 L 1923.149358 1204.062687 L 1390.321996 1522.621788 C 1390.321996 1522.621788 1352.419843 1496.889713 1353.768141 1429.168476 C 1355.116439 1361.44724 1366.402192 1320.106367 1366.402192 1320.106367 L 1887.694116 1002.893711 L 1891.589199 985.240311 L 1353.718204 1313.32427 Z M 87.117152 1012.618042 " stroke="#000000" stroke-width="1" stroke-opacity="1" stroke-miterlimit="10"/><path stroke-linecap="butt" transform="matrix(0.0782236, 0, 0, 0.0783312, 110.564287, 110.266325)" fill-opacity="1" fill="#039e84" fill-rule="nonzero" stroke-linejoin="miter" d="M 1923.149358 1204.062687 L 1895.783904 1204.062687 L 1896.433084 1220.070431 Z M 1923.149358 1204.062687 " stroke="#000000" stroke-width="1" stroke-opacity="1" stroke-miterlimit="10"/><path stroke-linecap="butt" transform="matrix(0.0782236, 0, 0, 0.0783312, 110.564287, 110.266325)" fill-opacity="1" fill="#65c5b3" fill-rule="nonzero" stroke-linejoin="miter" d="M 288.912407 1060.541538 C 288.912407 1060.541538 200.474051 1221.416877 290.51039 1301.106521 L 337.700817 1314.2219 C 337.700817 1314.2219 259.149979 1220.170168 359.123773 1077.197572 Z M 288.912407 1060.541538 " stroke="#000000" stroke-width="1" stroke-opacity="1" stroke-miterlimit="10"/><path stroke-linecap="butt" transform="matrix(0.0782236, 0, 0, 0.0783312, 110.564287, 110.266325)" fill-opacity="1" fill="#65c5b3" fill-rule="nonzero" stroke-linejoin="miter" d="M 397.525295 1086.273614 C 397.525295 1086.273614 309.086939 1251.038684 399.123278 1330.778197 L 447.112696 1343.394892 C 447.112696 1343.394892 367.762867 1245.902243 467.686724 1102.929647 Z M 397.525295 1086.273614 " stroke="#000000" stroke-width="1" stroke-opacity="1" stroke-miterlimit="10"/><path stroke-linecap="butt" transform="matrix(0.0782236, 0, 0, 0.0783312, 110.564287, 110.266325)" fill-opacity="1" fill="#65c5b3" fill-rule="nonzero" stroke-linejoin="miter" d="M 923.91079 1210.695179 C 923.91079 1210.695179 836.52111 1382.840767 926.557449 1462.580279 L 973.697939 1473.850529 C 973.697939 1473.850529 894.098425 1370.323808 994.072219 1227.351212 Z M 923.91079 1210.695179 " stroke="#000000" stroke-width="1" stroke-opacity="1" stroke-miterlimit="10"/><path stroke-linecap="butt" transform="matrix(0.0782236, 0, 0, 0.0783312, 110.564287, 110.266325)" fill-opacity="1" fill="#65c5b3" fill-rule="nonzero" stroke-linejoin="miter" d="M 1032.473741 1236.427254 C 1032.473741 1236.427254 944.93425 1408.722448 1034.970589 1488.412091 L 1083.059881 1499.782078 C 1083.059881 1499.782078 1002.711313 1396.055883 1102.685106 1253.133156 Z M 1032.473741 1236.427254 " stroke="#000000" stroke-width="1" stroke-opacity="1" stroke-miterlimit="10"/><path stroke-linecap="butt" transform="matrix(0.0782236, 0, 0, 0.0783312, 110.564287, 110.266325)" fill-opacity="1" fill="#e5e1d3" fill-rule="nonzero" stroke-linejoin="miter" d="M 1874.510759 1060.242328 C 1836.808354 1087.719796 1798.207084 1113.651345 1759.256255 1139.08421 C 1739.880715 1151.950247 1720.155616 1164.267733 1700.630264 1176.834561 L 1641.454967 1213.737149 L 1581.7803 1249.841844 C 1561.705642 1261.560909 1541.830732 1273.579184 1521.606263 1285.048908 C 1481.307136 1308.287565 1440.658451 1330.97767 1399.1109 1352.121856 C 1436.813305 1324.694256 1475.414575 1298.712839 1514.365404 1273.279974 C 1533.740944 1260.413937 1553.466044 1248.096451 1572.991395 1235.529624 L 1632.166692 1198.627035 L 1691.84136 1162.572209 C 1711.916017 1150.853143 1731.840864 1138.834868 1752.065333 1127.365145 C 1792.36446 1104.126488 1832.963208 1081.436382 1874.510759 1060.242328 Z M 1874.510759 1060.242328 " stroke="#000000" stroke-width="1" stroke-opacity="1" stroke-miterlimit="10"/><path stroke-linecap="butt" transform="matrix(0.0782236, 0, 0, 0.0783312, 110.564287, 110.266325)" fill-opacity="1" fill="#e5e1d3" fill-rule="nonzero" stroke-linejoin="miter" d="M 1868.068891 1171.897593 C 1830.366486 1199.375061 1791.765216 1225.306609 1752.864325 1250.739474 C 1733.438847 1263.605512 1713.763685 1275.922997 1694.188397 1288.489825 L 1635.013099 1325.392413 L 1575.388369 1361.497108 C 1555.313711 1373.216173 1535.438801 1385.284317 1515.164395 1396.75404 C 1474.865269 1419.942829 1434.26652 1442.632934 1392.71897 1463.826988 C 1430.421374 1436.349521 1469.022644 1410.368104 1507.923536 1384.935239 C 1527.299077 1372.069201 1547.024176 1359.801584 1566.599464 1347.184888 L 1625.774762 1310.332168 L 1685.449429 1274.227473 C 1705.524087 1262.508408 1725.398997 1250.490132 1745.623465 1239.020409 C 1785.922592 1215.83162 1826.571277 1193.141515 1868.068891 1171.897593 Z M 1868.068891 1171.897593 " stroke="#000000" stroke-width="1" stroke-opacity="1" stroke-miterlimit="10"/><path stroke-linecap="butt" transform="matrix(0.0782236, 0, 0, 0.0783312, 110.564287, 110.266325)" fill-opacity="1" fill="#e5e1d3" fill-rule="nonzero" stroke-linejoin="miter" d="M 1869.866622 1116.84292 C 1831.465099 1143.123547 1792.664082 1168.706017 1753.463568 1193.739936 C 1714.312992 1218.87359 1674.862793 1243.408825 1635.312721 1267.794454 C 1595.612838 1292.030479 1555.863018 1316.166766 1515.763639 1339.704633 C 1475.764134 1363.342237 1435.315196 1386.381421 1394.5167 1408.722448 C 1432.918222 1382.44182 1471.71924 1356.809482 1510.969691 1331.825432 C 1550.07033 1306.691777 1589.570466 1282.156543 1629.120538 1257.721045 C 1668.770484 1233.534889 1708.520304 1209.398601 1748.619683 1185.910603 C 1788.669125 1162.22313 1829.068125 1139.233815 1869.866622 1116.84292 Z M 1869.866622 1116.84292 " stroke="#000000" stroke-width="1" stroke-opacity="1" stroke-miterlimit="10"/><path stroke-linecap="butt" transform="matrix(0.0782236, 0, 0, 0.0783312, 110.564287, 110.266325)" fill-opacity="1" fill="#ffffff" fill-rule="nonzero" stroke-linejoin="miter" d="M 1914.710012 963.846783 L 1911.164488 795.441322 L 699.843651 1073.806523 L 237.577213 801.57513 C 237.577213 801.57513 227.539884 793.04764 218.90079 797.086978 C 210.311632 801.076447 209.562578 808.656438 209.562578 808.656438 L 203.220584 946.841671 C 203.220584 946.841671 202.371656 955.71824 208.763587 959.757577 C 215.205455 963.846783 688.657772 1260.264331 688.657772 1260.264331 Z M 1914.710012 963.846783 " stroke="#000000" stroke-width="1" stroke-opacity="1" stroke-miterlimit="10"/><path stroke-linecap="butt" transform="matrix(0.0782236, 0, 0, 0.0783312, 110.564287, 110.266325)" fill-opacity="1" fill="#fecf09" fill-rule="nonzero" stroke-linejoin="miter" d="M 1333.543672 439.830027 L 1928.392739 741.483753 L 704.78741 1033.562754 L 188.139622 723.231932 Z M 1333.543672 439.830027 " stroke="#000000" stroke-width="1" stroke-opacity="1" stroke-miterlimit="10"/><g mask="url(#d1c3cb4be2)"><g transform="matrix(1, 0, 0, 1, 132, 147)"><g clip-path="url(#b2329639a5)"><g clip-path="url(#5fdf4bb9d9)"><path fill="#f9a11b" d="M 34.21875 41.3125 C 34.132812 41.3125 34.046875 41.292969 33.972656 41.246094 L 1.246094 21.558594 C 1.082031 21.460938 0.992188 21.273438 1.023438 21.082031 C 1.050781 20.890625 1.191406 20.738281 1.378906 20.691406 L 82.378906 0.621094 C 82.492188 0.59375 82.609375 0.605469 82.710938 0.65625 L 120.488281 19.84375 C 120.667969 19.933594 120.769531 20.125 120.746094 20.324219 C 120.722656 20.519531 120.578125 20.683594 120.382812 20.730469 L 34.328125 41.300781 C 34.292969 41.308594 34.253906 41.3125 34.21875 41.3125 Z M 2.722656 21.335938 L 34.296875 40.328125 L 118.90625 20.105469 L 82.4375 1.585938 Z M 2.722656 21.335938 " fill-opacity="1" fill-rule="nonzero"/></g><g clip-path="url(#c02ceee84c)"><path stroke-linecap="butt" transform="matrix(0.0782236, 0, 0, 0.0783312, -21.435713, -36.733674)" fill="none" stroke-linejoin="miter" d="M 711.478962 996.360943 C 710.380349 996.360943 709.281736 996.111601 708.332934 995.513181 L 289.961084 744.176633 C 287.863731 742.929923 286.715181 740.536242 287.114677 738.092692 C 287.464236 735.649143 289.261966 733.704276 291.65894 733.105856 L 1327.151741 476.882208 C 1328.599913 476.533129 1330.098022 476.682734 1331.396383 477.331023 L 1814.336722 722.284421 C 1816.633822 723.431394 1817.932183 725.874943 1817.632562 728.41823 C 1817.33294 730.911648 1815.485272 733.006119 1812.988424 733.60454 L 712.877197 996.211338 C 712.427765 996.311075 711.928395 996.360943 711.478962 996.360943 Z M 308.837254 741.334136 L 712.477701 983.794116 L 1794.112253 725.625602 L 1327.900796 489.199694 Z M 308.837254 741.334136 " stroke="#000000" stroke-width="1" stroke-opacity="1" stroke-miterlimit="10"/></g></g></g></g><path fill="#f9a11b" d="M 262.21875 185.3125 L 262.21875 189.117188 L 164.871094 213.5 L 123.558594 186.902344 C 123.558594 186.902344 120.570312 176.414062 125.28125 166.917969 L 165.695312 191.226562 L 261.410156 168.347656 L 261.410156 172.265625 L 165.308594 194.378906 L 128.699219 172.789062 C 127.945312 172.339844 126.984375 172.859375 126.945312 173.734375 L 126.457031 184.527344 C 126.4375 184.914062 126.628906 185.285156 126.957031 185.488281 L 164.433594 208.984375 Z M 262.21875 185.3125 " fill-opacity="1" fill-rule="nonzero"/><g clip-path="url(#1810a8577e)"><path stroke-linecap="butt" transform="matrix(0.0782236, 0, 0, 0.0783312, 110.564287, 110.266325)" fill="none" stroke-linejoin="miter" d="M 1938.729689 958.062053 L 1938.729689 1006.633838 L 694.250711 1317.912159 L 166.117423 978.358477 C 166.117423 978.358477 127.915649 844.461922 188.139622 723.231932 L 704.78741 1033.562754 L 1928.392739 741.483753 L 1928.392739 791.501721 L 699.843651 1073.806523 L 231.834462 798.184082 C 222.196629 792.44922 209.912137 799.081712 209.412767 810.252226 L 203.170647 948.038512 C 202.920962 952.97548 205.367873 957.712974 209.562578 960.306129 L 688.657772 1260.264331 Z M 1938.729689 958.062053 " stroke="#000000" stroke-width="1" stroke-opacity="1" stroke-miterlimit="10"/></g><g mask="url(#83cedf7b5e)"><g transform="matrix(1, 0, 0, 1, 163, 172)"><g clip-path="url(#8f7b6578ac)"><g clip-path="url(#e525a9ff68)"><path fill="#f9a11b" d="M 1.433594 36.984375 L 2.308594 22.378906 L 97.0625 0.578125 L 97.339844 13.765625 Z M 1.433594 36.984375 " fill-opacity="1" fill-rule="nonzero"/></g><g clip-path="url(#d260726d08)"><path stroke-linecap="butt" transform="matrix(0.0782236, 0, 0, 0.0783312, -52.435713, -61.733675)" fill="none" stroke-linejoin="miter" d="M 688.657772 1260.264331 L 699.843651 1073.806523 L 1911.164488 795.49119 L 1914.710012 963.846783 Z M 688.657772 1260.264331 " stroke="#000000" stroke-width="1" stroke-opacity="1" stroke-miterlimit="10"/></g></g></g></g><path fill="#e98d24" d="M 262.21875 185.3125 L 260.308594 184.273438 L 260.339844 185.765625 Z M 262.21875 185.3125 " fill-opacity="1" fill-rule="nonzero"/><g clip-path="url(#2147cdc780)"><path stroke-linecap="butt" transform="matrix(0.0782236, 0, 0, 0.0783312, 110.564287, 110.266325)" fill="none" stroke-linejoin="miter" d="M 1938.729689 958.062053 L 1914.310516 944.797068 L 1914.710012 963.846783 Z M 1938.729689 958.062053 " stroke="#000000" stroke-width="1" stroke-opacity="1" stroke-miterlimit="10"/></g><path stroke-linecap="butt" transform="matrix(0.0782236, 0, 0, 0.0783312, 110.564287, 110.266325)" fill-opacity="1" fill="#e98d24" fill-rule="nonzero" stroke-linejoin="miter" d="M 1928.392739 791.501721 L 1911.214424 798.932107 L 1911.164488 795.49119 Z M 1928.392739 791.501721 " stroke="#000000" stroke-width="1" stroke-opacity="1" stroke-miterlimit="10"/><path stroke-linecap="butt" transform="matrix(0.0782236, 0, 0, 0.0783312, 110.564287, 110.266325)" fill-opacity="1" fill="#fce586" fill-rule="nonzero" stroke-linejoin="miter" d="M 1291.596626 528.645581 L 1612.241845 704.880375 L 1489.846357 747.916772 L 1186.429388 557.170284 Z M 1291.596626 528.645581 " stroke="#000000" stroke-width="1" stroke-opacity="1" stroke-miterlimit="10"/><path stroke-linecap="butt" transform="matrix(0.0782236, 0, 0, 0.0783312, 110.564287, 110.266325)" fill-opacity="1" fill="#fce586" fill-rule="nonzero" stroke-linejoin="miter" d="M 1090.051055 592.427217 L 1393.817583 772.900822 L 1381.533091 780.131734 L 1078.066185 598.461289 Z M 1090.051055 592.427217 " stroke="#000000" stroke-width="1" stroke-opacity="1" stroke-miterlimit="10"/><path stroke-linecap="butt" transform="matrix(0.0782236, 0, 0, 0.0783312, 110.564287, 110.266325)" fill-opacity="1" fill="#e5e1d3" fill-rule="nonzero" stroke-linejoin="miter" d="M 235.230175 839.375349 C 271.284661 859.77151 306.889713 880.865827 342.344955 902.209487 C 360.122512 912.781579 377.750259 923.652883 395.427943 934.374581 L 448.311183 966.938621 L 500.894802 999.851741 C 518.372738 1010.972386 535.900611 1021.943426 553.278673 1033.213676 C 588.134671 1055.554702 622.840858 1078.095202 657.097613 1101.383728 C 621.043128 1080.987567 585.438075 1059.89325 549.932897 1038.54959 C 532.155339 1027.977498 514.577529 1017.106194 496.849909 1006.384496 L 444.016605 973.820456 L 391.432986 940.857468 C 373.95505 929.786691 356.427177 918.765783 339.049115 907.545401 C 304.193117 885.204375 269.48693 862.614006 235.230175 839.375349 Z M 235.230175 839.375349 " stroke="#000000" stroke-width="1" stroke-opacity="1" stroke-miterlimit="10"/><path stroke-linecap="butt" transform="matrix(0.0782236, 0, 0, 0.0783312, 110.564287, 110.266325)" fill-opacity="1" fill="#e5e1d3" fill-rule="nonzero" stroke-linejoin="miter" d="M 233.382508 885.004901 C 269.387056 905.401062 305.042045 926.495379 340.497287 947.78917 C 358.274845 958.411131 375.902592 969.282435 393.580275 980.004133 L 446.413579 1012.568173 L 499.047135 1045.481293 C 516.525071 1056.601938 534.052944 1067.572978 551.431006 1078.793359 C 586.287004 1101.134386 620.943254 1123.724754 655.200008 1147.01328 C 619.19546 1126.617119 583.540471 1105.522802 548.085229 1084.179142 C 530.307672 1073.557181 512.679925 1062.735746 495.002241 1052.014048 L 442.168937 1019.450008 L 389.535382 986.48702 C 372.107383 975.366375 354.57951 964.395335 337.201448 953.174953 C 302.34545 930.833927 267.639262 908.243558 233.382508 885.004901 Z M 233.382508 885.004901 " stroke="#000000" stroke-width="1" stroke-opacity="1" stroke-miterlimit="10"/><path stroke-linecap="butt" transform="matrix(0.0782236, 0, 0, 0.0783312, 110.564287, 110.266325)" fill-opacity="1" fill="#e5e1d3" fill-rule="nonzero" stroke-linejoin="miter" d="M 235.230175 932.280109 C 271.284661 952.67627 306.889713 973.770587 342.344955 995.114246 C 360.122512 1005.686339 377.750259 1016.557642 395.427943 1027.27934 L 448.311183 1059.843381 L 500.894802 1092.756501 C 518.372738 1103.877146 535.900611 1114.848186 553.278673 1126.118436 C 588.134671 1148.459462 622.840858 1171.04983 657.097613 1194.288488 C 621.043128 1173.892327 585.438075 1152.79801 549.932897 1131.504219 C 532.155339 1120.882257 514.577529 1110.010954 496.849909 1099.289256 L 444.016605 1066.725215 L 391.432986 1033.812096 C 373.95505 1022.691451 356.427177 1011.720411 339.049115 1000.450161 C 304.193117 978.109135 269.48693 955.518766 235.230175 932.280109 Z M 235.230175 932.280109 " stroke="#000000" stroke-width="1" stroke-opacity="1" stroke-miterlimit="10"/><path stroke-linecap="butt" transform="matrix(0.0782236, 0, 0, 0.0783312, 110.564287, 110.266325)" fill-opacity="1" fill="#e5e1d3" fill-rule="nonzero" stroke-linejoin="miter" d="M 761.166237 1104.774776 C 853.499676 1079.192306 946.182674 1055.105887 1039.015482 1031.617888 C 1085.406918 1019.699349 1131.898228 1008.379231 1178.389538 996.759902 L 1317.913404 962.799547 L 1457.686954 929.686954 L 1527.648635 913.479737 L 1562.654444 905.401062 L 1597.71019 897.471992 C 1691.092305 876.277938 1784.624231 855.632436 1878.505716 836.582721 C 1786.172277 862.21506 1693.489279 886.25161 1600.656471 909.789478 L 1565.85041 918.616178 L 1530.994412 927.293273 L 1461.282416 944.597595 L 1321.708613 978.55795 L 1181.935062 1011.670543 C 1135.293941 1022.392241 1088.702758 1033.413149 1041.961763 1043.835637 C 948.579648 1065.079559 855.047722 1085.675193 761.166237 1104.774776 Z M 761.166237 1104.774776 " stroke="#000000" stroke-width="1" stroke-opacity="1" stroke-miterlimit="10"/><path stroke-linecap="butt" transform="matrix(0.0782236, 0, 0, 0.0783312, 110.564287, 110.266325)" fill-opacity="1" fill="#e5e1d3" fill-rule="nonzero" stroke-linejoin="miter" d="M 761.166237 1147.561832 C 853.499676 1121.929493 946.182674 1097.892942 1039.015482 1074.355075 C 1085.406918 1062.436536 1131.898228 1051.116418 1178.389538 1039.497089 L 1317.913404 1005.536734 L 1457.686954 972.47401 L 1527.648635 956.216923 L 1562.654444 948.138249 L 1597.71019 940.209179 C 1691.092305 919.015125 1784.624231 898.369623 1878.505716 879.319908 C 1786.172277 904.952247 1693.489279 929.038666 1600.656471 952.526665 L 1565.85041 961.353365 L 1461.282416 987.38465 L 1321.708613 1021.295137 L 1181.935062 1054.40773 C 1135.293941 1065.129428 1088.702758 1076.150336 1041.961763 1086.622692 C 948.579648 1107.816746 855.047722 1128.462249 761.166237 1147.561832 Z M 761.166237 1147.561832 " stroke="#000000" stroke-width="1" stroke-opacity="1" stroke-miterlimit="10"/><path stroke-linecap="butt" transform="matrix(0.0782236, 0, 0, 0.0783312, 110.564287, 110.266325)" fill-opacity="1" fill="#e5e1d3" fill-rule="nonzero" stroke-linejoin="miter" d="M 761.166237 1194.936776 C 853.499676 1169.304438 946.182674 1145.267887 1039.015482 1121.73002 C 1085.406918 1109.861349 1131.898228 1098.491363 1178.389538 1086.921902 L 1317.913404 1052.961547 L 1457.686954 1019.848954 L 1527.648635 1003.641736 L 1562.654444 995.563062 L 1597.71019 987.633992 C 1691.092305 966.439938 1784.624231 945.794436 1878.505716 926.694853 C 1786.172277 952.327191 1693.489279 976.41361 1600.656471 999.901609 L 1565.85041 1008.778178 L 1530.994412 1017.455273 L 1461.282416 1034.759595 L 1321.708613 1068.71995 L 1181.935062 1101.782674 C 1135.293941 1112.554241 1088.702758 1123.525281 1041.961763 1133.997637 C 948.579648 1155.191691 855.047722 1175.837193 761.166237 1194.936776 Z M 761.166237 1194.936776 " stroke="#000000" stroke-width="1" stroke-opacity="1" stroke-miterlimit="10"/><path stroke-linecap="butt" transform="matrix(0.0782236, 0, 0, 0.0783312, 110.564287, 110.266325)" fill-opacity="1" fill="#f04d6e" fill-rule="nonzero" stroke-linejoin="miter" d="M 1628.221673 902.359092 L 1714.862298 880.516749 C 1714.862298 880.516749 1727.895845 930.235506 1715.8111 970.180065 L 1682.603022 942.30365 L 1651.442359 983.893865 C 1651.442359 983.893865 1651.192674 919.563677 1628.221673 902.359092 Z M 1628.221673 902.359092 " stroke="#000000" stroke-width="1" stroke-opacity="1" stroke-miterlimit="10"/><path stroke-linecap="butt" transform="matrix(0.0782236, 0, 0, 0.0783312, 110.564287, 110.266325)" fill-opacity="1" fill="#f04d6e" fill-rule="nonzero" stroke-linejoin="miter" d="M 1081.062403 1074.953495 L 1168.152461 1055.255492 C 1168.152461 1055.255492 1181.13607 1104.126488 1169.051326 1144.071046 L 1135.843248 1116.194631 L 1104.732522 1157.784846 C 1104.732522 1157.784846 1104.083341 1092.108212 1081.062403 1074.953495 Z M 1081.062403 1074.953495 " stroke="#000000" stroke-width="1" stroke-opacity="1" stroke-miterlimit="10"/><path stroke-linecap="butt" transform="matrix(0.0782236, 0, 0, 0.0783312, 110.564287, 110.266325)" fill-opacity="1" fill="#ffffff" fill-rule="nonzero" stroke-linejoin="miter" d="M 161.473286 654.263987 L 166.267234 485.908394 L 1375.490718 773.2499 L 1839.754635 504.459425 C 1839.754635 504.459425 1849.891838 496.031671 1858.431058 500.120877 C 1867.020215 504.210083 1867.719332 511.740206 1867.719332 511.740206 L 1873.062587 649.975307 C 1873.062587 649.975307 1873.861578 658.851876 1867.369774 662.841345 C 1860.927906 666.880682 1385.278363 959.807446 1385.278363 959.807446 Z M 161.473286 654.263987 " stroke="#000000" stroke-width="1" stroke-opacity="1" stroke-miterlimit="10"/><g clip-path="url(#547cca5217)"><path fill="#f0536d" d="M 168.960938 120.804688 L 122.253906 144.089844 L 217.796875 167.679688 L 258.386719 143.671875 Z M 168.960938 120.804688 " fill-opacity="1" fill-rule="nonzero"/></g><g clip-path="url(#4ee81725ef)"><path stroke-linecap="butt" transform="matrix(0.0782236, 0, 0, 0.0783312, 110.564287, 110.266325)" fill="none" stroke-linejoin="miter" d="M 746.534708 134.53591 L 149.438478 431.80122 L 1370.846581 732.956263 L 1889.741532 426.465305 Z M 746.534708 134.53591 " stroke="#000000" stroke-width="1" stroke-opacity="1" stroke-miterlimit="10"/></g><g mask="url(#3a17fbd6d3)"><g transform="matrix(1, 0, 0, 1, 130, 123)"><g clip-path="url(#1ae41b1fc0)"><g clip-path="url(#f4d5babf54)"><path fill="#ffffff" d="M 87.296875 41.765625 C 87.382812 41.765625 87.464844 41.742188 87.542969 41.695312 L 120.410156 22.253906 C 120.578125 22.15625 120.667969 21.96875 120.640625 21.777344 C 120.613281 21.585938 120.472656 21.433594 120.289062 21.382812 L 39.433594 0.710938 C 39.324219 0.683594 39.207031 0.695312 39.105469 0.746094 L 1.1875 19.652344 C 1.007812 19.738281 0.902344 19.929688 0.925781 20.128906 C 0.945312 20.328125 1.089844 20.492188 1.285156 20.539062 L 87.1875 41.75 C 87.222656 41.757812 87.257812 41.765625 87.296875 41.765625 Z M 118.9375 22.023438 L 87.222656 40.777344 L 2.769531 19.925781 L 39.371094 1.679688 Z M 118.9375 22.023438 " fill-opacity="1" fill-rule="nonzero"/></g><g clip-path="url(#2bf7fc3b34)"><path stroke-linecap="butt" transform="matrix(0.0782236, 0, 0, 0.0783312, -19.435713, -12.733674)" fill="none" stroke-linejoin="miter" d="M 1364.45465 695.754452 C 1365.553263 695.754452 1366.60194 695.455242 1367.600679 694.856822 L 1787.77026 446.66198 C 1789.917549 445.415271 1791.066099 443.02159 1790.71654 440.57804 C 1790.366981 438.13449 1788.569251 436.189624 1786.222214 435.541335 L 752.57708 171.637959 C 751.178845 171.288881 749.680737 171.438486 748.382376 172.086774 L 263.644306 413.44965 C 261.347206 414.546754 259.998908 416.990304 260.298529 419.533591 C 260.548214 422.076877 262.395882 424.171348 264.89273 424.769769 L 1363.056415 695.554979 C 1363.505848 695.654716 1363.955281 695.754452 1364.45465 695.754452 Z M 1768.944026 443.719747 L 1363.505848 683.137756 L 283.868774 416.940436 L 751.778089 184.005313 Z M 1768.944026 443.719747 " stroke="#000000" stroke-width="1" stroke-opacity="1" stroke-miterlimit="10"/></g></g></g></g><path stroke-linecap="butt" transform="matrix(0.0782236, 0, 0, 0.0783312, 110.564287, 110.266325)" fill-opacity="1" fill="#ed184a" fill-rule="nonzero" stroke-linejoin="miter" d="M 137.503545 648.279783 L 137.104049 696.851569 L 1379.23599 1017.355536 L 1909.916064 681.791323 C 1909.916064 681.791323 1949.116577 548.193979 1889.741532 426.465305 L 1370.846581 732.956263 L 149.438478 431.80122 L 149.08892 481.819188 L 1375.490718 773.2499 L 1845.547322 501.068376 C 1855.185155 495.433251 1867.419711 502.16548 1867.819206 513.335993 L 1873.062587 651.172148 C 1873.262335 656.109116 1870.765487 660.796742 1866.570782 663.389897 L 1385.228426 959.807446 Z M 137.503545 648.279783 " stroke="#000000" stroke-width="1" stroke-opacity="1" stroke-miterlimit="10"/><g mask="url(#515a0fcd67)"><g transform="matrix(1, 0, 0, 1, 122, 147)"><g clip-path="url(#b12d365af2)"><path fill="#f9a11b" d="M 96.925781 38.449219 L 96.160156 23.835938 L 1.570312 1.328125 L 1.195312 14.515625 Z M 96.925781 38.449219 " fill-opacity="1" fill-rule="nonzero"/><g clip-path="url(#763856267c)"><path stroke-linecap="butt" transform="matrix(0.0782236, 0, 0, 0.0783312, -11.435713, -36.733674)" fill="none" stroke-linejoin="miter" d="M 1385.278363 959.807433 L 1375.490718 773.249888 L 166.267234 485.908382 L 161.473286 654.263974 Z M 1385.278363 959.807433 " stroke="#000000" stroke-width="1" stroke-opacity="1" stroke-miterlimit="10"/></g></g></g></g><path stroke-linecap="butt" transform="matrix(0.0782236, 0, 0, 0.0783312, 110.564287, 110.266325)" fill-opacity="1" fill="#e98d24" fill-rule="nonzero" stroke-linejoin="miter" d="M 137.503545 648.279783 L 162.022592 635.26414 L 161.473286 654.263987 Z M 137.503545 648.279783 " stroke="#000000" stroke-width="1" stroke-opacity="1" stroke-miterlimit="10"/><path stroke-linecap="butt" transform="matrix(0.0782236, 0, 0, 0.0783312, 110.564287, 110.266325)" fill-opacity="1" fill="#e98d24" fill-rule="nonzero" stroke-linejoin="miter" d="M 149.08892 481.819188 L 166.16736 489.399179 L 166.267234 485.908394 Z M 149.08892 481.819188 " stroke="#000000" stroke-width="1" stroke-opacity="1" stroke-miterlimit="10"/><path stroke-linecap="butt" transform="matrix(0.0782236, 0, 0, 0.0783312, 110.564287, 110.266325)" fill-opacity="1" fill="#f7acbc" fill-rule="nonzero" stroke-linejoin="miter" d="M 787.832574 223.700542 L 465.839056 397.541655 L 587.884986 441.475683 L 892.750127 253.02314 Z M 787.832574 223.700542 " stroke="#000000" stroke-width="1" stroke-opacity="1" stroke-miterlimit="10"/><path stroke-linecap="butt" transform="matrix(0.0782236, 0, 0, 0.0783312, 110.564287, 110.266325)" fill-opacity="1" fill="#f7acbc" fill-rule="nonzero" stroke-linejoin="miter" d="M 988.878775 288.978229 L 683.714013 467.207758 L 695.998505 474.488539 L 1000.763771 295.112038 Z M 988.878775 288.978229 " stroke="#000000" stroke-width="1" stroke-opacity="1" stroke-miterlimit="10"/><path stroke-linecap="butt" transform="matrix(0.0782236, 0, 0, 0.0783312, 110.564287, 110.266325)" fill-opacity="1" fill="#e5e1d3" fill-rule="nonzero" stroke-linejoin="miter" d="M 1841.80205 542.259644 C 1805.647691 562.406462 1769.842891 583.20157 1734.237839 604.295887 C 1716.360407 614.768243 1698.682723 625.440073 1680.905165 636.062034 L 1627.822177 668.227128 L 1574.938936 700.791169 C 1557.411063 711.762209 1539.783317 722.583644 1522.305381 733.704289 C 1487.299572 755.795973 1452.493511 778.137 1418.037008 801.126315 C 1454.241304 780.979497 1489.996168 760.184389 1525.60122 739.090072 C 1543.478652 728.617716 1561.156335 717.896018 1578.933893 707.323925 L 1632.016882 675.158831 L 1684.900122 642.59479 C 1702.427995 631.62375 1720.055742 620.752447 1737.483741 609.631802 C 1772.539487 587.589986 1807.395485 565.248959 1841.80205 542.259644 Z M 1841.80205 542.259644 " stroke="#000000" stroke-width="1" stroke-opacity="1" stroke-miterlimit="10"/><path stroke-linecap="butt" transform="matrix(0.0782236, 0, 0, 0.0783312, 110.564287, 110.266325)" fill-opacity="1" fill="#e5e1d3" fill-rule="nonzero" stroke-linejoin="miter" d="M 1843.350096 587.889196 C 1807.1458 608.036014 1771.390937 628.831122 1735.735947 649.925439 C 1717.908453 660.397795 1700.180832 671.069625 1682.403274 681.691586 L 1629.320286 713.85668 L 1576.486982 746.420721 C 1558.909172 757.391761 1541.331362 768.213196 1523.853426 779.333841 C 1488.847617 801.425525 1453.991619 823.766552 1419.535117 846.755867 C 1455.739413 826.609049 1491.544213 805.813941 1527.149266 784.719624 C 1544.97676 774.247268 1562.704381 763.52557 1580.481939 752.953477 L 1633.51499 720.788383 L 1686.398231 688.224342 C 1703.926104 677.253302 1721.553851 666.381999 1739.031787 655.261354 C 1774.037596 633.219538 1808.893594 610.878511 1843.350096 587.889196 Z M 1843.350096 587.889196 " stroke="#000000" stroke-width="1" stroke-opacity="1" stroke-miterlimit="10"/><path stroke-linecap="butt" transform="matrix(0.0782236, 0, 0, 0.0783312, 110.564287, 110.266325)" fill-opacity="1" fill="#e5e1d3" fill-rule="nonzero" stroke-linejoin="miter" d="M 1841.15287 635.164404 C 1804.948574 655.311222 1769.19371 676.156198 1733.538721 697.200647 C 1715.711226 707.673003 1697.983606 718.394701 1680.206048 728.966794 L 1627.123059 761.131888 L 1574.239819 793.695929 C 1556.711946 804.666969 1539.084199 815.538272 1521.6562 826.609049 C 1486.650391 848.700733 1451.794393 871.04176 1417.337891 894.031075 C 1453.542187 873.934125 1489.29705 853.089149 1524.952039 832.0447 C 1542.779534 821.572344 1560.457218 810.850646 1578.234776 800.228685 L 1631.317764 768.063591 L 1684.201005 735.49955 C 1701.728878 724.52851 1719.356624 713.657207 1736.83456 702.58643 C 1771.840369 680.494746 1806.696367 658.153719 1841.15287 635.164404 Z M 1841.15287 635.164404 " stroke="#000000" stroke-width="1" stroke-opacity="1" stroke-miterlimit="10"/><path stroke-linecap="butt" transform="matrix(0.0782236, 0, 0, 0.0783312, 110.564287, 110.266325)" fill-opacity="1" fill="#e5e1d3" fill-rule="nonzero" stroke-linejoin="miter" d="M 1313.968384 803.769338 C 1221.834693 777.488711 1129.301506 752.754003 1036.618508 728.517979 C 990.326947 716.30023 943.935511 704.631033 897.544075 692.662626 L 758.219957 657.655035 L 618.696091 623.495207 L 548.884221 606.789305 L 513.928349 598.41142 L 478.972477 590.233009 C 385.740173 568.340798 292.358058 547.047007 198.626384 527.249267 C 290.760075 553.579762 383.293262 578.31447 475.926322 602.550494 L 510.682446 611.626536 L 545.438571 620.552973 L 615.000756 638.405847 L 754.324874 673.36357 L 893.84874 707.523398 C 940.439924 718.594175 986.931233 729.964161 1033.572354 740.735728 C 1126.854595 762.627939 1220.186773 783.971598 1313.968384 803.769338 Z M 1313.968384 803.769338 " stroke="#000000" stroke-width="1" stroke-opacity="1" stroke-miterlimit="10"/><path stroke-linecap="butt" transform="matrix(0.0782236, 0, 0, 0.0783312, 110.564287, 110.266325)" fill-opacity="1" fill="#e5e1d3" fill-rule="nonzero" stroke-linejoin="miter" d="M 1313.618825 846.506525 C 1221.485134 820.225898 1128.951947 795.49119 1036.318887 771.255166 C 990.027325 759.037417 943.585952 747.36822 897.244453 735.399813 L 757.920335 700.392222 L 618.396469 666.232394 L 548.534662 649.526492 L 513.628727 641.148607 L 478.672855 632.970196 C 385.440551 611.077984 292.058436 589.784194 198.276825 569.986454 C 290.410516 596.316949 382.943703 621.051657 475.626701 645.287681 L 510.332888 654.363723 L 545.138949 663.29016 L 614.701134 681.143034 L 754.025252 716.100757 L 893.549118 750.260585 C 940.090365 761.331362 986.631611 772.701348 1033.272732 783.522783 C 1126.505036 805.365126 1219.887151 826.708785 1313.618825 846.506525 Z M 1313.618825 846.506525 " stroke="#000000" stroke-width="1" stroke-opacity="1" stroke-miterlimit="10"/><path stroke-linecap="butt" transform="matrix(0.0782236, 0, 0, 0.0783312, 110.564287, 110.266325)" fill-opacity="1" fill="#e5e1d3" fill-rule="nonzero" stroke-linejoin="miter" d="M 1313.269266 893.88147 C 1221.135575 867.600843 1128.602389 842.866135 1035.969328 818.679979 C 989.677766 806.412362 943.236393 794.743165 896.894894 782.774758 L 757.570776 747.767167 L 618.04691 713.607338 L 548.185103 696.901437 L 513.279168 688.57342 L 478.323296 680.34514 C 385.090992 658.502798 291.708877 637.159138 197.927266 617.361398 C 290.060957 643.691894 382.594144 668.426602 475.277142 692.662626 L 509.983329 701.738668 L 544.78939 710.665105 L 614.351575 728.517979 L 753.675693 763.475701 L 893.199559 797.63553 C 939.740806 808.706306 986.282053 820.076293 1032.923173 830.897728 C 1126.155478 852.789939 1219.537593 874.133598 1313.269266 893.88147 Z M 1313.269266 893.88147 " stroke="#000000" stroke-width="1" stroke-opacity="1" stroke-miterlimit="10"/><path stroke-linecap="butt" transform="matrix(0.0782236, 0, 0, 0.0783312, 110.564287, 110.266325)" fill-opacity="1" fill="#f04d6e" fill-rule="nonzero" stroke-linejoin="miter" d="M 448.411057 594.920635 L 361.920243 572.430003 C 361.920243 572.430003 348.537138 622.049024 360.32226 662.09332 L 393.730086 634.466247 L 424.541191 676.255935 C 424.541191 676.255935 425.290245 611.925747 448.411057 594.920635 Z M 448.411057 594.920635 " stroke="#000000" stroke-width="1" stroke-opacity="1" stroke-miterlimit="10"/><path stroke-linecap="butt" transform="matrix(0.0782236, 0, 0, 0.0783312, 110.564287, 110.266325)" fill-opacity="1" fill="#f04d6e" fill-rule="nonzero" stroke-linejoin="miter" d="M 994.271966 771.554376 L 907.331719 751.208084 C 907.331719 751.208084 893.998551 799.979343 905.783673 840.073506 L 939.1915 812.396565 L 970.002604 854.236122 C 970.002604 854.236122 971.151154 788.559488 994.271966 771.554376 Z M 994.271966 771.554376 " stroke="#000000" stroke-width="1" stroke-opacity="1" stroke-miterlimit="10"/><g mask="url(#dd1cea61dc)"><g transform="matrix(1, 0, 0, 1, 246, 165)"><g clip-path="url(#da21641f99)"><g clip-path="url(#7312f536ce)"><path fill="#010101" d="M 10.511719 0.859375 L 13.441406 2.347656 L 1.226562 6.734375 Z M 10.511719 0.859375 " fill-opacity="1" fill-rule="nonzero"/></g><g clip-path="url(#1fdfd2d7bb)"><path stroke-linecap="butt" transform="matrix(0.0782236, 0, 0, 0.0783312, -135.435706, -54.733675)" fill="none" stroke-linejoin="miter" d="M 1865.771699 709.717606 L 1903.224419 728.717452 L 1747.071545 784.719624 Z M 1865.771699 709.717606 " stroke="#000000" stroke-width="1" stroke-opacity="1" stroke-miterlimit="10"/></g></g></g></g></svg>