<?xml version="1.0" encoding="UTF-8" standalone="no"?>
<!DOCTYPE svg PUBLIC "-//W3C//DTD SVG 1.1//EN" "http://www.w3.org/Graphics/SVG/1.1/DTD/svg11.dtd">
<svg width="100%" height="100%" viewBox="0 0 314 309" version="1.1" xmlns="http://www.w3.org/2000/svg" xmlns:xlink="http://www.w3.org/1999/xlink" xml:space="preserve" xmlns:serif="http://www.serif.com/" style="fill-rule:evenodd;clip-rule:evenodd;stroke-linejoin:round;stroke-miterlimit:2;">
    <g transform="matrix(1,0,0,1,-116.021,-95.5313)">
        <path d="M388.776,95.531C392.688,115.135 382.901,135.359 368.802,149.479C354.708,163.625 336.672,172.995 319.464,183.078C302.229,193.156 285.021,204.656 274.219,221.453C264.802,236.068 260.953,253.578 258.984,270.839C256.521,291.802 256.859,313.781 263.51,333.51C268.344,321.609 274.651,310.234 281.823,299.599C295.917,278.667 313.276,260.203 330.547,241.833C350.734,220.375 370.896,198.953 391.089,177.5C370.188,216.708 337.807,248.333 310.448,283.323C283.083,318.344 259.755,360.141 262.307,404.531C264.339,381.813 282.745,363.781 302.719,352.807C322.698,341.833 345.073,335.698 364.74,324.229C401.953,302.526 426.974,261.161 428.911,218.063C430.88,174.479 411.031,133.016 388.776,95.531Z" style="fill:rgb(0,104,56);fill-rule:nonzero;"/>
    </g>
    <g transform="matrix(1,0,0,1,-116.021,-95.5313)">
        <clipPath id="_clip1">
            <path d="M147.906,114.333C144.948,129.193 152.37,144.516 163.047,155.208C173.729,165.906 187.396,173.026 200.443,180.672C213.495,188.318 226.516,197.01 234.729,209.74C241.87,220.807 244.766,234.063 246.271,247.167C248.089,263.01 247.844,279.688 242.797,294.635C239.13,285.635 234.359,277.005 228.911,268.958C218.234,253.115 205.094,239.12 192.01,225.219C176.714,208.969 161.448,192.724 146.151,176.479C161.969,206.198 186.5,230.12 207.245,256.661C227.99,283.172 245.656,314.828 243.719,348.458C242.177,331.26 228.234,317.604 213.125,309.281C198.01,300.958 181.052,296.333 166.125,287.641C137.932,271.115 118.974,239.797 117.495,207.151C116.021,174.135 131.068,142.755 147.906,114.333Z"/>
        </clipPath>
        <g clip-path="url(#_clip1)">
            <rect x="116.021" y="114.333" width="132.068" height="234.125" style="fill:url(#_Linear2);fill-rule:nonzero;"/>
        </g>
    </g>
    <defs>
        <linearGradient id="_Linear2" x1="0" y1="0" x2="1" y2="0" gradientUnits="userSpaceOnUse" gradientTransform="matrix(1.43359e-14,234.123,-234.123,1.43359e-14,182.35,114.335)"><stop offset="0" style="stop-color:rgb(136,190,65);stop-opacity:1"/><stop offset="0.25" style="stop-color:rgb(135,190,65);stop-opacity:1"/><stop offset="0.38" style="stop-color:rgb(135,189,65);stop-opacity:1"/><stop offset="0.5" style="stop-color:rgb(134,189,65);stop-opacity:1"/><stop offset="0.63" style="stop-color:rgb(134,188,65);stop-opacity:1"/><stop offset="0.75" style="stop-color:rgb(133,188,65);stop-opacity:1"/><stop offset="1" style="stop-color:rgb(133,186,65);stop-opacity:1"/></linearGradient>
    </defs>
</svg>
