<?xml version="1.0" encoding="UTF-8" standalone="no"?>
<!DOCTYPE svg PUBLIC "-//W3C//DTD SVG 1.1//EN" "http://www.w3.org/Graphics/SVG/1.1/DTD/svg11.dtd">
<svg width="100%" height="100%" viewBox="0 0 3544 3544" version="1.1" xmlns="http://www.w3.org/2000/svg" xmlns:xlink="http://www.w3.org/1999/xlink" xml:space="preserve" xmlns:serif="http://www.serif.com/" style="fill-rule:evenodd;clip-rule:evenodd;stroke-linejoin:round;stroke-miterlimit:2;">
    <g transform="matrix(12.9475,0,0,12.9475,-1571.65,-1250.8)">
        <g>
            <path d="M226.406,184.797C249.948,208.583 249.745,246.906 249.745,246.906C249.745,246.906 211.365,246.677 187.813,222.901C164.26,199.125 158.568,166.62 164.469,160.792C170.38,154.953 202.865,161.021 226.406,184.797Z" style="fill:rgb(149,193,39);fill-rule:nonzero;"/>
            <path d="M237.245,231.625C218.031,212.219 198.823,192.818 179.615,173.427C177.917,171.714 175.271,174.354 176.969,176.068C196.177,195.469 215.385,214.87 234.594,234.266C236.292,235.99 238.948,233.344 237.245,231.625Z" style="fill:rgb(104,165,44);fill-rule:nonzero;"/>
            <path d="M226.75,220.036C222.885,212.974 222.182,205.672 225.354,198.203C226.286,196.016 223.057,194.109 222.12,196.318C218.401,205.073 218.953,213.604 223.51,221.927C224.672,224.042 227.911,222.156 226.75,220.036Z" style="fill:rgb(104,165,44);fill-rule:nonzero;"/>
            <path d="M205.031,198.776C201.62,193.141 200.714,186.823 202.438,180.469C203.068,178.141 199.458,177.146 198.823,179.474C196.849,186.766 197.875,194.198 201.792,200.661C203.047,202.724 206.281,200.849 205.031,198.776Z" style="fill:rgb(104,165,44);fill-rule:nonzero;"/>
            <path d="M221.656,215.229C213.599,210.719 205.083,209.854 196.474,213.391C194.266,214.292 195.234,217.911 197.469,217C205.167,213.839 212.5,214.396 219.766,218.474C221.88,219.641 223.771,216.411 221.656,215.229Z" style="fill:rgb(104,165,44);fill-rule:nonzero;"/>
            <path d="M200.615,193.297C194.182,189.307 186.745,188.214 179.422,190.109C177.089,190.708 178.073,194.318 180.417,193.719C186.807,192.073 193.115,193.068 198.714,196.531C200.776,197.802 202.661,194.568 200.615,193.297Z" style="fill:rgb(104,165,44);fill-rule:nonzero;"/>
            <path d="M311.708,223.167C287.891,246.677 249.505,246.474 249.505,246.474C249.505,246.474 249.74,208.151 273.547,184.63C297.359,161.115 329.917,155.432 335.75,161.323C341.599,167.219 335.531,199.651 311.708,223.167Z" style="fill:rgb(149,193,39);fill-rule:nonzero;"/>
            <path d="M264.818,233.99C284.245,214.807 303.677,195.625 323.099,176.448C324.813,174.75 322.167,172.109 320.453,173.802C301.021,192.984 281.589,212.167 262.172,231.344C260.443,233.042 263.099,235.682 264.818,233.99Z" style="fill:rgb(104,165,44);fill-rule:nonzero;"/>
            <path d="M276.417,223.51C283.49,219.651 290.802,218.953 298.281,222.12C300.479,223.047 302.385,219.828 300.172,218.885C291.401,215.177 282.865,215.729 274.526,220.276C272.406,221.427 274.297,224.661 276.417,223.51Z" style="fill:rgb(104,165,44);fill-rule:nonzero;"/>
            <path d="M297.714,201.823C303.354,198.417 309.682,197.516 316.047,199.234C318.38,199.865 319.375,196.26 317.042,195.625C309.734,193.656 302.297,194.677 295.823,198.594C293.766,199.833 295.646,203.078 297.714,201.823Z" style="fill:rgb(104,165,44);fill-rule:nonzero;"/>
            <path d="M281.24,218.427C285.76,210.38 286.625,201.88 283.083,193.276C282.182,191.078 278.557,192.047 279.469,194.271C282.635,201.964 282.078,209.281 277.995,216.542C276.823,218.641 280.063,220.526 281.24,218.427Z" style="fill:rgb(104,165,44);fill-rule:nonzero;"/>
            <path d="M303.198,197.406C307.193,190.984 308.286,183.552 306.391,176.245C305.792,173.911 302.177,174.896 302.776,177.24C304.427,183.62 303.427,189.917 299.964,195.505C298.688,197.568 301.927,199.458 303.198,197.406Z" style="fill:rgb(104,165,44);fill-rule:nonzero;"/>
            <path d="M249.745,333.984C244.766,333.984 240.729,329.948 240.729,324.979L240.729,228.328C240.729,223.354 244.766,219.318 249.745,219.318C254.729,219.318 258.766,223.354 258.766,228.328L258.766,324.979C258.755,329.948 254.719,333.984 249.745,333.984Z" style="fill:rgb(178,204,23);fill-rule:nonzero;"/>
            <path d="M276.88,174.906C276.688,208.354 249.396,235.307 249.396,235.307C249.396,235.307 222.411,208.042 222.609,174.604C222.802,141.156 241.781,114.161 250.089,114.203C258.396,114.245 277.073,141.464 276.88,174.906Z" style="fill:rgb(178,204,23);fill-rule:nonzero;"/>
            <path d="M251.38,215.672C251.536,188.391 251.693,161.115 251.849,133.828C251.859,131.417 248.115,131.417 248.104,133.828C247.948,161.115 247.792,188.391 247.635,215.672C247.625,218.078 251.37,218.078 251.38,215.672Z" style="fill:rgb(115,183,49);fill-rule:nonzero;"/>
            <path d="M252.156,200.094C254.302,192.432 259.172,186.568 266.661,183.646C268.885,182.781 267.917,179.161 265.667,180.036C256.911,183.443 251.073,190.083 248.542,199.099C247.896,201.417 251.51,202.406 252.156,200.094Z" style="fill:rgb(115,183,49);fill-rule:nonzero;"/>
            <path d="M251.859,169.714C253.38,163.344 257.302,158.12 263.016,154.906C265.12,153.729 263.229,150.484 261.125,151.677C254.609,155.339 249.99,161.443 248.245,168.719C247.693,171.068 251.297,172.063 251.859,169.714Z" style="fill:rgb(115,183,49);fill-rule:nonzero;"/>
            <path d="M251.969,193.047C249.536,183.995 243.76,177.318 235.047,173.802C232.818,172.901 231.839,176.521 234.052,177.411C241.51,180.422 246.292,186.365 248.354,194.042C248.984,196.365 252.599,195.38 251.969,193.047Z" style="fill:rgb(115,183,49);fill-rule:nonzero;"/>
            <path d="M252.615,162.677C250.964,155.385 246.391,149.245 239.917,145.495C237.823,144.292 235.932,147.521 238.026,148.729C243.708,152.016 247.552,157.292 249,163.672C249.536,166.021 253.141,165.026 252.615,162.677Z" style="fill:rgb(115,183,49);fill-rule:nonzero;"/>
            <path d="M312.198,312.99C311.745,312.99 311.313,313.026 310.88,313.078C308.115,307.656 302.479,303.927 295.969,303.927C294.38,303.927 292.849,304.167 291.396,304.573C288.875,298.521 282.911,294.26 275.938,294.26C272.344,294.26 269.021,295.401 266.302,297.323C262.318,294.349 257.385,292.573 252.026,292.573C251.682,292.573 251.354,292.609 251.01,292.63C250.672,292.609 250.339,292.573 249.995,292.573C244.641,292.573 239.703,294.349 235.719,297.323C232.99,295.401 229.672,294.26 226.083,294.26C219.109,294.26 213.135,298.51 210.625,304.573C209.172,304.156 207.641,303.927 206.052,303.927C199.542,303.927 193.906,307.656 191.141,313.078C190.708,313.026 190.266,312.99 189.823,312.99C183.938,312.99 179.172,317.75 179.172,323.625C179.172,329.5 183.938,334.26 189.823,334.26C191.63,334.26 193.339,333.807 194.823,333.005C197.792,335.698 201.729,337.354 206.052,337.354C208.063,337.354 209.99,336.979 211.781,336.333C214.714,341.167 220.016,344.406 226.094,344.406C229.375,344.406 232.417,343.448 235,341.818C238.495,346.26 243.911,349.125 250.005,349.125C256.526,349.125 262.271,345.854 265.719,340.87C268.552,343.073 272.094,344.406 275.958,344.406C282.031,344.406 287.339,341.167 290.271,336.333C292.057,336.984 293.974,337.354 295.995,337.354C300.323,337.354 304.26,335.698 307.229,333.005C308.724,333.802 310.417,334.26 312.229,334.26C318.109,334.26 322.88,329.5 322.88,323.625C322.844,317.75 318.073,312.99 312.198,312.99Z" style="fill:rgb(220,125,63);fill-rule:nonzero;"/>
            <path d="M226.469,320.641C226.469,320.99 226.438,321.333 226.37,321.672C226.302,322.01 226.203,322.344 226.068,322.661C225.938,322.984 225.771,323.286 225.578,323.578C225.385,323.865 225.167,324.135 224.922,324.38C224.677,324.625 224.406,324.844 224.12,325.036C223.828,325.229 223.526,325.391 223.203,325.526C222.88,325.656 222.552,325.755 222.208,325.823C221.87,325.891 221.526,325.927 221.177,325.927C220.828,325.927 220.484,325.891 220.146,325.823C219.802,325.755 219.474,325.656 219.151,325.526C218.828,325.391 218.526,325.229 218.234,325.036C217.948,324.844 217.682,324.625 217.432,324.38C217.188,324.135 216.969,323.865 216.776,323.578C216.583,323.286 216.422,322.984 216.286,322.661C216.156,322.344 216.052,322.01 215.984,321.672C215.917,321.333 215.885,320.99 215.885,320.641C215.885,320.292 215.917,319.948 215.984,319.609C216.052,319.271 216.156,318.938 216.286,318.62C216.422,318.297 216.583,317.995 216.776,317.703C216.969,317.417 217.188,317.151 217.432,316.901C217.682,316.656 217.948,316.438 218.234,316.245C218.526,316.052 218.828,315.891 219.151,315.755C219.474,315.625 219.802,315.526 220.146,315.458C220.484,315.391 220.828,315.354 221.177,315.354C221.526,315.354 221.87,315.391 222.208,315.458C222.552,315.526 222.88,315.625 223.203,315.755C223.526,315.891 223.828,316.052 224.12,316.245C224.406,316.438 224.677,316.656 224.922,316.901C225.167,317.151 225.385,317.417 225.578,317.703C225.771,317.995 225.938,318.297 226.068,318.62C226.203,318.938 226.302,319.271 226.37,319.609C226.438,319.948 226.469,320.292 226.469,320.641Z" style="fill:rgb(168,98,48);fill-rule:nonzero;"/>
            <path d="M223.464,307.474C223.464,307.87 223.385,308.255 223.234,308.625C223.083,308.995 222.865,309.318 222.583,309.604C222.297,309.885 221.974,310.104 221.604,310.255C221.234,310.406 220.849,310.484 220.448,310.484C220.047,310.484 219.667,310.406 219.297,310.255C218.927,310.104 218.599,309.885 218.318,309.604C218.031,309.318 217.818,308.995 217.661,308.625C217.51,308.255 217.432,307.87 217.432,307.474C217.432,307.073 217.51,306.688 217.661,306.318C217.818,305.953 218.031,305.625 218.318,305.344C218.599,305.063 218.927,304.844 219.297,304.693C219.667,304.536 220.047,304.464 220.448,304.464C220.849,304.464 221.234,304.536 221.604,304.693C221.974,304.844 222.297,305.063 222.583,305.344C222.865,305.625 223.083,305.953 223.234,306.318C223.385,306.688 223.464,307.073 223.464,307.474Z" style="fill:rgb(168,98,48);fill-rule:nonzero;"/>
            <path d="M211.495,317.115C211.495,317.516 211.417,317.896 211.266,318.266C211.109,318.635 210.896,318.958 210.609,319.245C210.328,319.526 210,319.745 209.63,319.896C209.266,320.047 208.88,320.125 208.479,320.125C208.078,320.125 207.693,320.047 207.323,319.896C206.953,319.745 206.63,319.526 206.344,319.245C206.063,318.958 205.844,318.635 205.693,318.266C205.542,317.896 205.464,317.516 205.464,317.115C205.464,316.714 205.542,316.328 205.693,315.964C205.844,315.594 206.063,315.266 206.344,314.984C206.63,314.703 206.953,314.484 207.323,314.333C207.693,314.177 208.078,314.104 208.479,314.104C208.88,314.104 209.266,314.177 209.63,314.333C210,314.484 210.328,314.703 210.609,314.984C210.896,315.266 211.109,315.594 211.266,315.964C211.417,316.328 211.495,316.714 211.495,317.115Z" style="fill:rgb(168,98,48);fill-rule:nonzero;"/>
            <path d="M286.146,320.797C286.146,321.146 286.115,321.49 286.047,321.828C285.979,322.167 285.875,322.5 285.745,322.818C285.609,323.141 285.448,323.443 285.255,323.734C285.063,324.021 284.844,324.292 284.594,324.536C284.349,324.781 284.083,325 283.792,325.193C283.505,325.385 283.198,325.547 282.88,325.682C282.557,325.813 282.229,325.911 281.885,325.979C281.547,326.047 281.203,326.083 280.854,326.083C280.505,326.083 280.161,326.047 279.823,325.979C279.479,325.911 279.151,325.813 278.828,325.682C278.505,325.547 278.203,325.385 277.911,325.193C277.625,325 277.354,324.781 277.109,324.536C276.865,324.292 276.646,324.021 276.453,323.734C276.26,323.443 276.094,323.141 275.964,322.818C275.828,322.5 275.729,322.167 275.661,321.828C275.594,321.49 275.557,321.146 275.557,320.797C275.557,320.448 275.594,320.104 275.661,319.766C275.729,319.427 275.828,319.094 275.964,318.776C276.094,318.453 276.26,318.151 276.453,317.859C276.646,317.573 276.865,317.307 277.109,317.057C277.354,316.813 277.625,316.594 277.911,316.401C278.203,316.208 278.505,316.047 278.828,315.911C279.151,315.781 279.479,315.682 279.823,315.615C280.161,315.547 280.505,315.51 280.854,315.51C281.203,315.51 281.547,315.547 281.885,315.615C282.229,315.682 282.557,315.781 282.88,315.911C283.198,316.047 283.505,316.208 283.792,316.401C284.083,316.594 284.349,316.813 284.594,317.057C284.844,317.307 285.063,317.573 285.255,317.859C285.448,318.151 285.609,318.453 285.745,318.776C285.875,319.094 285.979,319.427 286.047,319.766C286.115,320.104 286.146,320.448 286.146,320.797Z" style="fill:rgb(168,98,48);fill-rule:nonzero;"/>
            <path d="M284.599,307.63C284.599,308.026 284.521,308.411 284.37,308.781C284.214,309.151 283.995,309.474 283.714,309.76C283.432,310.042 283.104,310.26 282.734,310.411C282.365,310.563 281.979,310.641 281.583,310.641C281.182,310.641 280.797,310.563 280.427,310.411C280.057,310.26 279.734,310.042 279.448,309.76C279.167,309.474 278.948,309.151 278.797,308.781C278.641,308.411 278.568,308.026 278.568,307.63C278.568,307.229 278.641,306.844 278.797,306.479C278.948,306.109 279.167,305.781 279.448,305.5C279.734,305.219 280.057,305 280.427,304.849C280.797,304.693 281.182,304.62 281.583,304.62C281.979,304.62 282.365,304.693 282.734,304.849C283.104,305 283.432,305.219 283.714,305.5C283.995,305.781 284.214,306.109 284.37,306.479C284.521,306.844 284.599,307.229 284.599,307.63Z" style="fill:rgb(168,98,48);fill-rule:nonzero;"/>
            <path d="M296.568,317.271C296.568,317.672 296.49,318.052 296.339,318.422C296.188,318.792 295.969,319.12 295.682,319.401C295.401,319.682 295.078,319.901 294.708,320.052C294.339,320.203 293.953,320.281 293.552,320.281C293.151,320.281 292.766,320.203 292.396,320.052C292.026,319.901 291.703,319.682 291.422,319.401C291.135,319.12 290.917,318.792 290.766,318.422C290.615,318.052 290.536,317.672 290.536,317.271C290.536,316.87 290.615,316.49 290.766,316.12C290.917,315.75 291.135,315.422 291.422,315.141C291.703,314.859 292.026,314.641 292.396,314.49C292.766,314.333 293.151,314.26 293.552,314.26C293.953,314.26 294.339,314.333 294.708,314.49C295.078,314.641 295.401,314.859 295.682,315.141C295.969,315.422 296.188,315.75 296.339,316.12C296.49,316.49 296.568,316.87 296.568,317.271Z" style="fill:rgb(168,98,48);fill-rule:nonzero;"/>
        </g>
    </g>
</svg>
