<svg xmlns="http://www.w3.org/2000/svg" xmlns:xlink="http://www.w3.org/1999/xlink" width="500" zoomAndPan="magnify" viewBox="0 0 375 374.999991" height="500" preserveAspectRatio="xMidYMid meet" version="1.0"><defs><clipPath id="7f3a19730e"><path d="M 119 114.699219 L 266 114.699219 L 266 264 L 119 264 Z M 119 114.699219 " clip-rule="nonzero"/></clipPath><clipPath id="b21587495e"><path d="M 119 114.699219 L 266 114.699219 L 266 264 L 119 264 Z M 119 114.699219 " clip-rule="nonzero"/></clipPath></defs><rect x="-37.5" width="450" fill="#ffffff" y="-37.499999" height="449.999989" fill-opacity="1"/><rect x="-37.5" width="450" fill="#ffffff" y="-37.499999" height="449.999989" fill-opacity="1"/><g clip-path="url(#7f3a19730e)"><path fill="#3f1e10" d="M 260.949219 252.214844 C 259.480469 251.457031 258.097656 250.742188 257.949219 249.714844 C 257.496094 246.535156 254.265625 245.089844 250.179688 243.257812 L 249.492188 242.949219 C 246.820312 241.75 245.308594 237.621094 243.976562 233.980469 C 243.195312 231.84375 242.515625 230 241.679688 228.914062 C 240.34375 227.175781 238.003906 227.117188 236.125 227.066406 C 234.605469 227.023438 233.675781 226.960938 233.5625 226.429688 C 233.015625 223.984375 229.519531 223.644531 225.8125 223.644531 C 223.554688 223.644531 222.730469 221.507812 221.773438 219.035156 C 221.21875 217.601562 220.648438 216.117188 219.734375 214.957031 C 217.984375 212.738281 214.308594 212.429688 210.753906 212.132812 C 209.035156 211.988281 207.257812 211.839844 205.746094 211.476562 C 204.09375 211.082031 202.929688 209.734375 201.585938 208.167969 C 199.382812 205.613281 196.652344 202.445312 190.460938 201.804688 C 189.3125 193.089844 188.042969 178.6875 188.617188 175.378906 C 189.320312 171.378906 194.308594 165.550781 197.503906 163.199219 C 199.992188 165.480469 203.9375 166.761719 208.378906 166.761719 C 208.996094 166.761719 209.625 166.738281 210.257812 166.6875 C 212.578125 166.503906 214.871094 165.992188 217.066406 165.164062 C 220.128906 164.015625 222.847656 162.316406 225.152344 160.121094 C 227.515625 157.867188 229.367188 155.144531 230.652344 152.023438 L 230.777344 151.726562 L 230.527344 151.515625 C 228.265625 149.632812 225.171875 148.148438 221.816406 147.339844 C 218.628906 146.570312 215.359375 146.4375 212.355469 146.96875 C 209.710938 147.433594 207.316406 148.390625 205.226562 149.8125 L 205.207031 149.785156 C 205.140625 149.835938 205.089844 149.886719 205.046875 149.933594 C 202.035156 152.03125 199.75 155.050781 198.238281 158.914062 C 195.449219 160.132812 192.085938 162.65625 189.199219 165.671875 C 189.597656 161.609375 190.265625 155.394531 190.6875 153.769531 C 194.464844 152.441406 198.210938 149.285156 201.019531 145.042969 L 201.15625 144.84375 C 202.660156 142.527344 203.832031 140 204.644531 137.335938 C 205.78125 133.621094 206.148438 129.835938 205.742188 126.082031 C 205.335938 122.226562 204.105469 118.515625 202.101562 115.050781 L 201.9375 114.777344 L 201.621094 114.847656 C 198.214844 115.609375 194.578125 117.445312 191.386719 120.015625 C 188.355469 122.449219 185.867188 125.433594 184.1875 128.640625 C 182.71875 131.453125 181.890625 134.386719 181.714844 137.371094 L 181.671875 137.371094 C 181.671875 137.460938 181.679688 137.5625 181.695312 137.65625 C 181.441406 143.226562 183.453125 148.734375 187.671875 154.03125 C 186.164062 158.792969 184.523438 168.613281 184.335938 176.171875 C 181.492188 172.746094 176.410156 172.476562 175.425781 172.453125 C 171.289062 169.070312 166.96875 167.429688 162.574219 167.578125 C 162.507812 167.566406 162.4375 167.558594 162.363281 167.554688 L 162.359375 167.585938 C 160.03125 167.691406 157.734375 168.300781 155.53125 169.402344 L 155.433594 169.449219 C 152.898438 170.730469 150.527344 172.65625 148.570312 175.015625 C 146.515625 177.507812 145.035156 180.347656 144.40625 183.011719 L 144.332031 183.328125 L 144.613281 183.496094 C 147.316406 185.101562 150.226562 186.101562 153.257812 186.464844 C 154.113281 186.570312 154.980469 186.621094 155.84375 186.621094 C 157.941406 186.621094 160.042969 186.316406 162.125 185.714844 C 164.226562 185.101562 166.230469 184.207031 168.066406 183.042969 C 171.191406 181.070312 173.578125 178.507812 174.832031 175.792969 C 176.582031 176.085938 178.234375 176.386719 179.761719 177.628906 C 181.613281 179.136719 183.050781 181.917969 184.160156 186.140625 C 185.527344 191.347656 185.863281 197.019531 185.886719 201 C 178.449219 201.308594 176.960938 205.769531 175.765625 209.367188 C 175.121094 211.308594 174.558594 212.992188 173.203125 213.667969 C 169.46875 213.378906 167.722656 215.394531 167.199219 216.765625 C 166.179688 216.738281 163.179688 216.800781 161.539062 218.246094 C 160.96875 218.75 160.613281 219.363281 160.480469 220.082031 C 152.761719 219.78125 152.21875 224.855469 151.953125 227.316406 C 151.90625 227.765625 151.84375 228.3125 151.757812 228.511719 C 150.144531 228.40625 148.386719 231.429688 146.734375 234.738281 C 145.828125 236.546875 142.925781 240.121094 140.210938 238.960938 C 138.550781 238.246094 136.757812 238.289062 135.289062 239.070312 C 133.832031 239.847656 132.84375 241.261719 132.507812 243.046875 C 132.011719 245.6875 129.277344 246.75 126.382812 247.875 C 125.710938 248.140625 125.011719 248.410156 124.339844 248.703125 C 121.753906 249.832031 119.257812 253.585938 119.960938 255.28125 C 120.167969 255.773438 120.777344 256.464844 122.605469 255.898438 C 122.820312 256.988281 123.316406 257.820312 124.085938 258.378906 C 125.269531 259.242188 126.753906 259.183594 127.398438 259.109375 C 127.738281 259.613281 128.617188 260.65625 130.214844 261.109375 C 132.226562 261.675781 134.636719 261.117188 137.382812 259.445312 C 141.097656 257.183594 143.453125 256.429688 145.25 256.910156 C 146.511719 257.246094 147.578125 258.242188 148.511719 259.945312 C 150.207031 263.050781 153.175781 261.742188 155.5625 260.691406 C 157.308594 259.921875 158.960938 259.191406 159.90625 260.058594 C 161.960938 261.9375 165.847656 261.621094 168.683594 261.386719 C 169.746094 261.296875 170.664062 261.222656 171.246094 261.28125 C 171.617188 261.320312 172.320312 261.421875 173.203125 261.546875 C 177.679688 262.199219 186.988281 263.550781 190.945312 262.140625 C 195.710938 260.445312 205.097656 258.011719 214.382812 260.816406 C 220.003906 262.519531 223.433594 261.855469 225.699219 261.421875 C 227.335938 261.105469 228.320312 260.914062 229.257812 261.632812 C 230.554688 262.628906 233.6875 263.15625 237.320312 263.15625 C 241.660156 263.15625 246.707031 262.402344 250.164062 260.796875 C 253.019531 259.46875 255.78125 259.992188 258.214844 260.453125 C 260.984375 260.976562 263.597656 261.46875 264.800781 258.34375 C 266.128906 254.882812 263.253906 253.402344 260.949219 252.214844 Z M 260.949219 252.214844 " fill-opacity="1" fill-rule="nonzero"/></g><path fill="#099602" d="M 230.246094 151.863281 C 228.042969 151.28125 222.324219 152.097656 216.199219 153.75 C 216.320312 153.601562 220.277344 148.757812 221.714844 147.78125 L 221.714844 147.773438 C 225.0625 148.582031 228.078125 150.058594 230.246094 151.863281 Z M 230.246094 151.863281 " fill-opacity="1" fill-rule="nonzero"/><path fill="#099602" d="M 216.199219 153.75 C 222.324219 152.097656 228.042969 151.28125 230.246094 151.863281 C 228.917969 155.078125 227.046875 157.707031 224.847656 159.804688 C 224.84375 159.804688 218.28125 155.144531 216.199219 153.75 C 216.195312 153.753906 216.195312 153.753906 216.199219 153.75 Z M 216.199219 153.75 " fill-opacity="1" fill-rule="nonzero"/><path fill="#099602" d="M 221.714844 147.773438 L 221.714844 147.78125 C 220.277344 148.757812 216.320312 153.601562 216.199219 153.75 C 213.453125 154.492188 210.617188 155.40625 207.988281 156.441406 L 212.433594 147.410156 L 212.433594 147.40625 C 215.542969 146.863281 218.757812 147.058594 221.714844 147.773438 Z M 221.714844 147.773438 " fill-opacity="1" fill-rule="nonzero"/><path fill="#099602" d="M 216.910156 164.75 C 214.699219 165.585938 212.425781 166.078125 210.21875 166.253906 L 210.21875 166.25 C 208.609375 165.191406 201.972656 159.25 201.972656 159.25 C 203.734375 158.246094 205.792969 157.300781 207.984375 156.441406 L 207.980469 156.445312 Z M 216.910156 164.75 " fill-opacity="1" fill-rule="nonzero"/><path fill="#099602" d="M 207.988281 156.441406 C 210.617188 155.40625 213.453125 154.492188 216.199219 153.75 C 216.195312 153.753906 216.195312 153.753906 216.195312 153.753906 C 218.285156 155.144531 224.84375 159.804688 224.84375 159.804688 C 222.484375 162.058594 219.746094 163.691406 216.910156 164.753906 L 216.910156 164.75 Z M 207.988281 156.441406 " fill-opacity="1" fill-rule="nonzero"/><path fill="#099602" d="M 212.433594 147.40625 L 207.988281 156.441406 C 205.792969 157.300781 203.734375 158.246094 201.976562 159.25 C 202.023438 158.695312 203.914062 151.773438 205.335938 150.273438 C 207.515625 148.761719 209.9375 147.847656 212.433594 147.40625 Z M 212.433594 147.40625 " fill-opacity="1" fill-rule="nonzero"/><path fill="#099602" d="M 189.886719 139.601562 L 204.21875 137.210938 C 203.402344 139.898438 202.214844 142.398438 200.78125 144.605469 L 200.777344 144.605469 C 198.601562 145.359375 188.179688 147.304688 188.179688 147.304688 C 188.507812 144.921875 189.109375 142.292969 189.886719 139.601562 Z M 189.886719 139.601562 " fill-opacity="1" fill-rule="nonzero"/><path fill="#099602" d="M 201.972656 159.25 C 201.972656 159.25 208.609375 165.191406 210.21875 166.25 L 210.21875 166.253906 C 205.054688 166.660156 200.265625 165.339844 197.535156 162.632812 C 198.539062 161.460938 200.082031 160.324219 201.972656 159.25 Z M 201.972656 159.25 " fill-opacity="1" fill-rule="nonzero"/><path fill="#099602" d="M 201.71875 115.277344 C 203.796875 118.863281 204.921875 122.539062 205.304688 126.132812 C 205.304688 126.132812 196.140625 128.941406 193.308594 129.902344 C 193.308594 129.902344 193.308594 129.902344 193.304688 129.898438 C 196.191406 122.917969 199.574219 116.933594 201.71875 115.277344 Z M 201.71875 115.277344 " fill-opacity="1" fill-rule="nonzero"/><path fill="#099602" d="M 197.539062 162.632812 C 197.832031 161.425781 198.179688 160.296875 198.585938 159.25 C 200.164062 155.121094 202.546875 152.207031 205.335938 150.273438 C 203.914062 151.773438 202.023438 158.695312 201.976562 159.25 C 200.082031 160.324219 198.539062 161.460938 197.539062 162.632812 Z M 197.539062 162.632812 " fill-opacity="1" fill-rule="nonzero"/><path fill="#099602" d="M 188.183594 147.304688 C 188.183594 147.304688 198.605469 145.363281 200.78125 144.609375 C 197.953125 148.957031 194.160156 152.167969 190.320312 153.4375 C 189.601562 153.675781 188.875 153.847656 188.160156 153.945312 C 187.78125 152.152344 187.824219 149.867188 188.183594 147.304688 Z M 188.183594 147.304688 " fill-opacity="1" fill-rule="nonzero"/><path fill="#099602" d="M 201.71875 115.277344 C 199.574219 116.929688 196.191406 122.917969 193.304688 129.898438 C 193.253906 129.675781 191.550781 122.421875 191.667969 120.363281 L 191.667969 120.359375 C 194.859375 117.789062 198.4375 116.011719 201.71875 115.277344 Z M 201.71875 115.277344 " fill-opacity="1" fill-rule="nonzero"/><path fill="#099602" d="M 193.308594 129.902344 C 196.140625 128.941406 205.304688 126.132812 205.304688 126.132812 C 205.71875 129.996094 205.273438 133.761719 204.21875 137.210938 L 189.886719 139.601562 C 190.820312 136.367188 192.015625 133.03125 193.308594 129.902344 Z M 193.308594 129.902344 " fill-opacity="1" fill-rule="nonzero"/><path fill="#099602" d="M 184.585938 128.847656 C 186.324219 125.511719 188.84375 122.625 191.667969 120.359375 L 191.667969 120.363281 C 191.550781 122.421875 193.257812 129.675781 193.304688 129.898438 C 192.015625 133.03125 190.820312 136.367188 189.886719 139.601562 Z M 184.585938 128.847656 " fill-opacity="1" fill-rule="nonzero"/><path fill="#099602" d="M 184.585938 128.847656 L 189.890625 139.601562 C 189.113281 142.292969 188.511719 144.921875 188.183594 147.304688 C 187.710938 146.878906 182.542969 140.078125 182.140625 137.632812 C 182.289062 134.476562 183.183594 131.519531 184.585938 128.847656 Z M 184.585938 128.847656 " fill-opacity="1" fill-rule="nonzero"/><path fill="#099602" d="M 188.160156 153.941406 C 183.566406 148.246094 181.894531 142.6875 182.140625 137.632812 C 182.539062 140.078125 187.707031 146.878906 188.183594 147.304688 C 187.824219 149.867188 187.78125 152.152344 188.160156 153.941406 Z M 188.160156 153.941406 " fill-opacity="1" fill-rule="nonzero"/><path fill="#82523a" d="M 173.285156 214.121094 C 177.714844 212.132812 174.5625 201.65625 186.324219 201.433594 L 186.328125 201.433594 C 186.332031 204.679688 186.140625 206.84375 186.140625 206.84375 C 186.140625 206.84375 188.742188 205.867188 190.808594 206.84375 C 190.605469 205.976562 190.347656 204.324219 190.066406 202.210938 C 200.257812 203.089844 200.992188 210.800781 205.644531 211.910156 C 210.300781 213.015625 216.949219 212.132812 219.386719 215.230469 C 221.828125 218.328125 221.828125 224.089844 225.816406 224.089844 C 229.804688 224.089844 232.6875 224.53125 233.128906 226.523438 C 233.574219 228.515625 239.117188 226.300781 241.328125 229.179688 C 243.542969 232.058594 244.875 241.359375 249.3125 243.351562 C 253.742188 245.347656 257.066406 246.675781 257.507812 249.773438 C 257.953125 252.871094 266.375 252.988281 264.378906 258.191406 C 262.382812 263.390625 256.402344 257.417969 249.972656 260.402344 C 243.542969 263.390625 232.121094 263.285156 229.523438 261.289062 C 226.925781 259.296875 224.039062 263.285156 214.507812 260.402344 C 204.976562 257.523438 195.449219 260.074219 190.792969 261.730469 C 186.136719 263.386719 173.503906 261.066406 171.289062 260.847656 C 169.070312 260.625 162.863281 262.171875 160.203125 259.738281 C 157.546875 257.300781 151.5625 264.609375 148.902344 259.738281 C 146.238281 254.863281 142.613281 255.753906 137.152344 259.074219 C 130.058594 263.386719 127.621094 258.628906 127.621094 258.628906 C 127.621094 258.628906 123.40625 259.515625 122.964844 255.304688 C 117.867188 257.300781 120.96875 250.65625 124.519531 249.105469 C 128.0625 247.554688 132.273438 246.671875 132.941406 243.125 C 133.605469 239.585938 136.929688 238.035156 140.035156 239.363281 C 143.136719 240.691406 146.238281 236.707031 147.128906 234.933594 C 148.011719 233.164062 150.230469 228.734375 151.78125 228.957031 C 153.332031 229.179688 150.230469 219.878906 160.871094 220.542969 C 161.097656 216.777344 167.519531 217.222656 167.519531 217.222656 C 167.519531 217.222656 168.40625 213.679688 173.285156 214.121094 Z M 173.285156 214.121094 " fill-opacity="1" fill-rule="nonzero"/><path fill="#92af2b" d="M 175.265625 172.894531 C 175.265625 172.894531 182.113281 172.847656 184.761719 177.570312 C 184.761719 169.851562 186.578125 158.804688 188.164062 153.945312 C 188.878906 153.847656 189.605469 153.675781 190.324219 153.4375 C 189.726562 155.226562 188.640625 166.941406 188.640625 166.941406 C 191.421875 163.816406 195.265625 160.648438 198.585938 159.25 C 198.183594 160.296875 197.835938 161.421875 197.542969 162.632812 C 194.488281 164.75 188.964844 170.84375 188.183594 175.308594 C 187.5625 178.855469 188.972656 194.023438 190.066406 202.214844 C 190.351562 204.328125 190.613281 205.980469 190.8125 206.84375 C 188.746094 205.867188 186.144531 206.84375 186.144531 206.84375 C 186.144531 206.84375 186.335938 204.683594 186.332031 201.433594 C 186.324219 197.308594 186.007812 191.429688 184.585938 186.03125 C 183.320312 181.210938 181.757812 178.691406 180.039062 177.292969 C 178.324219 175.894531 176.453125 175.625 174.570312 175.308594 C 174.90625 174.503906 175.148438 173.695312 175.265625 172.894531 Z M 175.265625 172.894531 " fill-opacity="1" fill-rule="nonzero"/><path fill="#099602" d="M 175.265625 172.894531 C 173.863281 172.578125 172.070312 172.59375 170.058594 172.84375 C 169.710938 172.453125 164.445312 168.363281 162.539062 168.023438 C 166.503906 167.882812 170.84375 169.242188 175.265625 172.894531 Z M 175.265625 172.894531 " fill-opacity="1" fill-rule="nonzero"/><path fill="#099602" d="M 175.265625 172.894531 L 174.566406 175.308594 C 173.398438 178.039062 170.988281 180.679688 167.828125 182.675781 L 167.824219 182.671875 C 168.4375 180.984375 170.0625 172.847656 170.0625 172.847656 L 170.058594 172.84375 C 172.070312 172.589844 173.863281 172.578125 175.265625 172.894531 Z M 175.265625 172.894531 " fill-opacity="1" fill-rule="nonzero"/><path fill="#099602" d="M 170.058594 172.84375 C 170.0625 172.847656 168.433594 180.984375 167.824219 182.671875 L 167.828125 182.675781 C 166.085938 183.777344 164.113281 184.683594 161.996094 185.292969 L 161.996094 185.289062 L 164.011719 174.105469 L 164.003906 174.101562 C 166.121094 173.519531 168.1875 173.078125 170.058594 172.84375 Z M 170.058594 172.84375 " fill-opacity="1" fill-rule="nonzero"/><path fill="#099602" d="M 162.539062 168.023438 C 164.445312 168.359375 169.710938 172.453125 170.058594 172.84375 C 168.1875 173.078125 166.121094 173.523438 164.003906 174.101562 L 155.636719 169.847656 C 157.738281 168.785156 160.066406 168.109375 162.539062 168.023438 Z M 162.539062 168.023438 " fill-opacity="1" fill-rule="nonzero"/><path fill="#099602" d="M 156.367188 176.683594 C 158.835938 175.703125 161.457031 174.804688 164.003906 174.105469 L 164.011719 174.109375 L 161.996094 185.292969 L 161.996094 185.296875 C 159.28125 186.082031 156.328125 186.398438 153.308594 186.03125 C 153.308594 186.03125 155.59375 178.890625 156.375 176.6875 C 156.375 176.6875 156.371094 176.6875 156.367188 176.683594 Z M 156.367188 176.683594 " fill-opacity="1" fill-rule="nonzero"/><path fill="#099602" d="M 156.367188 176.683594 C 156.371094 176.6875 156.375 176.6875 156.375 176.6875 C 155.59375 178.890625 153.308594 186.03125 153.308594 186.03125 C 150.496094 185.695312 147.625 184.78125 144.835938 183.121094 C 146.152344 181.457031 150.871094 178.871094 156.367188 176.683594 Z M 156.367188 176.683594 " fill-opacity="1" fill-rule="nonzero"/><path fill="#099602" d="M 148.914062 175.308594 C 150.519531 175.238281 156.109375 176.617188 156.367188 176.683594 C 150.871094 178.871094 146.152344 181.460938 144.835938 183.121094 C 145.441406 180.5625 146.867188 177.777344 148.914062 175.308594 Z M 148.914062 175.308594 " fill-opacity="1" fill-rule="nonzero"/><path fill="#099602" d="M 148.910156 175.308594 C 150.714844 173.125 153 171.179688 155.632812 169.851562 C 155.632812 169.851562 155.632812 169.851562 155.636719 169.851562 L 164.003906 174.105469 C 161.457031 174.804688 158.835938 175.707031 156.367188 176.683594 C 156.109375 176.617188 150.519531 175.238281 148.910156 175.308594 Z M 148.910156 175.308594 " fill-opacity="1" fill-rule="nonzero"/><path fill="#3f1e10" d="M 212.46875 222.316406 C 211.695312 221.960938 210.625 222.035156 209.675781 222.511719 L 210.074219 223.300781 C 210.777344 222.949219 211.570312 222.878906 212.097656 223.121094 C 212.425781 223.273438 212.625 223.527344 212.722656 223.902344 L 213.582031 223.695312 C 213.421875 223.050781 213.039062 222.578125 212.46875 222.316406 Z M 212.46875 222.316406 " fill-opacity="1" fill-rule="nonzero"/><path fill="#3f1e10" d="M 208.859375 243.089844 C 206.617188 244.003906 205.613281 247.921875 205.304688 249.421875 C 203.507812 249.203125 201.996094 249.558594 200.691406 250.492188 L 201.207031 251.210938 C 202.410156 250.347656 203.847656 250.066406 205.589844 250.355469 L 206.023438 250.425781 L 206.101562 249.996094 C 206.523438 247.601562 207.589844 244.570312 209.199219 243.910156 C 209.863281 243.636719 210.585938 243.792969 211.410156 244.375 L 211.925781 243.65625 C 210.84375 242.886719 209.8125 242.695312 208.859375 243.089844 Z M 208.859375 243.089844 " fill-opacity="1" fill-rule="nonzero"/><path fill="#3f1e10" d="M 153.816406 249.980469 C 153.011719 249.914062 152.183594 249.84375 151.398438 249.550781 C 150.578125 249.242188 150.179688 248.761719 149.625 248.101562 C 149.304688 247.710938 148.941406 247.273438 148.433594 246.808594 C 145.992188 244.578125 143.136719 244.507812 139.714844 246.609375 L 140.179688 247.363281 C 143.304688 245.449219 145.667969 245.476562 147.835938 247.460938 C 148.296875 247.882812 148.628906 248.28125 148.945312 248.664062 C 149.511719 249.34375 150.046875 249.988281 151.089844 250.378906 C 151.992188 250.71875 152.882812 250.789062 153.746094 250.859375 C 155.28125 250.984375 156.601562 251.09375 157.75 252.605469 L 158.453125 252.070312 C 157.066406 250.242188 155.414062 250.105469 153.816406 249.980469 Z M 153.816406 249.980469 " fill-opacity="1" fill-rule="nonzero"/><path fill="#3f1e10" d="M 182.910156 214.164062 C 183.476562 214.199219 183.910156 214.601562 184.167969 215.320312 L 185.003906 215.023438 C 184.628906 213.972656 183.890625 213.339844 182.96875 213.28125 C 181.933594 213.214844 180.863281 213.894531 180.320312 214.972656 L 181.109375 215.371094 C 181.492188 214.617188 182.230469 214.121094 182.910156 214.164062 Z M 182.910156 214.164062 " fill-opacity="1" fill-rule="nonzero"/><path fill="#3f1e10" d="M 176.101562 221.296875 C 177.398438 221.378906 178.582031 222.195312 179.527344 223.65625 L 179.820312 224.101562 L 180.207031 223.734375 C 180.851562 223.117188 181.835938 222.847656 182.652344 223.058594 C 183.074219 223.167969 183.625 223.460938 183.863281 224.226562 L 184.710938 223.964844 C 184.429688 223.0625 183.78125 222.4375 182.875 222.203125 C 181.933594 221.960938 180.832031 222.1875 179.996094 222.773438 C 178.941406 221.339844 177.59375 220.507812 176.160156 220.421875 C 174.589844 220.320312 173.019531 221.105469 171.742188 222.625 L 172.417969 223.195312 C 173.511719 221.890625 174.816406 221.214844 176.101562 221.296875 Z M 176.101562 221.296875 " fill-opacity="1" fill-rule="nonzero"/><path fill="#3f1e10" d="M 242.113281 251.628906 C 240.464844 251.117188 238.417969 251.527344 237.25 252.605469 L 237.851562 253.253906 C 238.785156 252.390625 240.503906 252.054688 241.851562 252.472656 C 242.433594 252.652344 243.171875 253.050781 243.371094 253.917969 L 244.234375 253.722656 C 244.003906 252.726562 243.25 251.984375 242.113281 251.628906 Z M 242.113281 251.628906 " fill-opacity="1" fill-rule="nonzero"/><path fill="#3f1e10" d="M 238.910156 245.03125 L 239.761719 244.78125 C 239.1875 242.851562 238.023438 241.476562 236.386719 240.804688 C 234.390625 239.988281 231.78125 240.277344 229.167969 241.605469 C 228.472656 240.128906 227.414062 238.320312 225.859375 237.6875 C 224.691406 237.210938 223.503906 237.417969 222.351562 237.625 C 220.875 237.886719 219.597656 238.109375 218.539062 236.886719 L 217.871094 237.464844 C 219.257812 239.070312 220.984375 238.765625 222.511719 238.492188 C 223.582031 238.304688 224.597656 238.125 225.527344 238.503906 C 226.9375 239.078125 227.929688 241 228.554688 242.390625 L 228.75 242.828125 L 229.171875 242.597656 C 231.6875 241.21875 234.195312 240.859375 236.054688 241.621094 C 237.429688 242.1875 238.417969 243.367188 238.910156 245.03125 Z M 238.910156 245.03125 " fill-opacity="1" fill-rule="nonzero"/><path fill="#3f1e10" d="M 188.191406 232.75 C 187.289062 234.035156 186.433594 235.246094 185.292969 235.835938 C 184.558594 236.210938 183.777344 236.230469 182.949219 236.253906 C 181.691406 236.285156 180.265625 236.320312 178.925781 237.703125 C 178.351562 238.296875 178.066406 238.785156 177.839844 239.179688 C 177.5 239.769531 177.34375 240.039062 176.386719 240.230469 C 175.691406 240.367188 175.097656 240.445312 174.527344 240.519531 C 173.074219 240.710938 171.925781 240.863281 170.359375 241.855469 L 170.832031 242.605469 C 172.234375 241.714844 173.246094 241.582031 174.644531 241.398438 C 175.203125 241.324219 175.835938 241.242188 176.558594 241.097656 C 177.847656 240.84375 178.175781 240.371094 178.609375 239.625 C 178.820312 239.253906 179.0625 238.835938 179.5625 238.320312 C 180.648438 237.195312 181.773438 237.171875 182.96875 237.140625 C 183.859375 237.121094 184.78125 237.097656 185.695312 236.625 C 187.035156 235.9375 187.988281 234.578125 188.914062 233.257812 C 190.589844 230.875 192.039062 228.816406 195.429688 230.15625 L 195.757812 229.335938 C 191.710938 227.734375 189.84375 230.398438 188.191406 232.75 Z M 188.191406 232.75 " fill-opacity="1" fill-rule="nonzero"/><g clip-path="url(#b21587495e)"><path fill="#3f1e10" d="M 260.949219 252.214844 C 259.480469 251.457031 258.097656 250.742188 257.949219 249.714844 C 257.496094 246.535156 254.265625 245.089844 250.179688 243.257812 L 249.492188 242.949219 C 246.820312 241.75 245.308594 237.621094 243.976562 233.980469 C 243.195312 231.84375 242.515625 230 241.679688 228.914062 C 240.34375 227.175781 238.003906 227.117188 236.125 227.066406 C 234.605469 227.023438 233.675781 226.960938 233.5625 226.429688 C 233.015625 223.984375 229.519531 223.644531 225.8125 223.644531 C 223.554688 223.644531 222.730469 221.507812 221.773438 219.035156 C 221.21875 217.601562 220.648438 216.117188 219.734375 214.957031 C 217.984375 212.738281 214.308594 212.429688 210.753906 212.132812 C 209.035156 211.988281 207.257812 211.839844 205.746094 211.476562 C 204.09375 211.082031 202.929688 209.734375 201.585938 208.167969 C 199.382812 205.613281 196.652344 202.445312 190.460938 201.804688 C 189.3125 193.089844 188.042969 178.6875 188.617188 175.378906 C 189.320312 171.378906 194.308594 165.550781 197.503906 163.199219 C 199.992188 165.480469 203.9375 166.761719 208.378906 166.761719 C 208.996094 166.761719 209.625 166.738281 210.257812 166.6875 C 212.578125 166.503906 214.871094 165.992188 217.066406 165.164062 C 220.128906 164.015625 222.847656 162.316406 225.152344 160.121094 C 227.515625 157.867188 229.367188 155.144531 230.652344 152.023438 L 230.777344 151.726562 L 230.527344 151.515625 C 228.265625 149.632812 225.171875 148.148438 221.816406 147.339844 C 218.628906 146.570312 215.359375 146.4375 212.355469 146.96875 C 209.710938 147.433594 207.316406 148.390625 205.226562 149.8125 L 205.207031 149.785156 C 205.140625 149.835938 205.089844 149.886719 205.046875 149.933594 C 202.035156 152.03125 199.75 155.050781 198.238281 158.914062 C 195.449219 160.132812 192.085938 162.65625 189.199219 165.671875 C 189.597656 161.609375 190.265625 155.394531 190.6875 153.769531 C 194.464844 152.441406 198.210938 149.285156 201.019531 145.042969 L 201.15625 144.84375 C 202.660156 142.527344 203.832031 140 204.644531 137.335938 C 205.78125 133.621094 206.148438 129.835938 205.742188 126.082031 C 205.335938 122.226562 204.105469 118.515625 202.101562 115.050781 L 201.9375 114.777344 L 201.621094 114.847656 C 198.214844 115.609375 194.578125 117.445312 191.386719 120.015625 C 188.355469 122.449219 185.867188 125.433594 184.1875 128.640625 C 182.71875 131.453125 181.890625 134.386719 181.714844 137.371094 L 181.671875 137.371094 C 181.671875 137.460938 181.679688 137.5625 181.695312 137.65625 C 181.441406 143.226562 183.453125 148.734375 187.671875 154.03125 C 186.164062 158.792969 184.523438 168.613281 184.335938 176.171875 C 181.492188 172.746094 176.410156 172.476562 175.425781 172.453125 C 171.289062 169.070312 166.96875 167.429688 162.574219 167.578125 C 162.507812 167.566406 162.4375 167.558594 162.363281 167.554688 L 162.359375 167.585938 C 160.03125 167.691406 157.734375 168.300781 155.53125 169.402344 L 155.433594 169.449219 C 152.898438 170.730469 150.527344 172.65625 148.570312 175.015625 C 146.515625 177.507812 145.035156 180.347656 144.40625 183.011719 L 144.332031 183.328125 L 144.613281 183.496094 C 147.316406 185.101562 150.226562 186.101562 153.257812 186.464844 C 154.113281 186.570312 154.980469 186.621094 155.84375 186.621094 C 157.941406 186.621094 160.042969 186.316406 162.125 185.714844 C 164.226562 185.101562 166.230469 184.207031 168.066406 183.042969 C 171.191406 181.070312 173.578125 178.507812 174.832031 175.792969 C 176.582031 176.085938 178.234375 176.386719 179.761719 177.628906 C 181.613281 179.136719 183.050781 181.917969 184.160156 186.140625 C 185.527344 191.347656 185.863281 197.019531 185.886719 201 C 178.449219 201.308594 176.960938 205.769531 175.765625 209.367188 C 175.121094 211.308594 174.558594 212.992188 173.203125 213.667969 C 169.46875 213.378906 167.722656 215.394531 167.199219 216.765625 C 166.179688 216.738281 163.179688 216.800781 161.539062 218.246094 C 160.96875 218.75 160.613281 219.363281 160.480469 220.082031 C 152.761719 219.78125 152.21875 224.855469 151.953125 227.316406 C 151.90625 227.765625 151.84375 228.3125 151.757812 228.511719 C 150.144531 228.40625 148.386719 231.429688 146.734375 234.738281 C 145.828125 236.546875 142.925781 240.121094 140.210938 238.960938 C 138.550781 238.246094 136.757812 238.289062 135.289062 239.070312 C 133.832031 239.847656 132.84375 241.261719 132.507812 243.046875 C 132.011719 245.6875 129.277344 246.75 126.382812 247.875 C 125.710938 248.140625 125.011719 248.410156 124.339844 248.703125 C 121.753906 249.832031 119.257812 253.585938 119.960938 255.28125 C 120.167969 255.773438 120.777344 256.464844 122.605469 255.898438 C 122.820312 256.988281 123.316406 257.820312 124.085938 258.378906 C 125.269531 259.242188 126.753906 259.183594 127.398438 259.109375 C 127.738281 259.613281 128.617188 260.65625 130.214844 261.109375 C 132.226562 261.675781 134.636719 261.117188 137.382812 259.445312 C 141.097656 257.183594 143.453125 256.429688 145.25 256.910156 C 146.511719 257.246094 147.578125 258.242188 148.511719 259.945312 C 150.207031 263.050781 153.175781 261.742188 155.5625 260.691406 C 157.308594 259.921875 158.960938 259.191406 159.90625 260.058594 C 161.960938 261.9375 165.847656 261.621094 168.683594 261.386719 C 169.746094 261.296875 170.664062 261.222656 171.246094 261.28125 C 171.617188 261.320312 172.320312 261.421875 173.203125 261.546875 C 177.679688 262.199219 186.988281 263.550781 190.945312 262.140625 C 195.710938 260.445312 205.097656 258.011719 214.382812 260.816406 C 220.003906 262.519531 223.433594 261.855469 225.699219 261.421875 C 227.335938 261.105469 228.320312 260.914062 229.257812 261.632812 C 230.554688 262.628906 233.6875 263.15625 237.320312 263.15625 C 241.660156 263.15625 246.707031 262.402344 250.164062 260.796875 C 253.019531 259.46875 255.78125 259.992188 258.214844 260.453125 C 260.984375 260.976562 263.597656 261.46875 264.800781 258.34375 C 266.128906 254.882812 263.253906 253.402344 260.949219 252.214844 Z M 198.164062 162.609375 C 199.035156 161.683594 200.296875 160.742188 201.921875 159.792969 C 202.941406 160.707031 206.867188 164.191406 208.980469 165.871094 C 204.550781 165.992188 200.601562 164.808594 198.164062 162.609375 Z M 205.632812 150.609375 C 207.40625 149.382812 209.425781 148.515625 211.640625 148.019531 L 207.664062 156.089844 C 205.789062 156.832031 204.097656 157.605469 202.621094 158.386719 C 203.148438 156.382812 204.585938 151.777344 205.632812 150.609375 Z M 221.816406 148.253906 C 224.359375 148.894531 226.738281 149.933594 228.671875 151.238281 C 226.132812 151.179688 222.046875 151.800781 217.417969 152.972656 C 219.050781 151.03125 220.902344 148.960938 221.816406 148.253906 Z M 216.113281 154.234375 C 217.984375 155.488281 222.671875 158.804688 224.140625 159.847656 C 222.078125 161.722656 219.683594 163.203125 217.007812 164.238281 L 208.800781 156.601562 C 211.078125 155.734375 213.585938 154.921875 216.113281 154.234375 Z M 202.734375 159.335938 C 204.226562 158.523438 205.953125 157.726562 207.886719 156.957031 L 216.082031 164.582031 C 214.21875 165.222656 212.292969 165.628906 210.34375 165.796875 C 208.871094 164.769531 204.222656 160.65625 202.734375 159.335938 Z M 224.796875 159.226562 C 223.640625 158.40625 219.472656 155.457031 217.246094 153.929688 C 222.609375 152.542969 227.371094 151.875 229.617188 152.1875 C 228.441406 154.871094 226.820312 157.234375 224.796875 159.226562 Z M 220.738281 148.015625 C 219.238281 149.40625 216.859375 152.25 215.945312 153.363281 C 213.515625 154.023438 211.097656 154.796875 208.882812 155.625 L 212.730469 147.808594 C 215.28125 147.394531 218.023438 147.464844 220.738281 148.015625 Z M 203.800781 152.078125 C 202.746094 154.492188 201.785156 157.964844 201.578125 158.972656 C 200.3125 159.703125 199.25 160.4375 198.398438 161.167969 C 198.582031 160.558594 198.78125 159.96875 198.996094 159.410156 C 200.136719 156.433594 201.75 153.976562 203.800781 152.078125 Z M 190.179688 153.015625 C 189.625 153.199219 189.066406 153.339844 188.519531 153.4375 C 188.261719 151.910156 188.28125 149.976562 188.578125 147.679688 C 190.117188 147.390625 196.640625 146.152344 199.71875 145.367188 C 197.039062 149.121094 193.613281 151.878906 190.179688 153.015625 Z M 189.414062 139.644531 C 188.726562 142.039062 188.214844 144.265625 187.886719 146.277344 C 186.429688 144.425781 182.949219 139.535156 182.585938 137.601562 C 182.714844 134.960938 183.390625 132.359375 184.585938 129.847656 Z M 187.71875 147.449219 C 187.46875 149.308594 187.398438 150.949219 187.5 152.355469 C 184.546875 148.316406 182.910156 144.164062 182.613281 139.980469 C 184.113281 142.808594 186.953125 146.550781 187.71875 147.449219 Z M 200.542969 144.164062 L 200.496094 144.234375 C 198.457031 144.890625 190.914062 146.339844 188.714844 146.753906 C 189.027344 144.714844 189.539062 142.445312 190.242188 139.992188 L 203.578125 137.765625 C 202.828125 140.027344 201.8125 142.175781 200.542969 144.164062 Z M 203.875 136.820312 L 190.515625 139.050781 C 191.355469 136.226562 192.425781 133.207031 193.640625 130.257812 C 196.203125 129.398438 202.988281 127.308594 204.914062 126.714844 C 205.210938 130.085938 204.859375 133.480469 203.875 136.820312 Z M 192.105469 120.578125 C 194.660156 118.550781 197.492188 117.011719 200.238281 116.140625 C 198.289062 118.460938 195.789062 122.96875 193.433594 128.457031 C 192.757812 125.414062 192.101562 121.972656 192.105469 120.578125 Z M 204.820312 125.820312 C 203.289062 126.289062 197.136719 128.179688 194.085938 129.179688 C 196.730469 122.941406 199.640625 117.828125 201.59375 115.964844 C 203.324219 119.082031 204.40625 122.390625 204.820312 125.820312 Z M 191.253906 121.277344 C 191.449219 123.683594 192.46875 128.230469 192.84375 129.859375 C 191.671875 132.714844 190.625 135.640625 189.785156 138.394531 L 185.082031 128.859375 C 186.570312 126.078125 188.6875 123.472656 191.253906 121.277344 Z M 167.453125 182.382812 C 165.921875 183.332031 164.28125 184.097656 162.558594 184.65625 L 164.394531 174.457031 C 166.242188 173.957031 167.957031 173.589844 169.503906 173.367188 C 169.125 175.222656 167.976562 180.796875 167.453125 182.382812 Z M 162.503906 168.46875 C 163.9375 168.761719 167.492188 171.328125 169.023438 172.542969 C 167.507812 172.78125 165.839844 173.144531 164.050781 173.628906 L 156.636719 169.859375 C 158.542969 169.011719 160.515625 168.546875 162.503906 168.46875 Z M 170.210938 172.378906 C 169.484375 171.746094 166.917969 169.765625 164.816406 168.550781 C 167.824219 168.890625 170.800781 170.125 173.699219 172.238281 C 172.679688 172.183594 171.515625 172.230469 170.210938 172.378906 Z M 155.640625 170.347656 L 162.800781 173.984375 C 160.710938 174.601562 158.5 175.367188 156.335938 176.21875 C 155.570312 176.03125 151.898438 175.144531 149.835938 174.914062 C 151.539062 173.015625 153.527344 171.449219 155.640625 170.347656 Z M 153 185.539062 C 150.394531 185.179688 147.886719 184.335938 145.535156 183.011719 C 147.046875 181.535156 150.925781 179.398438 155.640625 177.457031 C 154.832031 179.835938 153.410156 184.257812 153 185.539062 Z M 149.121094 175.75 C 150.285156 175.773438 153.042969 176.355469 154.925781 176.792969 C 150.914062 178.46875 147.585938 180.25 145.71875 181.695312 C 146.433594 179.679688 147.605469 177.617188 149.121094 175.75 Z M 153.894531 185.644531 C 154.421875 184.007812 156.035156 178.988281 156.730469 177.019531 C 158.984375 176.132812 161.285156 175.34375 163.449219 174.722656 L 161.609375 184.941406 C 159.050781 185.648438 156.457031 185.882812 153.894531 185.644531 Z M 168.585938 181.628906 C 169.222656 179.179688 170.175781 174.511719 170.433594 173.246094 C 172.125 173.058594 173.5625 173.050781 174.703125 173.238281 L 174.144531 175.15625 C 173.128906 177.519531 171.175781 179.785156 168.585938 181.628906 Z M 180.316406 176.949219 C 178.675781 175.613281 176.90625 175.253906 175.175781 174.960938 C 175.378906 174.417969 175.53125 173.875 175.632812 173.347656 C 177.046875 173.421875 182.226562 173.953125 184.375 177.789062 L 185.203125 179.265625 L 185.203125 177.570312 C 185.203125 170.183594 186.925781 159.347656 188.5 154.335938 C 188.902344 154.269531 189.304688 154.183594 189.710938 154.074219 C 189.101562 157.207031 188.230469 166.460938 188.195312 166.894531 L 188.070312 168.238281 L 188.964844 167.230469 C 191.691406 164.171875 194.992188 161.523438 197.808594 160.101562 C 197.566406 160.820312 197.347656 161.582031 197.148438 162.367188 C 194.222656 164.460938 188.566406 170.558594 187.746094 175.230469 C 187.089844 178.976562 188.597656 194.589844 189.625 202.273438 C 189.847656 203.929688 190.046875 205.25 190.214844 206.160156 C 188.84375 205.792969 187.425781 206.03125 186.628906 206.238281 C 186.683594 205.355469 186.769531 203.632812 186.769531 201.433594 C 186.765625 197.386719 186.457031 191.40625 185.011719 185.917969 C 183.839844 181.449219 182.34375 178.601562 180.316406 176.949219 Z M 263.96875 258.035156 C 263.078125 260.363281 261.4375 260.171875 258.375 259.59375 C 255.941406 259.132812 252.90625 258.554688 249.789062 260.003906 C 243.371094 262.988281 232.167969 262.761719 229.796875 260.941406 C 228.542969 259.984375 227.214844 260.238281 225.535156 260.5625 C 223.222656 261.007812 220.054688 261.617188 214.640625 259.984375 C 205.113281 257.105469 195.519531 259.585938 190.648438 261.320312 C 186.898438 262.65625 177.394531 261.273438 173.335938 260.683594 C 172.402344 260.546875 171.730469 260.449219 171.339844 260.410156 C 170.675781 260.34375 169.722656 260.421875 168.613281 260.515625 C 165.941406 260.734375 162.277344 261.039062 160.507812 259.417969 C 159.136719 258.160156 157.140625 259.039062 155.207031 259.890625 C 152.425781 261.117188 150.507812 261.753906 149.292969 259.53125 C 148.238281 257.601562 146.996094 256.46875 145.484375 256.066406 C 143.402344 255.507812 140.925781 256.269531 136.925781 258.703125 C 134.410156 260.234375 132.238281 260.761719 130.476562 260.269531 C 128.746094 259.789062 128.023438 258.445312 128.019531 258.433594 L 127.863281 258.132812 L 127.535156 258.203125 C 127.515625 258.207031 125.820312 258.550781 124.609375 257.671875 C 123.929688 257.175781 123.523438 256.367188 123.40625 255.269531 L 123.347656 254.691406 L 122.808594 254.902344 C 121.707031 255.332031 120.949219 255.351562 120.785156 254.953125 C 120.355469 253.910156 122.351562 250.546875 124.699219 249.523438 C 125.355469 249.238281 126.042969 248.96875 126.707031 248.707031 C 129.699219 247.546875 132.792969 246.34375 133.378906 243.21875 C 133.664062 241.703125 134.488281 240.507812 135.707031 239.859375 C 136.933594 239.207031 138.449219 239.175781 139.859375 239.78125 C 143.179688 241.199219 146.457031 237.269531 147.523438 235.144531 C 149.96875 230.253906 151.15625 229.328125 151.722656 229.40625 C 151.929688 229.4375 152.125 229.386719 152.28125 229.261719 C 152.664062 228.964844 152.730469 228.351562 152.832031 227.421875 C 153.109375 224.847656 153.574219 220.542969 160.839844 220.992188 L 161.28125 221.019531 L 161.308594 220.578125 C 161.347656 219.90625 161.617188 219.363281 162.121094 218.921875 C 163.804688 217.441406 167.453125 217.671875 167.488281 217.671875 L 167.855469 217.695312 L 167.945312 217.339844 C 167.980469 217.207031 168.828125 214.167969 173.242188 214.566406 L 173.359375 214.578125 L 173.464844 214.527344 C 175.246094 213.726562 175.90625 211.75 176.601562 209.652344 C 177.765625 206.148438 179.089844 202.1875 185.882812 201.894531 C 185.867188 204.828125 185.703125 206.789062 185.699219 206.808594 L 185.640625 207.507812 L 186.296875 207.265625 C 186.320312 207.253906 188.753906 206.367188 190.617188 207.25 L 191.445312 207.640625 L 191.238281 206.75 C 191.066406 206.003906 190.835938 204.617188 190.574219 202.71875 C 196.269531 203.367188 198.730469 206.226562 200.910156 208.757812 C 202.359375 210.4375 203.609375 211.886719 205.539062 212.347656 C 207.117188 212.722656 208.925781 212.871094 210.675781 213.019531 C 214.042969 213.304688 217.523438 213.59375 219.03125 215.511719 C 219.863281 216.566406 220.414062 217.988281 220.941406 219.363281 C 221.925781 221.910156 222.941406 224.539062 225.808594 224.539062 C 230.304688 224.539062 232.363281 225.164062 232.691406 226.628906 C 232.964844 227.871094 234.488281 227.914062 236.097656 227.957031 C 237.875 228.003906 239.898438 228.054688 240.972656 229.457031 C 241.726562 230.4375 242.414062 232.304688 243.136719 234.289062 C 244.53125 238.09375 246.113281 242.410156 249.125 243.761719 L 249.808594 244.070312 C 253.800781 245.855469 256.679688 247.148438 257.066406 249.84375 C 257.277344 251.324219 258.859375 252.140625 260.535156 253.007812 C 263.246094 254.390625 264.941406 255.496094 263.96875 258.035156 Z M 263.96875 258.035156 " fill-opacity="1" fill-rule="nonzero"/></g></svg>